SplineFontDB: 3.2
FontName: Azr
FullName: Azr Regular
FamilyName: Azr
Weight: Regular
Copyright: (c) 2020 All rights reserved.
Version: 1.001;FEAKit 1.0
ItalicAngle: 0
UnderlinePosition: -302
UnderlineWidth: 161
Ascent: 1583
Descent: 465
InvalidEm: 0
sfntRevision: 0x00010041
LayerCount: 2
Layer: 0 1 "Back" 1
Layer: 1 1 "Fore" 0
XUID: [1021 992 510959400 8482527]
StyleMap: 0x0040
FSType: 0
OS2Version: 4
OS2_WeightWidthSlopeOnly: 0
OS2_UseTypoMetrics: 1
CreationTime: 1611573811
ModificationTime: 1630581292
PfmFamily: 17
TTFWeight: 505
TTFWidth: 5
LineGap: 0
VLineGap: 0
Panose: 2 15 1 3 6 4 5 6 3 4
OS2TypoAscent: 1583
OS2TypoAOffset: 0
OS2TypoDescent: -465
OS2TypoDOffset: 0
OS2TypoLinegap: 205
OS2WinAscent: 1747
OS2WinAOffset: 0
OS2WinDescent: 506
OS2WinDOffset: 0
HheadAscent: 1706
HheadAOffset: 0
HheadDescent: -465
HheadDOffset: 0
OS2SubXSize: 1331
OS2SubYSize: 1229
OS2SubXOff: 0
OS2SubYOff: 154
OS2SupXSize: 1331
OS2SupYSize: 1229
OS2SupXOff: 0
OS2SupYOff: 717
OS2StrikeYSize: 162
OS2StrikeYPos: 627
OS2CapHeight: 1464
OS2XHeight: 1047
OS2Vendor: 'DARK'
OS2CodePages: 20000093.00000000
OS2UnicodeRanges: 00000007.00000000.00000000.00000000
Lookup: 1 0 0 "'aalt' Access All Alternates in Latin lookup 0" { "'aalt' Access All Alternates in Latin lookup 0 subtable"  } ['aalt' ('DFLT' <'dflt' > 'latn' <'AZE ' 'CAT ' 'CRT ' 'KAZ ' 'MOL ' 'NLD ' 'ROM ' 'TAT ' 'TRK ' 'dflt' > ) ]
Lookup: 3 0 0 "'aalt' Access All Alternates in Latin lookup 1" { "'aalt' Access All Alternates in Latin lookup 1 subtable"  } ['aalt' ('DFLT' <'dflt' > 'latn' <'AZE ' 'CAT ' 'CRT ' 'KAZ ' 'MOL ' 'NLD ' 'ROM ' 'TAT ' 'TRK ' 'dflt' > ) ]
Lookup: 6 0 0 "'ccmp' Glyph Composition/Decomposition in Latin lookup 2" { "'ccmp' Glyph Composition/Decomposition in Latin lookup 2 subtable"  } ['ccmp' ('DFLT' <'dflt' > 'latn' <'AZE ' 'CAT ' 'CRT ' 'KAZ ' 'MOL ' 'NLD ' 'ROM ' 'TAT ' 'TRK ' 'dflt' > ) ]

StartChar: .notdef
Encoding: 65536 -1 0
Width: 1974
Flags: W
LayerCount: 2
Fore
SplineSet
154 700 m 1,0,-1
 154 913 l 1,1,-1
 293 915 l 1,2,3
 289 927 289 927 289 934 c 0,4,5
 289 967 289 967 309 985 c 1,6,7
 307 1020 307 1020 338 1039.5 c 128,-1,8
 369 1059 369 1059 432 1059 c 0,9,10
 535 1059 535 1059 586 1008 c 2,11,-1
 647 946 l 1,12,-1
 653 938 l 1,13,-1
 672 920 l 1,14,-1
 723 920 l 1,15,-1
 723 868 l 1,16,-1
 793 797 l 1,17,-1
 709 643 l 1,18,19
 703 651 703 651 696 661 c 128,-1,20
 689 671 689 671 681 683 c 128,-1,21
 673 695 673 695 668 702 c 1,22,-1
 614 702 l 1,23,-1
 508 266 l 1,24,-1
 709 643 l 1,25,-1
 715 635 l 1,26,-1
 498 229 l 1,27,-1
 451 29 l 1,28,-1
 440 29 l 1,29,-1
 479 195 l 1,30,-1
 391 29 l 1,31,-1
 381 29 l 1,32,-1
 489 229 l 1,33,-1
 604 702 l 1,34,-1
 580 702 l 1,35,-1
 356 29 l 1,36,-1
 346 29 l 1,37,-1
 569 702 l 1,38,-1
 537 702 l 1,39,-1
 260 29 l 1,40,-1
 250 29 l 1,41,-1
 526 702 l 1,42,-1
 494 702 l 1,43,-1
 154 29 l 1,44,-1
 143 29 l 1,45,-1
 483 702 l 1,46,-1
 449 702 l 1,47,-1
 41 29 l 1,48,-1
 31 29 l 1,49,-1
 438 702 l 1,50,-1
 154 700 l 1,0,-1
162 709 m 1,51,-1
 715 711 l 1,52,-1
 715 911 l 1,53,-1
 680 911 l 1,54,-1
 483 909 l 1,55,56
 483 890 483 890 504 872 c 1,57,58
 487 870 487 870 463.5 880.5 c 128,-1,59
 440 891 440 891 436 909 c 1,60,-1
 410 909 l 1,61,62
 413 886 413 886 422 877 c 1,63,64
 400 878 400 878 382.5 887.5 c 128,-1,65
 365 897 365 897 360 909 c 1,66,-1
 340 909 l 1,67,68
 346 889 346 889 367 872 c 1,69,70
 311 878 311 878 295 907 c 1,71,-1
 162 907 l 1,72,-1
 162 709 l 1,51,-1
178 741 m 1,73,-1
 199 741 l 1,74,-1
 199 811 l 1,75,-1
 203 811 l 1,76,-1
 229 741 l 1,77,-1
 248 741 l 1,78,-1
 248 870 l 1,79,-1
 227 870 l 1,80,-1
 227 803 l 1,81,-1
 223 803 l 1,82,-1
 197 870 l 1,83,-1
 178 870 l 1,84,-1
 178 741 l 1,73,-1
258 741 m 1,85,-1
 330 741 l 1,86,-1
 330 870 l 1,87,-1
 258 870 l 1,88,-1
 258 741 l 1,85,-1
279 760 m 1,89,-1
 279 850 l 1,90,-1
 309 850 l 1,91,-1
 309 760 l 1,92,-1
 279 760 l 1,89,-1
338 915 m 1,93,-1
 358 915 l 1,94,95
 358 938 358 938 373 956 c 1,96,-1
 356 956 l 1,97,98
 338 942 338 942 338 920 c 2,99,-1
 338 915 l 1,93,-1
367 741 m 1,100,-1
 434 741 l 1,101,-1
 434 834 l 1,102,-1
 399 834 l 1,103,-1
 399 813 l 1,104,-1
 414 813 l 1,105,-1
 414 760 l 1,106,-1
 387 760 l 1,107,-1
 387 850 l 1,108,-1
 434 850 l 1,109,-1
 434 870 l 1,110,-1
 367 870 l 1,111,-1
 367 741 l 1,100,-1
410 915 m 1,112,-1
 436 915 l 1,113,114
 436 940 436 940 449 956 c 1,115,-1
 428 954 l 1,116,117
 410 939 410 939 410 915 c 1,112,-1
446 741 m 1,118,-1
 504 741 l 1,119,-1
 504 760 l 1,120,-1
 467 760 l 1,121,-1
 467 870 l 1,122,-1
 446 870 l 1,123,-1
 446 741 l 1,118,-1
475 29 m 1,124,-1
 485 29 l 1,125,-1
 819 768 l 1,126,-1
 838 750 l 1,127,-1
 770 573 l 1,128,-1
 743 600 l 1,129,-1
 737 606 l 1,130,-1
 715 635 l 1,131,-1
 799 791 l 1,132,-1
 813 774 l 1,133,-1
 475 29 l 1,124,-1
477 809 m 1,134,-1
 522 809 l 1,135,-1
 522 741 l 1,136,-1
 543 741 l 1,137,-1
 543 870 l 1,138,-1
 522 870 l 1,139,-1
 522 829 l 1,140,-1
 500 829 l 1,141,-1
 500 870 l 1,142,-1
 477 870 l 1,143,-1
 477 809 l 1,134,-1
483 918 m 1,144,-1
 504 918 l 1,145,-1
 494 936 l 1,146,147
 488 932 488 932 483 918 c 1,144,-1
518 1346 m 2,148,-1
 518 1475 l 1,149,-1
 637 1382 l 1,150,151
 742 1436 742 1436 868 1436 c 0,152,153
 958 1436 958 1436 1110 1407 c 1,154,155
 1172 1457 1172 1457 1243 1473 c 1,156,157
 1234 1457 1234 1457 1229.5 1419.5 c 128,-1,158
 1225 1382 1225 1382 1220 1341 c 128,-1,159
 1215 1300 1215 1300 1203 1256 c 128,-1,160
 1191 1212 1191 1212 1158 1170.5 c 128,-1,161
 1125 1129 1125 1129 1073 1102 c 1,162,163
 1064 882 1064 882 1354 721 c 0,164,165
 1610 583 1610 583 1695.5 452.5 c 128,-1,166
 1781 322 1781 322 1722 147 c 1,167,168
 1769 171 1769 171 1802 226.5 c 128,-1,169
 1835 282 1835 282 1835 354 c 0,170,171
 1835 471 1835 471 1779.5 532 c 128,-1,172
 1724 593 1724 593 1616 633 c 0,173,174
 1491 678 1491 678 1430.5 735.5 c 128,-1,175
 1370 793 1370 793 1370 881 c 0,176,177
 1370 962 1370 962 1422.5 1004.5 c 128,-1,178
 1475 1047 1475 1047 1556 1047 c 0,179,180
 1631 1047 1631 1047 1668 1021.5 c 128,-1,181
 1705 996 1705 996 1714 944 c 1,182,183
 1717 902 1717 902 1700 879 c 1,184,-1
 1690 907 l 1,185,186
 1686 897 1686 897 1686 874 c 0,187,188
 1686 827 1686 827 1585 827 c 1,189,190
 1620 888 1620 888 1620 934 c 0,191,192
 1620 949 1620 949 1604.5 960 c 128,-1,193
 1589 971 1589 971 1563 971 c 0,194,195
 1526 971 1526 971 1501.5 947 c 128,-1,196
 1477 923 1477 923 1477 885 c 0,197,198
 1477 804 1477 804 1638 729 c 1,199,200
 1757 678 1757 678 1798 651 c 0,201,202
 1932 565 1932 565 1943 407 c 0,203,204
 1944 393 1944 393 1944 377 c 0,205,206
 1944 220 1944 220 1843 119 c 0,207,208
 1760 36 1760 36 1680 18 c 128,-1,209
 1600 0 1600 0 1413 25 c 1,210,211
 1376 6 1376 6 1376 -27 c 0,212,213
 1376 -46 1376 -46 1399 -66 c 1,214,215
 1371 -68 1371 -68 1348 -52.5 c 128,-1,216
 1325 -37 1325 -37 1325 -16 c 0,217,218
 1325 10 1325 10 1352 33 c 1,219,-1
 1325 33 l 1,220,221
 1323 29 1323 29 1317 20.5 c 128,-1,222
 1311 12 1311 12 1307.5 6.5 c 128,-1,223
 1304 1 1304 1 1301 -6 c 128,-1,224
 1298 -13 1298 -13 1298 -18 c 0,225,226
 1298 -36 1298 -36 1321 -66 c 1,227,228
 1290 -63 1290 -63 1269.5 -47.5 c 128,-1,229
 1249 -32 1249 -32 1249 -10 c 0,230,231
 1249 14 1249 14 1274 35 c 1,232,-1
 1260 37 l 1,233,234
 1233 13 1233 13 1233 -16 c 0,235,236
 1233 -24 1233 -24 1247 -59 c 1,237,238
 1182 -38 1182 -38 1182 4 c 0,239,240
 1182 24 1182 24 1212 61 c 1,241,242
 1206 103 1206 103 1234.5 126.5 c 128,-1,243
 1263 150 1263 150 1303 150 c 0,244,245
 1334 150 1334 150 1466 123 c 1,246,-1
 1460 188 l 2,247,248
 1457 221 1457 221 1441.5 244.5 c 128,-1,249
 1426 268 1426 268 1394.5 285 c 128,-1,250
 1363 302 1363 302 1331.5 314 c 128,-1,251
 1300 326 1300 326 1247.5 345 c 128,-1,252
 1195 364 1195 364 1155 383 c 1,253,-1
 1141 94 l 2,254,255
 1139 60 1139 60 1126.5 45.5 c 128,-1,256
 1114 31 1114 31 1090 37 c 1,257,258
 1049 4 1049 4 1049 -23 c 0,259,260
 1049 -35 1049 -35 1065 -59 c 1,261,262
 999 -51 999 -51 999 -8 c 0,263,264
 999 14 999 14 1022 37 c 1,265,-1
 999 37 l 1,266,267
 973 1 973 1 973 -12 c 0,268,269
 973 -33 973 -33 995 -55 c 1,270,271
 966 -55 966 -55 944 -43.5 c 128,-1,272
 922 -32 922 -32 922 -14 c 0,273,274
 922 5 922 5 938 37 c 1,275,-1
 926 37 l 1,276,277
 903 11 903 11 903 -12 c 0,278,279
 903 -36 903 -36 926 -49 c 1,280,281
 897 -52 897 -52 873.5 -34.5 c 128,-1,282
 850 -17 850 -17 850 6 c 0,283,284
 850 33 850 33 881 68 c 1,285,286
 874 104 874 104 903.5 128.5 c 128,-1,287
 933 153 933 153 973 147 c 2,288,-1
 1014 141 l 1,289,-1
 956 479 l 1,290,291
 915 482 915 482 860 508 c 1,292,-1
 899 686 l 1,293,-1
 928 655 l 1,294,-1
 913 752 l 1,295,-1
 1004 1182 l 1,296,297
 1046 1182 1046 1182 1093 1211.5 c 128,-1,298
 1140 1241 1140 1241 1178 1292 c 1,299,300
 1128 1342 1128 1342 1053 1356 c 1,301,-1
 1004 1182 l 1,302,-1
 1001 1182 l 1,303,-1
 973 1337 l 1,304,305
 926 1309 926 1309 881 1251 c 1,306,307
 890 1213 890 1213 919 1197.5 c 128,-1,308
 948 1182 948 1182 1001 1182 c 1,309,-1
 881 958 l 1,310,-1
 868 1032 l 1,311,312
 788 1057 788 1057 713 1094 c 1,313,-1
 721 1124 l 1,314,-1
 729 1161 l 1,315,316
 765 1163 765 1163 803.5 1188 c 128,-1,317
 842 1213 842 1213 866 1255 c 1,318,319
 830 1314 830 1314 760 1319 c 1,320,-1
 729 1161 l 1,321,-1
 727 1161 l 1,322,-1
 690 1311 l 1,323,324
 673 1300 673 1300 637.5 1280 c 128,-1,325
 602 1260 602 1260 586 1249 c 1,326,327
 598 1161 598 1161 727 1161 c 1,328,-1
 705 1128 l 1,329,-1
 690 1106 l 1,330,331
 518 1197 518 1197 518 1346 c 2,148,-1
557 741 m 1,332,-1
 578 741 l 1,333,-1
 578 809 l 1,334,-1
 621 809 l 1,335,-1
 621 870 l 1,336,-1
 557 870 l 1,337,-1
 557 741 l 1,332,-1
565 29 m 1,338,-1
 575 29 l 1,339,-1
 844 743 l 1,340,-1
 862 723 l 1,341,-1
 809 541 l 1,342,343
 808 542 808 542 795 551.5 c 128,-1,344
 782 561 782 561 776 567 c 2,345,-1
 770 573 l 1,346,-1
 565 29 l 1,338,-1
578 829 m 1,347,-1
 578 850 l 1,348,-1
 600 850 l 1,349,-1
 600 829 l 1,350,-1
 578 829 l 1,347,-1
608 985 m 1,351,-1
 614 979 l 1,352,-1
 702 1120 l 1,353,-1
 694 1104 l 1,354,-1
 690 1106 l 1,355,-1
 608 985 l 1,351,-1
621 973 m 1,356,-1
 629 965 l 1,357,-1
 707 1118 l 1,358,-1
 698 1102 l 1,359,-1
 694 1104 l 1,360,-1
 621 973 l 1,356,-1
635 958 m 1,361,-1
 641 952 l 1,362,-1
 711 1116 l 1,363,-1
 705 1100 l 1,364,-1
 698 1102 l 1,365,-1
 635 958 l 1,361,-1
637 741 m 1,366,-1
 657 741 l 1,367,-1
 657 809 l 1,368,-1
 680 809 l 1,369,-1
 680 741 l 1,370,-1
 698 741 l 1,371,-1
 698 870 l 1,372,-1
 680 870 l 1,373,-1
 680 829 l 1,374,-1
 657 829 l 1,375,-1
 657 870 l 1,376,-1
 637 870 l 1,377,-1
 637 741 l 1,366,-1
647 946 m 1,378,-1
 653 938 l 1,379,-1
 715 1114 l 1,380,-1
 709 1096 l 1,381,-1
 705 1100 l 1,382,-1
 647 946 l 1,378,-1
657 29 m 1,383,-1
 668 29 l 1,384,-1
 870 717 l 1,385,-1
 893 692 l 1,386,-1
 854 512 l 1,387,388
 844 517 844 517 817 535 c 2,389,-1
 809 541 l 1,390,-1
 657 29 l 1,383,-1
659 932 m 1,391,-1
 668 924 l 1,392,-1
 713 1094 l 1,393,-1
 711 1096 l 1,394,-1
 709 1096 l 1,395,-1
 659 932 l 1,391,-1
750 29 m 1,396,-1
 760 29 l 1,397,-1
 860 508 l 1,398,-1
 854 512 l 1,399,-1
 750 29 l 1,396,-1
793 797 m 1,400,-1
 799 791 l 1,401,-1
 958 1092 l 1,402,-1
 885 930 l 1,403,-1
 881 958 l 1,404,-1
 793 797 l 1,400,-1
813 774 m 1,405,-1
 819 768 l 1,406,-1
 961 1077 l 1,407,-1
 891 891 l 1,408,-1
 885 930 l 1,409,-1
 813 774 l 1,405,-1
838 750 m 1,410,-1
 844 743 l 1,411,-1
 963 1063 l 1,412,-1
 897 844 l 1,413,-1
 891 891 l 1,414,-1
 838 750 l 1,410,-1
862 723 m 1,415,-1
 870 717 l 1,416,-1
 973 1067 l 1,417,-1
 909 772 l 1,418,-1
 897 844 l 1,419,-1
 862 723 l 1,415,-1
893 692 m 1,420,-1
 899 686 l 1,421,-1
 913 752 l 1,422,-1
 909 772 l 1,423,-1
 893 692 l 1,420,-1
EndSplineSet
Validated: 37
EndChar

StartChar: exclam
Encoding: 33 33 4
Width: 587
GlyphClass: 2
Flags: W
LayerCount: 2
Fore
SplineSet
264 440 m 0,0,1
 226 652 226 652 185.5 950 c 128,-1,2
 145 1248 145 1248 145 1323 c 128,-1,3
 145 1398 145 1398 184 1446.5 c 128,-1,4
 223 1495 223 1495 295 1495 c 128,-1,5
 367 1495 367 1495 404.5 1447 c 128,-1,6
 442 1399 442 1399 442 1323 c 0,7,8
 442 1248 442 1248 402 949 c 128,-1,9
 362 650 362 650 324 440 c 0,10,11
 321 419 321 419 308 411 c 128,-1,12
 295 403 295 403 281.5 411 c 128,-1,13
 268 419 268 419 264 440 c 0,0,1
137 125 m 128,-1,15
 137 191 137 191 182.5 237 c 128,-1,16
 228 283 228 283 293 283 c 0,17,18
 359 283 359 283 405 237 c 128,-1,19
 451 191 451 191 451 125 c 128,-1,20
 451 59 451 59 405 14 c 128,-1,21
 359 -31 359 -31 293 -31 c 0,22,23
 228 -31 228 -31 182.5 14 c 128,-1,14
 137 59 137 59 137 125 c 128,-1,15
EndSplineSet
Validated: 1
EndChar

StartChar: quotedbl
Encoding: 34 34 5
Width: 772
GlyphClass: 2
Flags: W
LayerCount: 2
Fore
SplineSet
246 956 m 2,0,1
 242 940 242 940 233 934 c 128,-1,2
 224 928 224 928 214.5 934 c 128,-1,3
 205 940 205 940 201 956 c 2,4,-1
 106 1325 l 2,5,6
 88 1391 88 1391 122 1443 c 128,-1,7
 156 1495 156 1495 223 1495 c 0,8,9
 292 1495 292 1495 325 1442.5 c 128,-1,10
 358 1390 358 1390 340 1325 c 2,11,-1
 246 956 l 2,0,1
430 1325 m 2,12,13
 412 1391 412 1391 446 1443 c 128,-1,14
 480 1495 480 1495 547 1495 c 0,15,16
 616 1495 616 1495 649 1442.5 c 128,-1,17
 682 1390 682 1390 664 1325 c 2,18,-1
 569 956 l 2,19,20
 565 940 565 940 555.5 934 c 128,-1,21
 546 928 546 928 537 934 c 128,-1,22
 528 940 528 940 524 956 c 2,23,-1
 430 1325 l 2,12,13
EndSplineSet
Validated: 33
Substitution2: "'tnum' Tabular Numbers in Latin lookup 25 subtable" quotedbl.tf
Substitution2: "'aalt' Access All Alternates in Latin lookup 0 subtable" quotedbl.tf
EndChar

StartChar: numbersign
Encoding: 35 35 6
Width: 1302
GlyphClass: 2
Flags: W
LayerCount: 2
Fore
SplineSet
651 0 m 2,0,1
 636 0 636 0 628.5 10 c 128,-1,2
 621 20 621 20 625 33 c 2,3,-1
 748 487 l 1,4,-1
 446 487 l 1,5,-1
 322 25 l 2,6,7
 316 0 316 0 291 0 c 2,8,-1
 276 0 l 2,9,10
 262 0 262 0 255.5 9.5 c 128,-1,11
 249 19 249 19 252 33 c 2,12,-1
 375 487 l 1,13,-1
 106 487 l 2,14,15
 78 487 78 487 78 518 c 2,16,-1
 78 522 l 2,17,18
 78 551 78 551 106 551 c 2,19,-1
 391 551 l 1,20,-1
 467 838 l 1,21,-1
 190 838 l 2,22,23
 160 838 160 838 160 868 c 2,24,-1
 160 872 l 2,25,26
 160 901 160 901 190 901 c 2,27,-1
 485 901 l 1,28,-1
 602 1337 l 2,29,30
 608 1362 608 1362 635 1362 c 2,31,-1
 649 1362 l 2,32,33
 664 1362 664 1362 671.5 1352.5 c 128,-1,34
 679 1343 679 1343 674 1329 c 2,35,-1
 559 901 l 1,36,-1
 860 901 l 1,37,-1
 979 1337 l 2,38,39
 985 1362 985 1362 1010 1362 c 2,40,-1
 1022 1362 l 2,41,42
 1037 1362 1037 1362 1043.5 1352.5 c 128,-1,43
 1050 1343 1050 1343 1047 1329 c 2,44,-1
 932 901 l 1,45,-1
 1198 901 l 2,46,47
 1227 901 1227 901 1227 872 c 2,48,-1
 1227 868 l 2,49,50
 1227 838 1227 838 1198 838 c 2,51,-1
 915 838 l 1,52,-1
 838 551 l 1,53,-1
 1114 551 l 2,54,55
 1143 551 1143 551 1143 522 c 2,56,-1
 1143 518 l 2,57,58
 1143 487 1143 487 1114 487 c 2,59,-1
 821 487 l 1,60,-1
 696 25 l 2,61,62
 690 0 690 0 666 0 c 2,63,-1
 651 0 l 2,0,1
463 551 m 1,64,-1
 766 551 l 1,65,-1
 844 838 l 1,66,-1
 541 838 l 1,67,-1
 463 551 l 1,64,-1
EndSplineSet
Validated: 1
Substitution2: "'tnum' Tabular Numbers in Latin lookup 25 subtable" numbersign.tf
Substitution2: "'aalt' Access All Alternates in Latin lookup 0 subtable" numbersign.tf
EndChar

StartChar: dollar
Encoding: 36 36 7
Width: 1118
GlyphClass: 2
Flags: W
LayerCount: 2
Fore
SplineSet
516 -82 m 2,0,-1
 520 16 l 1,1,2
 444 21 444 21 374 40.5 c 128,-1,3
 304 60 304 60 244.5 94 c 128,-1,4
 185 128 185 128 149 182.5 c 128,-1,5
 113 237 113 237 113 305 c 0,6,7
 113 369 113 369 145 405.5 c 128,-1,8
 177 442 177 442 238 442 c 0,9,10
 303 442 303 442 326.5 404 c 128,-1,11
 350 366 350 366 350 303 c 0,12,13
 350 213 350 213 388 164.5 c 128,-1,14
 426 116 426 116 522 109 c 1,15,-1
 539 569 l 1,16,-1
 504 586 l 2,17,18
 322 670 322 670 236 766 c 128,-1,19
 150 862 150 862 150 985 c 0,20,21
 150 1128 150 1128 251 1218.5 c 128,-1,22
 352 1309 352 1309 520 1323 c 1,23,-1
 516 1419 l 2,24,25
 515 1462 515 1462 544.5 1480 c 128,-1,26
 574 1498 574 1498 603 1480 c 128,-1,27
 632 1462 632 1462 631 1419 c 2,28,-1
 627 1323 l 1,29,30
 698 1318 698 1318 762 1298 c 128,-1,31
 826 1278 826 1278 879 1244.5 c 128,-1,32
 932 1211 932 1211 963.5 1158.5 c 128,-1,33
 995 1106 995 1106 995 1042 c 0,34,35
 995 981 995 981 966.5 948 c 128,-1,36
 938 915 938 915 883 915 c 0,37,38
 764 915 764 915 764 1063 c 0,39,40
 764 1135 764 1135 734.5 1178.5 c 128,-1,41
 705 1222 705 1222 625 1233 c 1,42,-1
 608 799 l 1,43,44
 818 695 818 695 901.5 606.5 c 128,-1,45
 985 518 985 518 985 387 c 0,46,47
 985 226 985 226 887.5 130 c 128,-1,48
 790 34 790 34 627 16 c 1,49,-1
 631 -82 l 2,50,51
 632 -125 632 -125 603 -143 c 128,-1,52
 574 -161 574 -161 544.5 -143 c 128,-1,53
 515 -125 515 -125 516 -82 c 2,0,-1
344 1057 m 0,54,55
 344 998 344 998 387 947 c 128,-1,56
 430 896 430 896 537 838 c 1,57,-1
 522 1233 l 1,58,59
 431 1222 431 1222 387.5 1174.5 c 128,-1,60
 344 1127 344 1127 344 1057 c 0,54,55
608 532 m 1,61,-1
 625 111 l 1,62,63
 805 132 805 132 805 293 c 0,64,65
 805 363 805 363 761.5 417.5 c 128,-1,66
 718 472 718 472 608 532 c 1,61,-1
EndSplineSet
Validated: 33
Substitution2: "'tnum' Tabular Numbers in Latin lookup 25 subtable" dollar.tf
Substitution2: "'aalt' Access All Alternates in Latin lookup 0 subtable" dollar.tf
EndChar

StartChar: percent
Encoding: 37 37 8
Width: 1755
GlyphClass: 2
Flags: W
LayerCount: 2
Fore
SplineSet
516 23 m 2,0,1
 494 -13 494 -13 457.5 -13.5 c 128,-1,2
 421 -14 421 -14 409 14 c 128,-1,3
 397 42 397 42 420 82 c 1,4,-1
 866 696 l 1,5,-1
 1243 1317 l 2,6,7
 1265 1353 1265 1353 1301.5 1353.5 c 128,-1,8
 1338 1354 1338 1354 1350.5 1326 c 128,-1,9
 1363 1298 1363 1298 1339 1257 c 1,10,-1
 893 639 l 1,11,-1
 516 23 l 2,0,1
86 922 m 128,-1,13
 86 1104 86 1104 188.5 1226 c 128,-1,14
 291 1348 291 1348 442 1348 c 0,15,16
 595 1348 595 1348 698 1226 c 128,-1,17
 801 1104 801 1104 801 922 c 128,-1,18
 801 740 801 740 698 618 c 128,-1,19
 595 496 595 496 442 496 c 0,20,21
 291 496 291 496 188.5 618 c 128,-1,12
 86 740 86 740 86 922 c 128,-1,13
299 815 m 2,22,23
 299 571 299 571 442 571 c 0,24,25
 514 571 514 571 551 634.5 c 128,-1,26
 588 698 588 698 588 815 c 2,27,-1
 588 1028 l 2,28,29
 588 1145 588 1145 551 1208.5 c 128,-1,30
 514 1272 514 1272 442 1272 c 0,31,32
 299 1272 299 1272 299 1028 c 2,33,-1
 299 815 l 2,22,23
958 399 m 128,-1,35
 958 581 958 581 1061 703 c 128,-1,36
 1164 825 1164 825 1315 825 c 0,37,38
 1468 825 1468 825 1570.5 703.5 c 128,-1,39
 1673 582 1673 582 1673 399 c 128,-1,40
 1673 216 1673 216 1570.5 94.5 c 128,-1,41
 1468 -27 1468 -27 1315 -27 c 0,42,43
 1164 -27 1164 -27 1061 95 c 128,-1,34
 958 217 958 217 958 399 c 128,-1,35
1171 293 m 2,44,45
 1171 49 1171 49 1315 49 c 0,46,47
 1387 49 1387 49 1423.5 112 c 128,-1,48
 1460 175 1460 175 1460 293 c 2,49,-1
 1460 506 l 2,50,51
 1460 624 1460 624 1423.5 687 c 128,-1,52
 1387 750 1387 750 1315 750 c 0,53,54
 1171 750 1171 750 1171 506 c 2,55,-1
 1171 293 l 2,44,45
EndSplineSet
Validated: 33
EndChar

StartChar: ampersand
Encoding: 38 38 9
Width: 1392
GlyphClass: 2
Flags: W
LayerCount: 2
Fore
SplineSet
1126 0 m 2,0,1
 1072 0 1072 0 1033.5 26.5 c 128,-1,2
 995 53 995 53 948 125 c 2,3,-1
 901 197 l 1,4,5
 799 83 799 83 700 26 c 128,-1,6
 601 -31 601 -31 471 -31 c 0,7,8
 281 -31 281 -31 179.5 73.5 c 128,-1,9
 78 178 78 178 78 340 c 0,10,11
 78 415 78 415 102 483.5 c 128,-1,12
 126 552 126 552 162.5 603.5 c 128,-1,13
 199 655 199 655 253 703.5 c 128,-1,14
 307 752 307 752 356 784.5 c 128,-1,15
 405 817 405 817 465 850 c 1,16,-1
 430 901 l 2,17,18
 346 1028 346 1028 346 1163 c 0,19,20
 346 1304 346 1304 445 1399.5 c 128,-1,21
 544 1495 544 1495 702 1495 c 0,22,23
 847 1495 847 1495 937.5 1415 c 128,-1,24
 1028 1335 1028 1335 1028 1214 c 0,25,26
 1028 1118 1028 1118 958 1037.5 c 128,-1,27
 888 957 888 957 727 866 c 1,28,-1
 1006 457 l 1,29,30
 1062 540 1062 540 1084 584.5 c 128,-1,31
 1106 629 1106 629 1106 664 c 128,-1,32
 1106 699 1106 699 1077.5 752.5 c 128,-1,33
 1049 806 1049 806 1049 840 c 0,34,35
 1049 886 1049 886 1078.5 914 c 128,-1,36
 1108 942 1108 942 1151 942 c 0,37,38
 1202 942 1202 942 1238 902 c 128,-1,39
 1274 862 1274 862 1274 795 c 0,40,41
 1274 726 1274 726 1225.5 634.5 c 128,-1,42
 1177 543 1177 543 1057 381 c 1,43,-1
 1182 197 l 2,44,45
 1206 162 1206 162 1238 134.5 c 128,-1,46
 1270 107 1270 107 1292.5 94.5 c 128,-1,47
 1315 82 1315 82 1331.5 66.5 c 128,-1,48
 1348 51 1348 51 1348 35 c 0,49,50
 1348 20 1348 20 1338.5 10 c 128,-1,51
 1329 0 1329 0 1311 0 c 2,52,-1
 1126 0 l 2,0,1
313 408 m 0,53,54
 313 282 313 282 386 216 c 128,-1,55
 459 150 459 150 563 150 c 0,56,57
 637 150 637 150 711.5 184.5 c 128,-1,58
 786 219 786 219 846 281 c 1,59,-1
 526 758 l 1,60,61
 436 707 436 707 374.5 613.5 c 128,-1,62
 313 520 313 520 313 408 c 0,53,54
530 1245 m 0,63,64
 530 1158 530 1158 594 1063 c 2,65,-1
 666 956 l 1,66,67
 743 1020 743 1020 778 1081 c 128,-1,68
 813 1142 813 1142 813 1221 c 0,69,70
 813 1303 813 1303 779 1352 c 128,-1,71
 745 1401 745 1401 676 1401 c 0,72,73
 608 1401 608 1401 569 1357.5 c 128,-1,74
 530 1314 530 1314 530 1245 c 0,63,64
EndSplineSet
Validated: 1
EndChar

StartChar: quotesingle
Encoding: 39 39 10
Width: 446
GlyphClass: 2
Flags: W
LayerCount: 2
Fore
SplineSet
246 956 m 2,0,1
 242 940 242 940 233 934 c 128,-1,2
 224 928 224 928 214.5 934 c 128,-1,3
 205 940 205 940 201 956 c 2,4,-1
 106 1325 l 2,5,6
 88 1391 88 1391 122 1443 c 128,-1,7
 156 1495 156 1495 223 1495 c 0,8,9
 292 1495 292 1495 325 1442.5 c 128,-1,10
 358 1390 358 1390 340 1325 c 2,11,-1
 246 956 l 2,0,1
EndSplineSet
Validated: 33
Substitution2: "'tnum' Tabular Numbers in Latin lookup 25 subtable" quotesingle.tf
Substitution2: "'aalt' Access All Alternates in Latin lookup 0 subtable" quotesingle.tf
EndChar

StartChar: parenleft
Encoding: 40 40 11
Width: 692
GlyphClass: 2
Flags: W
LayerCount: 2
Fore
SplineSet
600 -137 m 0,0,1
 497 -85 497 -85 407.5 -5 c 128,-1,2
 318 75 318 75 247.5 179 c 128,-1,3
 177 283 177 283 136.5 416.5 c 128,-1,4
 96 550 96 550 96 694 c 0,5,6
 96 839 96 839 136.5 972.5 c 128,-1,7
 177 1106 177 1106 247.5 1210 c 128,-1,8
 318 1314 318 1314 407.5 1394 c 128,-1,9
 497 1474 497 1474 600 1526 c 0,10,11
 632 1545 632 1545 646 1527.5 c 128,-1,12
 660 1510 660 1510 635 1485 c 0,13,14
 501 1350 501 1350 426.5 1166 c 128,-1,15
 352 982 352 982 352 760 c 2,16,-1
 352 631 l 2,17,18
 352 194 352 194 635 -96 c 0,19,20
 660 -121 660 -121 646 -137.5 c 128,-1,21
 632 -154 632 -154 600 -137 c 0,0,1
EndSplineSet
Validated: 1
EndChar

StartChar: parenright
Encoding: 41 41 12
Width: 692
GlyphClass: 2
Flags: W
LayerCount: 2
Fore
SplineSet
92 -137 m 0,0,1
 60 -154 60 -154 46 -137.5 c 128,-1,2
 32 -121 32 -121 57 -96 c 0,3,4
 340 194 340 194 340 631 c 2,5,-1
 340 760 l 2,6,7
 340 982 340 982 265.5 1166 c 128,-1,8
 191 1350 191 1350 57 1485 c 0,9,10
 32 1510 32 1510 46 1527.5 c 128,-1,11
 60 1545 60 1545 92 1526 c 0,12,13
 195 1474 195 1474 284.5 1394 c 128,-1,14
 374 1314 374 1314 444.5 1210 c 128,-1,15
 515 1106 515 1106 555.5 972.5 c 128,-1,16
 596 839 596 839 596 694 c 0,17,18
 596 550 596 550 555.5 416.5 c 128,-1,19
 515 283 515 283 444.5 179 c 128,-1,20
 374 75 374 75 284.5 -5 c 128,-1,21
 195 -85 195 -85 92 -137 c 0,0,1
EndSplineSet
Validated: 1
EndChar

StartChar: asterisk
Encoding: 42 42 13
Width: 897
GlyphClass: 2
Flags: W
LayerCount: 2
Fore
SplineSet
225 999 m 0,0,1
 193 1021 193 1021 190 1063 c 128,-1,2
 187 1105 187 1105 215 1137 c 0,3,4
 234 1161 234 1161 300.5 1204.5 c 128,-1,5
 367 1248 367 1248 406 1282 c 1,6,7
 352 1290 352 1290 265 1288.5 c 128,-1,8
 178 1287 178 1287 162 1296 c 0,9,10
 123 1309 123 1309 106 1343 c 128,-1,11
 89 1377 89 1377 98 1415 c 0,12,13
 108 1454 108 1454 142.5 1469.5 c 128,-1,14
 177 1485 177 1485 219 1473 c 0,15,16
 248 1464 248 1464 312.5 1414.5 c 128,-1,17
 377 1365 377 1365 420 1341 c 1,18,19
 409 1387 409 1387 382.5 1463.5 c 128,-1,20
 356 1540 356 1540 356 1573 c 0,21,22
 356 1616 356 1616 382 1644.5 c 128,-1,23
 408 1673 408 1673 449 1673 c 0,24,25
 489 1673 489 1673 515 1644.5 c 128,-1,26
 541 1616 541 1616 541 1573 c 0,27,28
 541 1540 541 1540 514 1465 c 128,-1,29
 487 1390 487 1390 477 1341 c 1,30,31
 519 1365 519 1365 583 1414.5 c 128,-1,32
 647 1464 647 1464 678 1473 c 0,33,34
 719 1485 719 1485 754 1469.5 c 128,-1,35
 789 1454 789 1454 799 1415 c 0,36,37
 810 1377 810 1377 791.5 1343 c 128,-1,38
 773 1309 773 1309 733 1296 c 0,39,40
 704 1287 704 1287 632 1288.5 c 128,-1,41
 560 1290 560 1290 492 1282 c 1,42,43
 531 1248 531 1248 596.5 1204.5 c 128,-1,44
 662 1161 662 1161 682 1137 c 0,45,46
 710 1105 710 1105 706.5 1063 c 128,-1,47
 703 1021 703 1021 672 999 c 128,-1,48
 641 977 641 977 601 985.5 c 128,-1,49
 561 994 561 994 535 1026 c 0,50,51
 514 1052 514 1052 491.5 1127.5 c 128,-1,52
 469 1203 469 1203 449 1245 c 1,53,54
 430 1204 430 1204 406.5 1128 c 128,-1,55
 383 1052 383 1052 362 1026 c 0,56,57
 336 993 336 993 296.5 985.5 c 128,-1,58
 257 978 257 978 225 999 c 0,0,1
EndSplineSet
Validated: 33
EndChar

StartChar: plus
Encoding: 43 43 14
Width: 1052
GlyphClass: 2
Flags: W
LayerCount: 2
Fore
SplineSet
469 246 m 2,0,-1
 492 575 l 1,1,-1
 172 551 l 2,2,3
 133 549 133 549 117 579 c 128,-1,4
 101 609 101 609 117 639 c 128,-1,5
 133 669 133 669 172 666 c 2,6,-1
 492 643 l 1,7,-1
 469 971 l 2,8,9
 467 1009 467 1009 496.5 1024.5 c 128,-1,10
 526 1040 526 1040 555.5 1024.5 c 128,-1,11
 585 1009 585 1009 582 971 c 2,12,-1
 561 643 l 1,13,-1
 883 666 l 2,14,15
 921 669 921 669 936.5 639 c 128,-1,16
 952 609 952 609 936.5 579 c 128,-1,17
 921 549 921 549 883 551 c 2,18,-1
 561 575 l 1,19,-1
 582 246 l 2,20,21
 585 207 585 207 555.5 191 c 128,-1,22
 526 175 526 175 496.5 191 c 128,-1,23
 467 207 467 207 469 246 c 2,0,-1
EndSplineSet
Validated: 1
Substitution2: "'tnum' Tabular Numbers in Latin lookup 25 subtable" plus.tf
Substitution2: "'aalt' Access All Alternates in Latin lookup 0 subtable" plus.tf
EndChar

StartChar: comma
Encoding: 44 44 15
Width: 581
GlyphClass: 2
Flags: W
LayerCount: 2
Fore
SplineSet
115 125 m 0,0,1
 115 191 115 191 162 237 c 128,-1,2
 209 283 209 283 281 283 c 0,3,4
 371 283 371 283 418 224.5 c 128,-1,5
 465 166 465 166 465 72 c 0,6,7
 465 0 465 0 436.5 -69.5 c 128,-1,8
 408 -139 408 -139 367 -186 c 128,-1,9
 326 -233 326 -233 280.5 -262 c 128,-1,10
 235 -291 235 -291 199 -291 c 0,11,12
 182 -291 182 -291 171 -281 c 128,-1,13
 160 -271 160 -271 160 -258 c 0,14,15
 160 -239 160 -239 184 -221 c 0,16,17
 258 -157 258 -157 287.5 -117 c 128,-1,18
 317 -77 317 -77 317 -39 c 0,19,20
 317 -14 317 -14 301 -14 c 0,21,22
 298 -14 298 -14 281.5 -17 c 128,-1,23
 265 -20 265 -20 252 -20 c 0,24,25
 197 -20 197 -20 156 21.5 c 128,-1,26
 115 63 115 63 115 125 c 0,0,1
EndSplineSet
Validated: 1
EndChar

StartChar: hyphen
Encoding: 45 45 16
Width: 770
GlyphClass: 2
Flags: W
LayerCount: 2
Fore
SplineSet
156 541 m 2,0,1
 121 541 121 541 121 575 c 2,2,-1
 121 621 l 2,3,4
 121 657 121 657 156 657 c 2,5,-1
 612 657 l 2,6,7
 649 657 649 657 649 621 c 2,8,-1
 649 575 l 2,9,10
 649 541 649 541 612 541 c 2,11,-1
 156 541 l 2,0,1
EndSplineSet
Validated: 1
EndChar

StartChar: period
Encoding: 46 46 17
Width: 542
GlyphClass: 2
Flags: W
LayerCount: 2
Fore
SplineSet
270 -31 m 0,0,1
 205 -31 205 -31 160 14 c 128,-1,2
 115 59 115 59 115 125 c 128,-1,3
 115 191 115 191 160 237 c 128,-1,4
 205 283 205 283 270 283 c 0,5,6
 336 283 336 283 382 237 c 128,-1,7
 428 191 428 191 428 125 c 128,-1,8
 428 59 428 59 382 14 c 128,-1,9
 336 -31 336 -31 270 -31 c 0,0,1
EndSplineSet
Validated: 1
EndChar

StartChar: slash
Encoding: 47 47 18
Width: 862
GlyphClass: 2
Flags: W
LayerCount: 2
Fore
SplineSet
96 -313 m 2,0,1
 56 -313 56 -313 68 -270 c 2,2,-1
 672 1434 l 2,3,4
 681 1464 681 1464 713 1464 c 2,5,-1
 766 1464 l 2,6,7
 807 1464 807 1464 795 1423 c 2,8,-1
 193 -279 l 2,9,10
 182 -313 182 -313 143 -313 c 2,11,-1
 96 -313 l 2,0,1
EndSplineSet
Validated: 1
Substitution2: "'frac' Diagonal Fractions in Latin lookup 19 subtable" fraction
Substitution2: "'aalt' Access All Alternates in Latin lookup 0 subtable" fraction
EndChar

StartChar: zero
Encoding: 48 48 19
Width: 1294
GlyphClass: 2
Flags: W
LayerCount: 2
Fore
SplineSet
649 -25 m 0,0,1
 525 -25 525 -25 422.5 33 c 128,-1,2
 320 91 320 91 254 188.5 c 128,-1,3
 188 286 188 286 152.5 408.5 c 128,-1,4
 117 531 117 531 117 664 c 0,5,6
 117 799 117 799 153 921.5 c 128,-1,7
 189 1044 189 1044 255 1139.5 c 128,-1,8
 321 1235 321 1235 423 1291.5 c 128,-1,9
 525 1348 525 1348 649 1348 c 128,-1,10
 773 1348 773 1348 874.5 1291.5 c 128,-1,11
 976 1235 976 1235 1041.5 1139.5 c 128,-1,12
 1107 1044 1107 1044 1142.5 921.5 c 128,-1,13
 1178 799 1178 799 1178 664 c 0,14,15
 1178 531 1178 531 1142.5 408.5 c 128,-1,16
 1107 286 1107 286 1041.5 188.5 c 128,-1,17
 976 91 976 91 874 33 c 128,-1,18
 772 -25 772 -25 649 -25 c 0,0,1
403 590 m 2,19,20
 403 496 403 496 409.5 421.5 c 128,-1,21
 416 347 416 347 433 279.5 c 128,-1,22
 450 212 450 212 477 167 c 128,-1,23
 504 122 504 122 547.5 96 c 128,-1,24
 591 70 591 70 649 70 c 0,25,26
 719 70 719 70 768 108.5 c 128,-1,27
 817 147 817 147 843.5 220 c 128,-1,28
 870 293 870 293 881.5 382.5 c 128,-1,29
 893 472 893 472 893 590 c 2,30,-1
 893 733 l 2,31,32
 893 851 893 851 881.5 941 c 128,-1,33
 870 1031 870 1031 843.5 1104.5 c 128,-1,34
 817 1178 817 1178 768 1216.5 c 128,-1,35
 719 1255 719 1255 649 1255 c 0,36,37
 591 1255 591 1255 547.5 1228.5 c 128,-1,38
 504 1202 504 1202 477 1157 c 128,-1,39
 450 1112 450 1112 433 1044.5 c 128,-1,40
 416 977 416 977 409.5 902 c 128,-1,41
 403 827 403 827 403 733 c 2,42,-1
 403 590 l 2,19,20
EndSplineSet
Validated: 1
Substitution2: "'salt' Stylistic Alternatives in Latin lookup 33 subtable" zero.salt
Substitution2: "'onum' Oldstyle Figures in Latin lookup 26 subtable" zero.osf
Substitution2: "'tnum' Tabular Numbers in Latin lookup 25 subtable" zero.tf
Substitution2: "'frac' Diagonal Fractions in Latin lookup 20 subtable" zero.numr
Substitution2: "'dnom' Denominators in Latin lookup 18 subtable" zero.dnom
Substitution2: "'numr' Numerators in Latin lookup 17 subtable" zero.numr
Substitution2: "'sups' Superscript in Latin lookup 16 subtable" uni2070
Substitution2: "'sinf' Scientific Inferiors in Latin lookup 15 subtable" uni2080
Substitution2: "'subs' Subscript in Latin lookup 14 subtable" uni2080
AlternateSubs2: "'aalt' Access All Alternates in Latin lookup 1 subtable" uni2080 uni2070 zero.numr zero.dnom zero.tf zero.osf zero.salt
EndChar

StartChar: one
Encoding: 49 49 20
Width: 716
GlyphClass: 2
Flags: W
LayerCount: 2
Fore
SplineSet
201 0 m 2,0,1
 182 0 182 0 170 10 c 128,-1,2
 158 20 158 20 158 33 c 0,3,4
 158 53 158 53 174 68 c 128,-1,5
 190 83 190 83 210 92.5 c 128,-1,6
 230 102 230 102 246 123.5 c 128,-1,7
 262 145 262 145 262 176 c 2,8,-1
 262 1036 l 1,9,-1
 113 1077 l 2,10,11
 86 1085 86 1085 84.5 1107 c 128,-1,12
 83 1129 83 1129 109 1143 c 2,13,-1
 442 1321 l 2,14,15
 465 1332 465 1332 481.5 1323 c 128,-1,16
 498 1314 498 1314 498 1288 c 2,17,-1
 498 176 l 2,18,19
 498 146 498 146 514.5 124.5 c 128,-1,20
 531 103 531 103 551 93.5 c 128,-1,21
 571 84 571 84 587.5 68.5 c 128,-1,22
 604 53 604 53 604 33 c 0,23,24
 604 20 604 20 592.5 10 c 128,-1,25
 581 0 581 0 563 0 c 2,26,-1
 201 0 l 2,0,1
EndSplineSet
Validated: 1
Substitution2: "'salt' Stylistic Alternatives in Latin lookup 33 subtable" one.salt
Substitution2: "'onum' Oldstyle Figures in Latin lookup 26 subtable" one.osf
Substitution2: "'tnum' Tabular Numbers in Latin lookup 25 subtable" one.tf
Substitution2: "'frac' Diagonal Fractions in Latin lookup 20 subtable" one.numr
Substitution2: "'dnom' Denominators in Latin lookup 18 subtable" one.dnom
Substitution2: "'numr' Numerators in Latin lookup 17 subtable" one.numr
Substitution2: "'sups' Superscript in Latin lookup 16 subtable" uni00B9
Substitution2: "'sinf' Scientific Inferiors in Latin lookup 15 subtable" uni2081
Substitution2: "'subs' Subscript in Latin lookup 14 subtable" uni2081
AlternateSubs2: "'aalt' Access All Alternates in Latin lookup 1 subtable" uni2081 uni00B9 one.numr one.dnom one.tf one.osf one.salt
EndChar

StartChar: two
Encoding: 50 50 21
Width: 1110
GlyphClass: 2
Flags: W
LayerCount: 2
Fore
SplineSet
98 0 m 2,0,1
 70 0 70 0 62.5 18 c 128,-1,2
 55 36 55 36 76 59 c 0,3,4
 119 102 119 102 189 170.5 c 128,-1,5
 259 239 259 239 296.5 276 c 128,-1,6
 334 313 334 313 390.5 371 c 128,-1,7
 447 429 447 429 478 464 c 128,-1,8
 509 499 509 499 551 550 c 128,-1,9
 593 601 593 601 615.5 637.5 c 128,-1,10
 638 674 638 674 664.5 722 c 128,-1,11
 691 770 691 770 703.5 811 c 128,-1,12
 716 852 716 852 724.5 900 c 128,-1,13
 733 948 733 948 733 997 c 0,14,15
 733 1120 733 1120 682.5 1186.5 c 128,-1,16
 632 1253 632 1253 535 1253 c 0,17,18
 458 1253 458 1253 414.5 1220.5 c 128,-1,19
 371 1188 371 1188 371 1135 c 0,20,21
 371 1118 371 1118 399.5 1062.5 c 128,-1,22
 428 1007 428 1007 428 977 c 0,23,24
 428 919 428 919 391.5 880.5 c 128,-1,25
 355 842 355 842 289 842 c 0,26,27
 221 842 221 842 181 888 c 128,-1,28
 141 934 141 934 141 1012 c 0,29,30
 141 1152 141 1152 253.5 1249 c 128,-1,31
 366 1346 366 1346 555 1346 c 0,32,33
 745 1346 745 1346 863 1235 c 128,-1,34
 981 1124 981 1124 981 961 c 0,35,36
 981 785 981 785 830.5 609 c 128,-1,37
 680 433 680 433 315 190 c 1,38,-1
 715 188 l 2,39,40
 778 188 778 188 817 252 c 2,41,-1
 897 395 l 2,42,43
 912 424 912 424 930 419.5 c 128,-1,44
 948 415 948 415 948 383 c 2,45,-1
 948 47 l 2,46,47
 948 0 948 0 903 0 c 2,48,-1
 98 0 l 2,0,1
EndSplineSet
Validated: 1
Substitution2: "'salt' Stylistic Alternatives in Latin lookup 33 subtable" two.salt
Substitution2: "'onum' Oldstyle Figures in Latin lookup 26 subtable" two.osf
Substitution2: "'tnum' Tabular Numbers in Latin lookup 25 subtable" two.tf
Substitution2: "'frac' Diagonal Fractions in Latin lookup 20 subtable" two.numr
Substitution2: "'dnom' Denominators in Latin lookup 18 subtable" two.dnom
Substitution2: "'numr' Numerators in Latin lookup 17 subtable" two.numr
Substitution2: "'sups' Superscript in Latin lookup 16 subtable" uni00B2
Substitution2: "'sinf' Scientific Inferiors in Latin lookup 15 subtable" uni2082
Substitution2: "'subs' Subscript in Latin lookup 14 subtable" uni2082
AlternateSubs2: "'aalt' Access All Alternates in Latin lookup 1 subtable" uni2082 uni00B2 two.numr two.dnom two.tf two.osf two.salt
EndChar

StartChar: three
Encoding: 51 51 22
Width: 1085
GlyphClass: 2
Flags: W
LayerCount: 2
Fore
SplineSet
502 -25 m 0,0,1
 327 -25 327 -25 216.5 56 c 128,-1,2
 106 137 106 137 106 254 c 0,3,4
 106 324 106 324 144.5 369 c 128,-1,5
 183 414 183 414 250 414 c 0,6,7
 313 414 313 414 346 372.5 c 128,-1,8
 379 331 379 331 379 256 c 0,9,10
 379 154 379 154 410.5 111 c 128,-1,11
 442 68 442 68 522 68 c 0,12,13
 580 68 580 68 622 88.5 c 128,-1,14
 664 109 664 109 687.5 146 c 128,-1,15
 711 183 711 183 722 227 c 128,-1,16
 733 271 733 271 733 324 c 0,17,18
 733 476 733 476 653 557 c 128,-1,19
 573 638 573 638 403 653 c 0,20,21
 384 655 384 655 376 668 c 128,-1,22
 368 681 368 681 374 695.5 c 128,-1,23
 380 710 380 710 399 715 c 0,24,25
 690 793 690 793 690 1034 c 0,26,27
 690 1253 690 1253 504 1253 c 0,28,29
 442 1253 442 1253 402 1226 c 128,-1,30
 362 1199 362 1199 362 1151 c 0,31,32
 362 1131 362 1131 380.5 1080.5 c 128,-1,33
 399 1030 399 1030 399 1001 c 0,34,35
 399 951 399 951 366 922 c 128,-1,36
 333 893 333 893 276 893 c 0,37,38
 210 893 210 893 173.5 934 c 128,-1,39
 137 975 137 975 137 1040 c 0,40,41
 137 1166 137 1166 249 1256 c 128,-1,42
 361 1346 361 1346 545 1346 c 0,43,44
 710 1346 710 1346 817 1260 c 128,-1,45
 924 1174 924 1174 924 1030 c 0,46,47
 924 805 924 805 623 729 c 1,48,49
 792 709 792 709 880.5 620 c 128,-1,50
 969 531 969 531 969 389 c 0,51,52
 969 213 969 213 844.5 94 c 128,-1,53
 720 -25 720 -25 502 -25 c 0,0,1
EndSplineSet
Validated: 1
Substitution2: "'salt' Stylistic Alternatives in Latin lookup 33 subtable" three.salt
Substitution2: "'onum' Oldstyle Figures in Latin lookup 26 subtable" three.osf
Substitution2: "'tnum' Tabular Numbers in Latin lookup 25 subtable" three.tf
Substitution2: "'frac' Diagonal Fractions in Latin lookup 20 subtable" three.numr
Substitution2: "'dnom' Denominators in Latin lookup 18 subtable" three.dnom
Substitution2: "'numr' Numerators in Latin lookup 17 subtable" three.numr
Substitution2: "'sups' Superscript in Latin lookup 16 subtable" uni00B3
Substitution2: "'sinf' Scientific Inferiors in Latin lookup 15 subtable" uni2083
Substitution2: "'subs' Subscript in Latin lookup 14 subtable" uni2083
AlternateSubs2: "'aalt' Access All Alternates in Latin lookup 1 subtable" uni2083 uni00B3 three.numr three.dnom three.tf three.osf three.salt
EndChar

StartChar: four
Encoding: 52 52 23
Width: 1175
GlyphClass: 2
Flags: W
LayerCount: 2
Fore
SplineSet
592 0 m 2,0,1
 551 0 551 0 551 37 c 0,2,3
 551 56 551 56 567.5 70.5 c 128,-1,4
 584 85 584 85 603 93 c 128,-1,5
 622 101 622 101 638.5 120.5 c 128,-1,6
 655 140 655 140 655 168 c 2,7,-1
 655 379 l 1,8,-1
 94 379 l 2,9,10
 51 379 51 379 51 422 c 2,11,-1
 51 485 l 2,12,13
 51 507 51 507 55 518.5 c 128,-1,14
 59 530 59 530 72 547 c 2,15,-1
 635 1280 l 2,16,17
 664 1319 664 1319 696 1319 c 2,18,-1
 840 1319 l 2,19,20
 887 1319 887 1319 887 1268 c 2,21,-1
 887 524 l 1,22,-1
 1083 524 l 2,23,24
 1098 524 1098 524 1103 513 c 128,-1,25
 1108 502 1108 502 1102 489 c 2,26,-1
 1071 408 l 2,27,28
 1059 379 1059 379 1030 379 c 2,29,-1
 887 379 l 1,30,-1
 887 168 l 2,31,32
 887 140 887 140 903 120.5 c 128,-1,33
 919 101 919 101 938 92 c 128,-1,34
 957 83 957 83 973 68.5 c 128,-1,35
 989 54 989 54 989 35 c 0,36,37
 989 0 989 0 946 0 c 2,38,-1
 592 0 l 2,0,1
207 524 m 1,39,-1
 655 524 l 1,40,-1
 655 1110 l 1,41,-1
 207 524 l 1,39,-1
EndSplineSet
Validated: 1
Substitution2: "'salt' Stylistic Alternatives in Latin lookup 33 subtable" four.salt
Substitution2: "'onum' Oldstyle Figures in Latin lookup 26 subtable" four.osf
Substitution2: "'tnum' Tabular Numbers in Latin lookup 25 subtable" four.tf
Substitution2: "'frac' Diagonal Fractions in Latin lookup 20 subtable" four.numr
Substitution2: "'dnom' Denominators in Latin lookup 18 subtable" four.dnom
Substitution2: "'numr' Numerators in Latin lookup 17 subtable" four.numr
Substitution2: "'sups' Superscript in Latin lookup 16 subtable" uni2074
Substitution2: "'sinf' Scientific Inferiors in Latin lookup 15 subtable" uni2084
Substitution2: "'subs' Subscript in Latin lookup 14 subtable" uni2084
AlternateSubs2: "'aalt' Access All Alternates in Latin lookup 1 subtable" uni2084 uni2074 four.numr four.dnom four.tf four.osf four.salt
EndChar

StartChar: five
Encoding: 53 53 24
Width: 1101
GlyphClass: 2
Flags: W
LayerCount: 2
Fore
SplineSet
514 -25 m 0,0,1
 334 -25 334 -25 215 65 c 128,-1,2
 96 155 96 155 96 276 c 0,3,4
 96 348 96 348 135.5 391 c 128,-1,5
 175 434 175 434 240 434 c 128,-1,6
 305 434 305 434 339 392.5 c 128,-1,7
 373 351 373 351 373 279 c 0,8,9
 373 158 373 158 400 113 c 128,-1,10
 427 68 427 68 514 68 c 0,11,12
 637 68 637 68 694.5 151.5 c 128,-1,13
 752 235 752 235 752 377 c 0,14,15
 752 558 752 558 674.5 641.5 c 128,-1,16
 597 725 597 725 463 725 c 0,17,18
 371 725 371 725 219 686 c 0,19,20
 191 678 191 678 175.5 690.5 c 128,-1,21
 160 703 160 703 164 733 c 0,22,23
 210 1011 210 1011 227 1204 c 0,24,25
 235 1319 235 1319 362 1319 c 2,26,-1
 809 1319 l 2,27,28
 852 1319 852 1319 889 1337.5 c 128,-1,29
 926 1356 926 1356 940 1356 c 0,30,31
 959 1356 959 1356 965.5 1341 c 128,-1,32
 972 1326 972 1326 965 1300 c 2,33,-1
 930 1169 l 2,34,35
 915 1120 915 1120 868 1120 c 2,36,-1
 336 1120 l 1,37,-1
 295 799 l 1,38,39
 455 879 455 879 606 879 c 0,40,41
 680 879 680 879 746 855 c 128,-1,42
 812 831 812 831 864.5 783 c 128,-1,43
 917 735 917 735 948 656 c 128,-1,44
 979 577 979 577 979 475 c 0,45,46
 979 250 979 250 849 112.5 c 128,-1,47
 719 -25 719 -25 514 -25 c 0,0,1
EndSplineSet
Validated: 1
Substitution2: "'salt' Stylistic Alternatives in Latin lookup 33 subtable" five.salt
Substitution2: "'onum' Oldstyle Figures in Latin lookup 26 subtable" five.osf
Substitution2: "'tnum' Tabular Numbers in Latin lookup 25 subtable" five.tf
Substitution2: "'frac' Diagonal Fractions in Latin lookup 20 subtable" five.numr
Substitution2: "'dnom' Denominators in Latin lookup 18 subtable" five.dnom
Substitution2: "'numr' Numerators in Latin lookup 17 subtable" five.numr
Substitution2: "'sups' Superscript in Latin lookup 16 subtable" uni2075
Substitution2: "'sinf' Scientific Inferiors in Latin lookup 15 subtable" uni2085
Substitution2: "'subs' Subscript in Latin lookup 14 subtable" uni2085
AlternateSubs2: "'aalt' Access All Alternates in Latin lookup 1 subtable" uni2085 uni2075 five.numr five.dnom five.tf five.osf five.salt
EndChar

StartChar: six
Encoding: 54 54 25
Width: 1163
GlyphClass: 2
Flags: W
LayerCount: 2
Fore
SplineSet
586 -25 m 0,0,1
 436 -25 436 -25 328.5 57.5 c 128,-1,2
 221 140 221 140 169 279 c 128,-1,3
 117 418 117 418 117 600 c 0,4,5
 117 718 117 718 139.5 827 c 128,-1,6
 162 936 162 936 209 1030.5 c 128,-1,7
 256 1125 256 1125 323.5 1195 c 128,-1,8
 391 1265 391 1265 486 1305.5 c 128,-1,9
 581 1346 581 1346 694 1346 c 0,10,11
 842 1346 842 1346 936 1281 c 128,-1,12
 1030 1216 1030 1216 1030 1098 c 0,13,14
 1030 1025 1030 1025 993 980.5 c 128,-1,15
 956 936 956 936 891 936 c 0,16,17
 834 936 834 936 800 971 c 128,-1,18
 766 1006 766 1006 766 1077 c 0,19,20
 766 1105 766 1105 773 1144 c 128,-1,21
 780 1183 780 1183 780 1196 c 0,22,23
 780 1264 780 1264 680 1264 c 0,24,25
 608 1264 608 1264 552 1222 c 128,-1,26
 496 1180 496 1180 461.5 1106 c 128,-1,27
 427 1032 427 1032 407 947.5 c 128,-1,28
 387 863 387 863 377 760 c 1,29,30
 505 842 505 842 659 842 c 0,31,32
 836 842 836 842 933 747.5 c 128,-1,33
 1030 653 1030 653 1030 463 c 0,34,35
 1030 239 1030 239 907 107 c 128,-1,36
 784 -25 784 -25 586 -25 c 0,0,1
369 573 m 0,37,38
 369 420 369 420 390 310 c 128,-1,39
 411 200 411 200 461 134 c 128,-1,40
 511 68 511 68 588 68 c 0,41,42
 690 68 690 68 737 168 c 128,-1,43
 784 268 784 268 784 440 c 0,44,45
 784 735 784 735 565 735 c 0,46,47
 458 735 458 735 371 662 c 1,48,49
 369 633 369 633 369 573 c 0,37,38
EndSplineSet
Validated: 1
Substitution2: "'salt' Stylistic Alternatives in Latin lookup 33 subtable" six.salt
Substitution2: "'onum' Oldstyle Figures in Latin lookup 26 subtable" six.osf
Substitution2: "'tnum' Tabular Numbers in Latin lookup 25 subtable" six.tf
Substitution2: "'frac' Diagonal Fractions in Latin lookup 20 subtable" six.numr
Substitution2: "'dnom' Denominators in Latin lookup 18 subtable" six.dnom
Substitution2: "'numr' Numerators in Latin lookup 17 subtable" six.numr
Substitution2: "'sups' Superscript in Latin lookup 16 subtable" uni2076
Substitution2: "'sinf' Scientific Inferiors in Latin lookup 15 subtable" uni2086
Substitution2: "'subs' Subscript in Latin lookup 14 subtable" uni2086
AlternateSubs2: "'aalt' Access All Alternates in Latin lookup 1 subtable" uni2086 uni2076 six.numr six.dnom six.tf six.osf six.salt
EndChar

StartChar: seven
Encoding: 55 55 26
Width: 1024
GlyphClass: 2
Flags: W
LayerCount: 2
Fore
SplineSet
221 0 m 2,0,1
 200 0 200 0 193.5 12 c 128,-1,2
 187 24 187 24 197 43 c 2,3,-1
 827 1133 l 1,4,-1
 332 1133 l 2,5,6
 294 1133 294 1133 262 1119.5 c 128,-1,7
 230 1106 230 1106 208.5 1087 c 128,-1,8
 187 1068 187 1068 169.5 1049.5 c 128,-1,9
 152 1031 152 1031 135.5 1017.5 c 128,-1,10
 119 1004 119 1004 104 1004 c 0,11,12
 87 1004 87 1004 76.5 1017.5 c 128,-1,13
 66 1031 66 1031 74 1059 c 2,14,-1
 139 1280 l 2,15,16
 148 1319 148 1319 186 1319 c 2,17,-1
 934 1319 l 2,18,19
 956 1319 956 1319 965.5 1304.5 c 128,-1,20
 975 1290 975 1290 965 1270 c 2,21,-1
 481 33 l 2,22,23
 470 0 470 0 434 0 c 2,24,-1
 221 0 l 2,0,1
EndSplineSet
Validated: 1
Substitution2: "'salt' Stylistic Alternatives in Latin lookup 33 subtable" seven.salt
Substitution2: "'onum' Oldstyle Figures in Latin lookup 26 subtable" seven.osf
Substitution2: "'tnum' Tabular Numbers in Latin lookup 25 subtable" seven.tf
Substitution2: "'frac' Diagonal Fractions in Latin lookup 20 subtable" seven.numr
Substitution2: "'dnom' Denominators in Latin lookup 18 subtable" seven.dnom
Substitution2: "'numr' Numerators in Latin lookup 17 subtable" seven.numr
Substitution2: "'sups' Superscript in Latin lookup 16 subtable" uni2077
Substitution2: "'sinf' Scientific Inferiors in Latin lookup 15 subtable" uni2087
Substitution2: "'subs' Subscript in Latin lookup 14 subtable" uni2087
AlternateSubs2: "'aalt' Access All Alternates in Latin lookup 1 subtable" uni2087 uni2077 seven.numr seven.dnom seven.tf seven.osf seven.salt
EndChar

StartChar: eight
Encoding: 56 56 27
Width: 1159
GlyphClass: 2
Flags: W
LayerCount: 2
Fore
SplineSet
596 -25 m 0,0,1
 372 -25 372 -25 243.5 69.5 c 128,-1,2
 115 164 115 164 115 307 c 0,3,4
 115 421 115 421 193.5 509 c 128,-1,5
 272 597 272 597 412 641 c 1,6,7
 154 783 154 783 154 995 c 0,8,9
 154 1064 154 1064 184 1127 c 128,-1,10
 214 1190 214 1190 268 1239.5 c 128,-1,11
 322 1289 322 1289 405 1318.5 c 128,-1,12
 488 1348 488 1348 586 1348 c 0,13,14
 766 1348 766 1348 886 1254.5 c 128,-1,15
 1006 1161 1006 1161 1004 1028 c 0,16,17
 1004 929 1004 929 931 851.5 c 128,-1,18
 858 774 858 774 745 739 c 1,19,20
 901 658 901 658 970.5 572 c 128,-1,21
 1040 486 1040 486 1040 365 c 0,22,23
 1040 307 1040 307 1025.5 253 c 128,-1,24
 1011 199 1011 199 977 147.5 c 128,-1,25
 943 96 943 96 893.5 58.5 c 128,-1,26
 844 21 844 21 767 -2 c 128,-1,27
 690 -25 690 -25 596 -25 c 0,0,1
346 1069 m 0,28,29
 346 987 346 987 418.5 926 c 128,-1,30
 491 865 491 865 674 774 c 1,31,32
 728 816 728 816 762.5 886.5 c 128,-1,33
 797 957 797 957 797 1030 c 0,34,35
 799 1125 799 1125 737 1190 c 128,-1,36
 675 1255 675 1255 567 1255 c 0,37,38
 468 1255 468 1255 407 1204.5 c 128,-1,39
 346 1154 346 1154 346 1069 c 0,28,29
352 322 m 0,40,41
 352 205 352 205 417 136.5 c 128,-1,42
 482 68 482 68 602 68 c 0,43,44
 720 68 720 68 773.5 124.5 c 128,-1,45
 827 181 827 181 827 266 c 0,46,47
 827 369 827 369 752.5 441.5 c 128,-1,48
 678 514 678 514 481 606 c 1,49,50
 352 497 352 497 352 322 c 0,40,41
EndSplineSet
Validated: 33
Substitution2: "'salt' Stylistic Alternatives in Latin lookup 33 subtable" eight.salt
Substitution2: "'onum' Oldstyle Figures in Latin lookup 26 subtable" eight.osf
Substitution2: "'tnum' Tabular Numbers in Latin lookup 25 subtable" eight.tf
Substitution2: "'frac' Diagonal Fractions in Latin lookup 20 subtable" eight.numr
Substitution2: "'dnom' Denominators in Latin lookup 18 subtable" eight.dnom
Substitution2: "'numr' Numerators in Latin lookup 17 subtable" eight.numr
Substitution2: "'sups' Superscript in Latin lookup 16 subtable" uni2078
Substitution2: "'sinf' Scientific Inferiors in Latin lookup 15 subtable" uni2088
Substitution2: "'subs' Subscript in Latin lookup 14 subtable" uni2088
AlternateSubs2: "'aalt' Access All Alternates in Latin lookup 1 subtable" uni2088 uni2078 eight.numr eight.dnom eight.tf eight.osf eight.salt
EndChar

StartChar: nine
Encoding: 57 57 28
Width: 1161
GlyphClass: 2
Flags: W
LayerCount: 2
Fore
SplineSet
504 -25 m 0,0,1
 350 -25 350 -25 245.5 48 c 128,-1,2
 141 121 141 121 141 236 c 0,3,4
 141 301 141 301 179.5 344 c 128,-1,5
 218 387 218 387 281 387 c 0,6,7
 339 387 339 387 372.5 351.5 c 128,-1,8
 406 316 406 316 406 250 c 0,9,10
 406 151 406 151 427 112.5 c 128,-1,11
 448 74 448 74 514 74 c 0,12,13
 583 73 583 73 633.5 112.5 c 128,-1,14
 684 152 684 152 715 226.5 c 128,-1,15
 746 301 746 301 762.5 390 c 128,-1,16
 779 479 779 479 786 594 c 1,17,18
 670 514 670 514 506 514 c 0,19,20
 330 514 330 514 227.5 614.5 c 128,-1,21
 125 715 125 715 125 883 c 0,22,23
 125 1090 125 1090 255.5 1218 c 128,-1,24
 386 1346 386 1346 588 1346 c 0,25,26
 737 1346 737 1346 840.5 1269.5 c 128,-1,27
 944 1193 944 1193 993 1061.5 c 128,-1,28
 1042 930 1042 930 1042 754 c 0,29,30
 1042 528 1042 528 979.5 353 c 128,-1,31
 917 178 917 178 794 76.5 c 128,-1,32
 671 -25 671 -25 504 -25 c 0,0,1
371 940 m 0,33,34
 371 798 371 798 430.5 721.5 c 128,-1,35
 490 645 490 645 598 645 c 0,36,37
 717 645 717 645 791 694 c 1,38,39
 793 735 793 735 793 821 c 0,40,41
 793 900 793 900 788 960.5 c 128,-1,42
 783 1021 783 1021 769 1078 c 128,-1,43
 755 1135 755 1135 732 1171.5 c 128,-1,44
 709 1208 709 1208 671 1229.5 c 128,-1,45
 633 1251 633 1251 582 1251 c 0,46,47
 481 1251 481 1251 426 1169 c 128,-1,48
 371 1087 371 1087 371 940 c 0,33,34
EndSplineSet
Validated: 33
Substitution2: "'salt' Stylistic Alternatives in Latin lookup 33 subtable" nine.salt
Substitution2: "'onum' Oldstyle Figures in Latin lookup 26 subtable" nine.osf
Substitution2: "'tnum' Tabular Numbers in Latin lookup 25 subtable" nine.tf
Substitution2: "'frac' Diagonal Fractions in Latin lookup 20 subtable" nine.numr
Substitution2: "'dnom' Denominators in Latin lookup 18 subtable" nine.dnom
Substitution2: "'numr' Numerators in Latin lookup 17 subtable" nine.numr
Substitution2: "'sups' Superscript in Latin lookup 16 subtable" uni2079
Substitution2: "'sinf' Scientific Inferiors in Latin lookup 15 subtable" uni2089
Substitution2: "'subs' Subscript in Latin lookup 14 subtable" uni2089
AlternateSubs2: "'aalt' Access All Alternates in Latin lookup 1 subtable" uni2089 uni2079 nine.numr nine.dnom nine.tf nine.osf nine.salt
EndChar

StartChar: colon
Encoding: 58 58 29
Width: 591
GlyphClass: 2
Flags: W
LayerCount: 2
Fore
SplineSet
295 -31 m 0,0,1
 230 -31 230 -31 184.5 14 c 128,-1,2
 139 59 139 59 139 125 c 128,-1,3
 139 191 139 191 184.5 237 c 128,-1,4
 230 283 230 283 295 283 c 0,5,6
 361 283 361 283 407 237 c 128,-1,7
 453 191 453 191 453 125 c 128,-1,8
 453 59 453 59 407 14 c 128,-1,9
 361 -31 361 -31 295 -31 c 0,0,1
139 838 m 128,-1,11
 139 904 139 904 184.5 949.5 c 128,-1,12
 230 995 230 995 295 995 c 0,13,14
 361 995 361 995 407 949.5 c 128,-1,15
 453 904 453 904 453 838 c 128,-1,16
 453 772 453 772 407 727 c 128,-1,17
 361 682 361 682 295 682 c 0,18,19
 230 682 230 682 184.5 727 c 128,-1,10
 139 772 139 772 139 838 c 128,-1,11
EndSplineSet
Validated: 1
EndChar

StartChar: semicolon
Encoding: 59 59 30
Width: 632
GlyphClass: 2
Flags: W
LayerCount: 2
Fore
SplineSet
311 676 m 0,0,1
 246 676 246 676 201 720.5 c 128,-1,2
 156 765 156 765 156 831 c 128,-1,3
 156 897 156 897 201 943 c 128,-1,4
 246 989 246 989 311 989 c 0,5,6
 377 989 377 989 423 943 c 128,-1,7
 469 897 469 897 469 831 c 128,-1,8
 469 765 469 765 423 720.5 c 128,-1,9
 377 676 377 676 311 676 c 0,0,1
137 125 m 0,10,11
 137 191 137 191 184 237 c 128,-1,12
 231 283 231 283 303 283 c 0,13,14
 393 283 393 283 440 224.5 c 128,-1,15
 487 166 487 166 487 72 c 0,16,17
 487 0 487 0 458.5 -69.5 c 128,-1,18
 430 -139 430 -139 389 -186 c 128,-1,19
 348 -233 348 -233 302.5 -262 c 128,-1,20
 257 -291 257 -291 221 -291 c 0,21,22
 204 -291 204 -291 193 -281 c 128,-1,23
 182 -271 182 -271 182 -258 c 0,24,25
 182 -240 182 -240 207 -221 c 0,26,27
 281 -157 281 -157 310.5 -117 c 128,-1,28
 340 -77 340 -77 340 -39 c 0,29,30
 340 -14 340 -14 324 -14 c 0,31,32
 321 -14 321 -14 304 -17 c 128,-1,33
 287 -20 287 -20 274 -20 c 0,34,35
 219 -20 219 -20 178 21.5 c 128,-1,36
 137 63 137 63 137 125 c 0,10,11
EndSplineSet
Validated: 1
EndChar

StartChar: less
Encoding: 60 60 31
Width: 1064
GlyphClass: 2
Flags: W
LayerCount: 2
Fore
SplineSet
147 545 m 2,0,1
 101 567 101 567 101 608.5 c 128,-1,2
 101 650 101 650 147 672 c 2,3,-1
 823 983 l 2,4,5
 877 1007 877 1007 904 973 c 0,6,7
 926 947 926 947 910 917 c 0,8,9
 901 901 901 901 883 893 c 2,10,-1
 195 608 l 1,11,-1
 883 324 l 2,12,13
 918 310 918 310 916 273 c 0,14,15
 914 239 914 239 883 227 c 0,16,17
 858 217 858 217 823 233 c 2,18,-1
 147 545 l 2,0,1
EndSplineSet
Validated: 33
Substitution2: "'tnum' Tabular Numbers in Latin lookup 25 subtable" less.tf
Substitution2: "'aalt' Access All Alternates in Latin lookup 0 subtable" less.tf
EndChar

StartChar: equal
Encoding: 61 61 32
Width: 1165
GlyphClass: 2
Flags: W
LayerCount: 2
Fore
SplineSet
199 688 m 2,0,1
 168 688 168 688 155 711 c 128,-1,2
 142 734 142 734 155 757 c 128,-1,3
 168 780 168 780 199 780 c 2,4,-1
 969 780 l 2,5,6
 999 780 999 780 1011 757 c 128,-1,7
 1023 734 1023 734 1011 711 c 128,-1,8
 999 688 999 688 969 688 c 2,9,-1
 199 688 l 2,0,1
199 422 m 2,10,11
 168 422 168 422 155 445 c 128,-1,12
 142 468 142 468 155 491 c 128,-1,13
 168 514 168 514 199 514 c 2,14,-1
 969 514 l 2,15,16
 999 514 999 514 1011 491 c 128,-1,17
 1023 468 1023 468 1011 445 c 128,-1,18
 999 422 999 422 969 422 c 2,19,-1
 199 422 l 2,10,11
EndSplineSet
Validated: 1
Substitution2: "'tnum' Tabular Numbers in Latin lookup 25 subtable" equal.tf
Substitution2: "'aalt' Access All Alternates in Latin lookup 0 subtable" equal.tf
EndChar

StartChar: greater
Encoding: 62 62 33
Width: 1064
GlyphClass: 2
Flags: W
LayerCount: 2
Fore
SplineSet
918 674 m 2,0,1
 964 652 964 652 964 610.5 c 128,-1,2
 964 569 964 569 918 547 c 2,3,-1
 242 236 l 2,4,5
 188 212 188 212 161 246 c 0,6,7
 139 272 139 272 155 302 c 0,8,9
 163 319 163 319 182 326 c 2,10,-1
 870 610 l 1,11,-1
 182 895 l 2,12,13
 148 908 148 908 149 944 c 0,14,15
 150 979 150 979 181 991 c 0,16,17
 207 1001 207 1001 242 985 c 2,18,-1
 918 674 l 2,0,1
EndSplineSet
Validated: 33
Substitution2: "'tnum' Tabular Numbers in Latin lookup 25 subtable" greater.tf
Substitution2: "'aalt' Access All Alternates in Latin lookup 0 subtable" greater.tf
EndChar

StartChar: question
Encoding: 63 63 34
Width: 995
GlyphClass: 2
Flags: W
LayerCount: 2
Fore
SplineSet
483 406 m 0,0,1
 327 406 327 406 237 478.5 c 128,-1,2
 147 551 147 551 147 676 c 0,3,4
 147 745 147 745 177 802.5 c 128,-1,5
 207 860 207 860 255 899 c 128,-1,6
 303 938 303 938 360.5 972.5 c 128,-1,7
 418 1007 418 1007 476 1038 c 128,-1,8
 534 1069 534 1069 582 1101 c 128,-1,9
 630 1133 630 1133 660 1177.5 c 128,-1,10
 690 1222 690 1222 690 1274 c 0,11,12
 690 1336 690 1336 655 1374.5 c 128,-1,13
 620 1413 620 1413 543 1413 c 0,14,15
 492 1413 492 1413 456.5 1395.5 c 128,-1,16
 421 1378 421 1378 402 1350 c 128,-1,17
 383 1322 383 1322 369.5 1288 c 128,-1,18
 356 1254 356 1254 345 1219.5 c 128,-1,19
 334 1185 334 1185 319 1157 c 128,-1,20
 304 1129 304 1129 276.5 1111.5 c 128,-1,21
 249 1094 249 1094 209 1094 c 0,22,23
 156 1094 156 1094 127 1121.5 c 128,-1,24
 98 1149 98 1149 98 1198 c 0,25,26
 98 1308 98 1308 225 1398.5 c 128,-1,27
 352 1489 352 1489 541 1489 c 0,28,29
 703 1489 703 1489 799 1414.5 c 128,-1,30
 895 1340 895 1340 895 1223 c 0,31,32
 895 1152 895 1152 865 1093.5 c 128,-1,33
 835 1035 835 1035 787 996.5 c 128,-1,34
 739 958 739 958 681.5 924.5 c 128,-1,35
 624 891 624 891 566 861 c 128,-1,36
 508 831 508 831 460 799 c 128,-1,37
 412 767 412 767 382 723 c 128,-1,38
 352 679 352 679 352 625 c 0,39,40
 352 560 352 560 390 521.5 c 128,-1,41
 428 483 428 483 492 483 c 0,42,43
 546 483 546 483 578 512.5 c 128,-1,44
 610 542 610 542 622.5 584 c 128,-1,45
 635 626 635 626 646.5 668.5 c 128,-1,46
 658 711 658 711 684 740.5 c 128,-1,47
 710 770 710 770 756 770 c 0,48,49
 801 770 801 770 825.5 743 c 128,-1,50
 850 716 850 716 850 670 c 0,51,52
 850 565 850 565 747.5 485.5 c 128,-1,53
 645 406 645 406 483 406 c 0,0,1
324 123 m 0,54,55
 324 189 324 189 368.5 235 c 128,-1,56
 413 281 413 281 477 281 c 0,57,58
 542 281 542 281 587.5 235 c 128,-1,59
 633 189 633 189 633 123 c 0,60,61
 633 59 633 59 587.5 14 c 128,-1,62
 542 -31 542 -31 477 -31 c 0,63,64
 413 -31 413 -31 368.5 13.5 c 128,-1,65
 324 58 324 58 324 123 c 0,54,55
EndSplineSet
Validated: 1
EndChar

StartChar: at
Encoding: 64 64 35
Width: 1587
GlyphClass: 2
Flags: W
LayerCount: 2
Fore
SplineSet
760 -174 m 0,0,1
 606 -174 606 -174 480.5 -127 c 128,-1,2
 355 -80 355 -80 273 3.5 c 128,-1,3
 191 87 191 87 146.5 201.5 c 128,-1,4
 102 316 102 316 102 451 c 0,5,6
 102 598 102 598 156.5 730 c 128,-1,7
 211 862 211 862 308.5 961 c 128,-1,8
 406 1060 406 1060 549.5 1118 c 128,-1,9
 693 1176 693 1176 862 1176 c 0,10,11
 1045 1176 1045 1176 1195 1106.5 c 128,-1,12
 1345 1037 1345 1037 1431.5 911.5 c 128,-1,13
 1518 786 1518 786 1518 629 c 0,14,15
 1518 546 1518 546 1491.5 464 c 128,-1,16
 1465 382 1465 382 1416 312.5 c 128,-1,17
 1367 243 1367 243 1286 199.5 c 128,-1,18
 1205 156 1205 156 1106 156 c 0,19,20
 1017 156 1017 156 962.5 190.5 c 128,-1,21
 908 225 908 225 895 276 c 1,22,23
 851 224 851 224 793.5 193 c 128,-1,24
 736 162 736 162 676 162 c 0,25,26
 567 162 567 162 503.5 236 c 128,-1,27
 440 310 440 310 440 430 c 128,-1,28
 440 550 440 550 496 657 c 128,-1,29
 552 764 552 764 646 828.5 c 128,-1,30
 740 893 740 893 844 893 c 0,31,32
 909 893 909 893 950 864 c 128,-1,33
 991 835 991 835 997 788 c 1,34,-1
 1110 831 l 2,35,36
 1125 837 1125 837 1133.5 830 c 128,-1,37
 1142 823 1142 823 1139 805 c 2,38,-1
 1044 336 l 2,39,40
 1035 282 1035 282 1061.5 250.5 c 128,-1,41
 1088 219 1088 219 1141 219 c 0,42,43
 1245 219 1245 219 1328 341.5 c 128,-1,44
 1411 464 1411 464 1411 629 c 0,45,46
 1411 834 1411 834 1261 967 c 128,-1,47
 1111 1100 1111 1100 862 1100 c 0,48,49
 668 1100 668 1100 517 1011.5 c 128,-1,50
 366 923 366 923 286.5 774.5 c 128,-1,51
 207 626 207 626 207 446 c 0,52,53
 207 280 207 280 282 155.5 c 128,-1,54
 357 31 357 31 485 -32.5 c 128,-1,55
 613 -96 613 -96 776 -96 c 0,56,57
 1041 -96 1041 -96 1243 72 c 0,58,59
 1265 90 1265 90 1278 79.5 c 128,-1,60
 1291 69 1291 69 1274 43 c 0,61,62
 1204 -64 1204 -64 1063 -119 c 128,-1,63
 922 -174 922 -174 760 -174 c 0,0,1
610 469 m 0,64,65
 610 382 610 382 651 335.5 c 128,-1,66
 692 289 692 289 758 289 c 0,67,68
 826 289 826 289 889 328 c 1,69,70
 890 376 890 376 923 536 c 128,-1,71
 956 696 956 696 958 723 c 0,72,73
 957 766 957 766 925.5 791.5 c 128,-1,74
 894 817 894 817 846 817 c 0,75,76
 749 817 749 817 679.5 722 c 128,-1,77
 610 627 610 627 610 469 c 0,64,65
EndSplineSet
Validated: 33
EndChar

StartChar: A
Encoding: 65 65 36
Width: 1415
GlyphClass: 2
Flags: W
AnchorPoint: "Anchor-8" 684 1464 basechar 0
AnchorPoint: "Anchor-7" 1358 0 basechar 0
AnchorPoint: "Anchor-6" 705 0 basechar 0
LayerCount: 2
Fore
SplineSet
43 0 m 2,0,1
 24 0 24 0 15 8.5 c 128,-1,2
 6 17 6 17 6 29 c 0,3,4
 6 50 6 50 28.5 68.5 c 128,-1,5
 51 87 51 87 83.5 117 c 128,-1,6
 116 147 116 147 133 190 c 2,7,-1
 555 1249 l 1,8,9
 571 1302 571 1302 567.5 1327.5 c 128,-1,10
 564 1353 564 1353 551.5 1384.5 c 128,-1,11
 539 1416 539 1416 539 1430 c 0,12,13
 539 1464 539 1464 578 1464 c 2,14,-1
 731 1464 l 2,15,16
 763 1464 763 1464 779.5 1454.5 c 128,-1,17
 796 1445 796 1445 805 1423 c 2,18,-1
 1286 197 l 2,19,20
 1300 162 1300 162 1322 134 c 128,-1,21
 1344 106 1344 106 1361.5 92.5 c 128,-1,22
 1379 79 1379 79 1392 63 c 128,-1,23
 1405 47 1405 47 1405 31 c 0,24,25
 1405 0 1405 0 1370 0 c 2,26,-1
 961 0 l 2,27,28
 924 0 924 0 924 29 c 0,29,30
 924 46 924 46 939.5 63 c 128,-1,31
 955 80 955 80 973 92 c 128,-1,32
 991 104 991 104 1006.5 124 c 128,-1,33
 1022 144 1022 144 1022 166 c 0,34,35
 1022 183 1022 183 1008 223 c 2,36,-1
 938 403 l 1,37,-1
 352 403 l 1,38,-1
 283 221 l 2,39,40
 268 184 268 184 268 154 c 0,41,42
 268 130 268 130 282.5 112 c 128,-1,43
 297 94 297 94 315 84.5 c 128,-1,44
 333 75 333 75 347.5 60.5 c 128,-1,45
 362 46 362 46 362 29 c 0,46,47
 362 17 362 17 352.5 8.5 c 128,-1,48
 343 0 343 0 326 0 c 2,49,-1
 43 0 l 2,0,1
393 506 m 1,50,-1
 899 506 l 1,51,-1
 647 1165 l 1,52,-1
 393 506 l 1,50,-1
EndSplineSet
Validated: 1048609
Substitution2: "Single Substitution lookup 38 subtable" ordfeminine
Substitution2: "'c2sc' Capitals to Small Capitals in Latin lookup 27 subtable" a.sc
AlternateSubs2: "'aalt' Access All Alternates in Latin lookup 1 subtable" ordfeminine a.sc
EndChar

StartChar: B
Encoding: 66 66 37
Width: 1394
GlyphClass: 2
Flags: W
AnchorPoint: "Anchor-8" 674 1464 basechar 0
AnchorPoint: "Anchor-6" 674 0 basechar 0
LayerCount: 2
Fore
SplineSet
168 0 m 2,0,1
 150 0 150 0 138.5 10 c 128,-1,2
 127 20 127 20 127 33 c 0,3,4
 127 52 127 52 138 65.5 c 128,-1,5
 149 79 149 79 164.5 88 c 128,-1,6
 180 97 180 97 195.5 106.5 c 128,-1,7
 211 116 211 116 222 133.5 c 128,-1,8
 233 151 233 151 233 176 c 2,9,-1
 233 1288 l 2,10,11
 233 1318 233 1318 216.5 1338.5 c 128,-1,12
 200 1359 200 1359 180 1367.5 c 128,-1,13
 160 1376 160 1376 143.5 1392.5 c 128,-1,14
 127 1409 127 1409 127 1432 c 0,15,16
 127 1445 127 1445 138.5 1454.5 c 128,-1,17
 150 1464 150 1464 168 1464 c 2,18,-1
 586 1464 l 2,19,20
 1217 1464 1217 1464 1217 1112 c 0,21,22
 1217 1007 1217 1007 1131.5 924.5 c 128,-1,23
 1046 842 1046 842 881 791 c 1,24,25
 1099 750 1099 750 1196.5 655.5 c 128,-1,26
 1294 561 1294 561 1294 418 c 0,27,28
 1294 223 1294 223 1136.5 111.5 c 128,-1,29
 979 0 979 0 678 0 c 2,30,-1
 168 0 l 2,0,1
477 180 m 2,31,32
 477 136 477 136 495 118 c 128,-1,33
 513 100 513 100 555 100 c 2,34,-1
 666 100 l 2,35,36
 861 100 861 100 945.5 175 c 128,-1,37
 1030 250 1030 250 1030 403 c 0,38,39
 1030 561 1030 561 933.5 643 c 128,-1,40
 837 725 837 725 618 725 c 2,41,-1
 477 725 l 1,42,-1
 477 180 l 2,31,32
477 827 m 1,43,-1
 610 827 l 2,44,45
 782 827 782 827 870 895 c 128,-1,46
 958 963 958 963 958 1096 c 0,47,48
 958 1158 958 1158 942 1204.5 c 128,-1,49
 926 1251 926 1251 888 1288 c 128,-1,50
 850 1325 850 1325 781 1344.5 c 128,-1,51
 712 1364 712 1364 612 1364 c 2,52,-1
 537 1364 l 2,53,54
 477 1364 477 1364 477 1305 c 2,55,-1
 477 827 l 1,43,-1
EndSplineSet
Validated: 1048577
Substitution2: "'c2sc' Capitals to Small Capitals in Latin lookup 27 subtable" b.sc
Substitution2: "'aalt' Access All Alternates in Latin lookup 0 subtable" b.sc
EndChar

StartChar: C
Encoding: 67 67 38
Width: 1443
GlyphClass: 2
Flags: W
AnchorPoint: "Anchor-8" 813 1464 basechar 0
AnchorPoint: "Anchor-6" 823 0 basechar 0
LayerCount: 2
Fore
SplineSet
821 -31 m 0,0,1
 609 -31 609 -31 446 67.5 c 128,-1,2
 283 166 283 166 196 339.5 c 128,-1,3
 109 513 109 513 109 735 c 0,4,5
 109 958 109 958 199 1131 c 128,-1,6
 289 1304 289 1304 450.5 1399.5 c 128,-1,7
 612 1495 612 1495 819 1495 c 0,8,9
 966 1495 966 1495 1087 1447.5 c 128,-1,10
 1208 1400 1208 1400 1278 1316.5 c 128,-1,11
 1348 1233 1348 1233 1348 1130 c 0,12,13
 1348 1055 1348 1055 1307 1006.5 c 128,-1,14
 1266 958 1266 958 1196 958 c 128,-1,15
 1126 958 1126 958 1084 1003.5 c 128,-1,16
 1042 1049 1042 1049 1042 1126 c 0,17,18
 1042 1143 1042 1143 1045.5 1176 c 128,-1,19
 1049 1209 1049 1209 1049 1223 c 0,20,21
 1049 1299 1049 1299 988.5 1345 c 128,-1,22
 928 1391 928 1391 813 1391 c 0,23,24
 606 1391 606 1391 476 1239 c 128,-1,25
 346 1087 346 1087 346 821 c 0,26,27
 346 538 346 538 489.5 363 c 128,-1,28
 633 188 633 188 877 188 c 0,29,30
 949 188 949 188 1015.5 204.5 c 128,-1,31
 1082 221 1082 221 1127.5 244 c 128,-1,32
 1173 267 1173 267 1210 290 c 128,-1,33
 1247 313 1247 313 1275.5 329.5 c 128,-1,34
 1304 346 1304 346 1321 346 c 0,35,36
 1352 346 1352 346 1352 309 c 0,37,38
 1352 270 1352 270 1322 218.5 c 128,-1,39
 1292 167 1292 167 1247 121 c 0,40,41
 1088 -31 1088 -31 821 -31 c 0,0,1
EndSplineSet
Validated: 1048577
Substitution2: "'c2sc' Capitals to Small Capitals in Latin lookup 27 subtable" c.sc
Substitution2: "'aalt' Access All Alternates in Latin lookup 0 subtable" c.sc
EndChar

StartChar: D
Encoding: 68 68 39
Width: 1538
GlyphClass: 2
Flags: W
AnchorPoint: "Anchor-9" 354 731 basechar 0
AnchorPoint: "Anchor-8" 721 1464 basechar 0
AnchorPoint: "Anchor-6" 748 0 basechar 0
LayerCount: 2
Fore
SplineSet
168 0 m 2,0,1
 150 0 150 0 138.5 10 c 128,-1,2
 127 20 127 20 127 33 c 0,3,4
 127 53 127 53 143.5 68 c 128,-1,5
 160 83 160 83 180 92.5 c 128,-1,6
 200 102 200 102 216.5 123.5 c 128,-1,7
 233 145 233 145 233 176 c 2,8,-1
 233 1288 l 2,9,10
 233 1318 233 1318 216.5 1338.5 c 128,-1,11
 200 1359 200 1359 180 1367.5 c 128,-1,12
 160 1376 160 1376 143.5 1392.5 c 128,-1,13
 127 1409 127 1409 127 1432 c 0,14,15
 127 1445 127 1445 138.5 1454.5 c 128,-1,16
 150 1464 150 1464 168 1464 c 2,17,-1
 641 1464 l 2,18,19
 1015 1464 1015 1464 1222.5 1271.5 c 128,-1,20
 1430 1079 1430 1079 1430 735 c 0,21,22
 1430 387 1430 387 1222.5 193.5 c 128,-1,23
 1015 0 1015 0 645 0 c 2,24,-1
 168 0 l 2,0,1
477 158 m 2,25,26
 477 100 477 100 537 100 c 2,27,-1
 602 100 l 2,28,29
 877 100 877 100 1015 254 c 128,-1,30
 1153 408 1153 408 1153 731 c 0,31,32
 1153 1033 1153 1033 1012 1198.5 c 128,-1,33
 871 1364 871 1364 596 1364 c 2,34,-1
 537 1364 l 2,35,36
 477 1364 477 1364 477 1305 c 2,37,-1
 477 158 l 2,25,26
EndSplineSet
Validated: 1048577
Substitution2: "'c2sc' Capitals to Small Capitals in Latin lookup 27 subtable" d.sc
Substitution2: "'aalt' Access All Alternates in Latin lookup 0 subtable" d.sc
EndChar

StartChar: E
Encoding: 69 69 40
Width: 1374
GlyphClass: 2
Flags: W
AnchorPoint: "Anchor-8" 750 1464 basechar 0
AnchorPoint: "Anchor-7" 1135 0 basechar 0
AnchorPoint: "Anchor-6" 664 0 basechar 0
LayerCount: 2
Fore
SplineSet
168 0 m 2,0,1
 150 0 150 0 138.5 10 c 128,-1,2
 127 20 127 20 127 33 c 0,3,4
 127 54 127 54 143.5 69 c 128,-1,5
 160 84 160 84 180 93.5 c 128,-1,6
 200 103 200 103 216.5 124 c 128,-1,7
 233 145 233 145 233 176 c 2,8,-1
 233 1288 l 2,9,10
 233 1319 233 1319 216.5 1339.5 c 128,-1,11
 200 1360 200 1360 180 1369 c 128,-1,12
 160 1378 160 1378 143.5 1394 c 128,-1,13
 127 1410 127 1410 127 1432 c 0,14,15
 127 1445 127 1445 138.5 1454.5 c 128,-1,16
 150 1464 150 1464 168 1464 c 2,17,-1
 1139 1464 l 2,18,19
 1193 1464 1193 1464 1218 1441 c 128,-1,20
 1243 1418 1243 1418 1243 1366 c 2,21,-1
 1243 1098 l 2,22,23
 1243 1060 1243 1060 1214 1053 c 128,-1,24
 1185 1046 1185 1046 1165 1077 c 2,25,-1
 1042 1272 l 2,26,27
 1012 1320 1012 1320 973.5 1340 c 128,-1,28
 935 1360 935 1360 877 1360 c 2,29,-1
 537 1360 l 2,30,31
 477 1360 477 1360 477 1300 c 2,32,-1
 477 834 l 1,33,-1
 723 834 l 2,34,35
 803 834 803 834 840 901 c 1,36,-1
 920 1026 l 2,37,38
 942 1063 942 1063 967.5 1056 c 128,-1,39
 993 1049 993 1049 993 1006 c 2,40,-1
 993 557 l 2,41,42
 993 514 993 514 967.5 507.5 c 128,-1,43
 942 501 942 501 920 539 c 2,44,-1
 840 664 l 1,45,46
 804 729 804 729 723 729 c 2,47,-1
 477 729 l 1,48,-1
 477 182 l 2,49,50
 477 140 477 140 495 122 c 128,-1,51
 513 104 513 104 555 104 c 2,52,-1
 870 104 l 2,53,54
 933 104 933 104 972 123.5 c 128,-1,55
 1011 143 1011 143 1044 195 c 2,56,-1
 1163 389 l 2,57,58
 1176 411 1176 411 1194.5 417 c 128,-1,59
 1213 423 1213 423 1227 410.5 c 128,-1,60
 1241 398 1241 398 1241 373 c 2,61,-1
 1241 102 l 2,62,63
 1241 0 1241 0 1135 0 c 2,64,-1
 168 0 l 2,0,1
EndSplineSet
Validated: 1048577
Substitution2: "'c2sc' Capitals to Small Capitals in Latin lookup 27 subtable" e.sc
Substitution2: "'aalt' Access All Alternates in Latin lookup 0 subtable" e.sc
EndChar

StartChar: F
Encoding: 70 70 41
Width: 1292
GlyphClass: 2
Flags: W
AnchorPoint: "Anchor-8" 680 1464 basechar 0
AnchorPoint: "Anchor-6" 614 0 basechar 0
LayerCount: 2
Fore
SplineSet
168 0 m 2,0,1
 150 0 150 0 138.5 10 c 128,-1,2
 127 20 127 20 127 33 c 0,3,4
 127 52 127 52 138 65.5 c 128,-1,5
 149 79 149 79 164.5 88 c 128,-1,6
 180 97 180 97 195.5 106.5 c 128,-1,7
 211 116 211 116 222 133.5 c 128,-1,8
 233 151 233 151 233 176 c 2,9,-1
 233 1288 l 2,10,11
 233 1318 233 1318 216.5 1338.5 c 128,-1,12
 200 1359 200 1359 180 1367.5 c 128,-1,13
 160 1376 160 1376 143.5 1392.5 c 128,-1,14
 127 1409 127 1409 127 1432 c 0,15,16
 127 1445 127 1445 138.5 1454.5 c 128,-1,17
 150 1464 150 1464 168 1464 c 2,18,-1
 1124 1464 l 2,19,20
 1179 1464 1179 1464 1204 1441 c 128,-1,21
 1229 1418 1229 1418 1229 1366 c 2,22,-1
 1229 1098 l 2,23,24
 1229 1060 1229 1060 1200.5 1053 c 128,-1,25
 1172 1046 1172 1046 1153 1077 c 2,26,-1
 1028 1272 l 2,27,28
 998 1320 998 1320 959 1340 c 128,-1,29
 920 1360 920 1360 862 1360 c 2,30,-1
 537 1360 l 2,31,32
 477 1360 477 1360 477 1300 c 2,33,-1
 477 834 l 1,34,-1
 719 834 l 2,35,36
 796 834 796 834 836 901 c 2,37,-1
 915 1028 l 2,38,39
 935 1063 935 1063 962 1056 c 128,-1,40
 989 1049 989 1049 989 1008 c 2,41,-1
 989 559 l 2,42,43
 989 515 989 515 963 508 c 128,-1,44
 937 501 937 501 915 539 c 2,45,-1
 836 664 l 2,46,47
 799 729 799 729 719 729 c 2,48,-1
 477 729 l 1,49,-1
 477 176 l 2,50,51
 477 144 477 144 493.5 122.5 c 128,-1,52
 510 101 510 101 529.5 92 c 128,-1,53
 549 83 549 83 565.5 68.5 c 128,-1,54
 582 54 582 54 582 33 c 0,55,56
 582 20 582 20 571 10 c 128,-1,57
 560 0 560 0 541 0 c 2,58,-1
 168 0 l 2,0,1
EndSplineSet
Validated: 1048577
Substitution2: "'c2sc' Capitals to Small Capitals in Latin lookup 27 subtable" f.sc
Substitution2: "'aalt' Access All Alternates in Latin lookup 0 subtable" f.sc
EndChar

StartChar: G
Encoding: 71 71 42
Width: 1527
GlyphClass: 2
Flags: W
AnchorPoint: "Anchor-8" 836 1464 basechar 0
AnchorPoint: "Anchor-6" 782 0 basechar 0
LayerCount: 2
Fore
SplineSet
770 -31 m 0,0,1
 572 -31 572 -31 420 64 c 128,-1,2
 268 159 268 159 187 323.5 c 128,-1,3
 106 488 106 488 106 694 c 0,4,5
 106 860 106 860 161 1007 c 128,-1,6
 216 1154 216 1154 312.5 1262 c 128,-1,7
 409 1370 409 1370 549.5 1432.5 c 128,-1,8
 690 1495 690 1495 852 1495 c 0,9,10
 1073 1495 1073 1495 1225.5 1390 c 128,-1,11
 1378 1285 1378 1285 1378 1128 c 0,12,13
 1378 1053 1378 1053 1339 1004.5 c 128,-1,14
 1300 956 1300 956 1229 956 c 0,15,16
 1159 956 1159 956 1116 1003.5 c 128,-1,17
 1073 1051 1073 1051 1073 1133 c 0,18,19
 1073 1148 1073 1148 1075 1179 c 128,-1,20
 1077 1210 1077 1210 1077 1223 c 0,21,22
 1077 1301 1077 1301 1018 1348 c 128,-1,23
 959 1395 959 1395 844 1395 c 0,24,25
 629 1395 629 1395 493.5 1230.5 c 128,-1,26
 358 1066 358 1066 358 793 c 0,27,28
 358 510 358 510 502.5 341 c 128,-1,29
 647 172 647 172 903 172 c 0,30,31
 1063 172 1063 172 1171 225 c 1,32,-1
 1171 487 l 2,33,34
 1171 521 1171 521 1148 545.5 c 128,-1,35
 1125 570 1125 570 1091.5 584 c 128,-1,36
 1058 598 1058 598 1025 611 c 128,-1,37
 992 624 992 624 969 643.5 c 128,-1,38
 946 663 946 663 946 690 c 0,39,40
 946 737 946 737 1006 737 c 2,41,-1
 1323 737 l 2,42,43
 1386 737 1386 737 1386 682 c 2,44,-1
 1386 14 l 2,45,46
 1386 -21 1386 -21 1360 -28.5 c 128,-1,47
 1334 -36 1334 -36 1303 -2 c 2,48,-1
 1227 84 l 2,49,50
 1194 120 1194 120 1137 82 c 0,51,52
 979 -31 979 -31 770 -31 c 0,0,1
EndSplineSet
Validated: 1048609
Substitution2: "'c2sc' Capitals to Small Capitals in Latin lookup 27 subtable" g.sc
Substitution2: "'aalt' Access All Alternates in Latin lookup 0 subtable" g.sc
EndChar

StartChar: H
Encoding: 72 72 43
Width: 1630
GlyphClass: 2
Flags: W
AnchorPoint: "Anchor-9" 817 1006 basechar 0
AnchorPoint: "Anchor-8" 817 1464 basechar 0
AnchorPoint: "Anchor-6" 817 0 basechar 0
LayerCount: 2
Fore
SplineSet
1092 0 m 2,0,1
 1072 0 1072 0 1060.5 10 c 128,-1,2
 1049 20 1049 20 1049 33 c 0,3,4
 1049 56 1049 56 1065.5 72 c 128,-1,5
 1082 88 1082 88 1101 96.5 c 128,-1,6
 1120 105 1120 105 1136.5 125.5 c 128,-1,7
 1153 146 1153 146 1153 176 c 2,8,-1
 1153 694 l 1,9,-1
 477 694 l 1,10,-1
 477 176 l 2,11,12
 477 144 477 144 493.5 122.5 c 128,-1,13
 510 101 510 101 529.5 92 c 128,-1,14
 549 83 549 83 565.5 68.5 c 128,-1,15
 582 54 582 54 582 33 c 0,16,17
 582 20 582 20 571 10 c 128,-1,18
 560 0 560 0 541 0 c 2,19,-1
 168 0 l 2,20,21
 150 0 150 0 138.5 10 c 128,-1,22
 127 20 127 20 127 33 c 0,23,24
 127 53 127 53 143.5 68 c 128,-1,25
 160 83 160 83 180 92.5 c 128,-1,26
 200 102 200 102 216.5 123.5 c 128,-1,27
 233 145 233 145 233 176 c 2,28,-1
 233 1288 l 2,29,30
 233 1318 233 1318 216.5 1338.5 c 128,-1,31
 200 1359 200 1359 180 1367.5 c 128,-1,32
 160 1376 160 1376 143.5 1392.5 c 128,-1,33
 127 1409 127 1409 127 1432 c 0,34,35
 127 1445 127 1445 138.5 1454.5 c 128,-1,36
 150 1464 150 1464 168 1464 c 2,37,-1
 541 1464 l 2,38,39
 560 1464 560 1464 571 1454.5 c 128,-1,40
 582 1445 582 1445 582 1432 c 0,41,42
 582 1412 582 1412 565.5 1396.5 c 128,-1,43
 549 1381 549 1381 529.5 1371.5 c 128,-1,44
 510 1362 510 1362 493.5 1340.5 c 128,-1,45
 477 1319 477 1319 477 1288 c 2,46,-1
 477 799 l 1,47,-1
 1153 799 l 1,48,-1
 1153 1288 l 2,49,50
 1153 1318 1153 1318 1136.5 1338.5 c 128,-1,51
 1120 1359 1120 1359 1101 1367.5 c 128,-1,52
 1082 1376 1082 1376 1065.5 1392.5 c 128,-1,53
 1049 1409 1049 1409 1049 1432 c 0,54,55
 1049 1445 1049 1445 1060.5 1454.5 c 128,-1,56
 1072 1464 1072 1464 1092 1464 c 2,57,-1
 1460 1464 l 2,58,59
 1479 1464 1479 1464 1490 1454.5 c 128,-1,60
 1501 1445 1501 1445 1501 1432 c 0,61,62
 1501 1411 1501 1411 1484.5 1395.5 c 128,-1,63
 1468 1380 1468 1380 1449 1371 c 128,-1,64
 1430 1362 1430 1362 1413.5 1340.5 c 128,-1,65
 1397 1319 1397 1319 1397 1288 c 2,66,-1
 1397 176 l 2,67,68
 1397 144 1397 144 1413.5 122.5 c 128,-1,69
 1430 101 1430 101 1449 92 c 128,-1,70
 1468 83 1468 83 1484.5 68.5 c 128,-1,71
 1501 54 1501 54 1501 33 c 0,72,73
 1501 20 1501 20 1490 10 c 128,-1,74
 1479 0 1479 0 1460 0 c 2,75,-1
 1092 0 l 2,0,1
EndSplineSet
Validated: 1048577
Substitution2: "'c2sc' Capitals to Small Capitals in Latin lookup 27 subtable" h.sc
Substitution2: "'aalt' Access All Alternates in Latin lookup 0 subtable" h.sc
EndChar

StartChar: I
Encoding: 73 73 44
Width: 708
GlyphClass: 2
Flags: W
AnchorPoint: "Anchor-8" 354 1464 basechar 0
AnchorPoint: "Anchor-7" 541 0 basechar 0
AnchorPoint: "Anchor-6" 354 0 basechar 0
LayerCount: 2
Fore
SplineSet
168 0 m 2,0,1
 150 0 150 0 138.5 10 c 128,-1,2
 127 20 127 20 127 33 c 0,3,4
 127 53 127 53 143.5 68 c 128,-1,5
 160 83 160 83 180 92.5 c 128,-1,6
 200 102 200 102 216.5 123.5 c 128,-1,7
 233 145 233 145 233 176 c 2,8,-1
 233 1288 l 2,9,10
 233 1319 233 1319 216.5 1339.5 c 128,-1,11
 200 1360 200 1360 180 1369 c 128,-1,12
 160 1378 160 1378 143.5 1394 c 128,-1,13
 127 1410 127 1410 127 1432 c 0,14,15
 127 1445 127 1445 138.5 1454.5 c 128,-1,16
 150 1464 150 1464 168 1464 c 2,17,-1
 541 1464 l 2,18,19
 560 1464 560 1464 571 1454.5 c 128,-1,20
 582 1445 582 1445 582 1432 c 0,21,22
 582 1408 582 1408 565.5 1391 c 128,-1,23
 549 1374 549 1374 529.5 1366 c 128,-1,24
 510 1358 510 1358 493.5 1338 c 128,-1,25
 477 1318 477 1318 477 1288 c 2,26,-1
 477 176 l 2,27,28
 477 144 477 144 493.5 123 c 128,-1,29
 510 102 510 102 529.5 93 c 128,-1,30
 549 84 549 84 565.5 69 c 128,-1,31
 582 54 582 54 582 33 c 0,32,33
 582 20 582 20 571 10 c 128,-1,34
 560 0 560 0 541 0 c 2,35,-1
 168 0 l 2,0,1
EndSplineSet
Validated: 1048577
Substitution2: "'c2sc' Capitals to Small Capitals in Latin lookup 27 subtable" i.sc
Substitution2: "'aalt' Access All Alternates in Latin lookup 0 subtable" i.sc
EndChar

StartChar: J
Encoding: 74 74 45
Width: 1007
GlyphClass: 2
Flags: W
AnchorPoint: "Anchor-8" 684 1464 basechar 0
AnchorPoint: "Anchor-6" 541 0 basechar 0
LayerCount: 2
Fore
SplineSet
391 -31 m 0,0,1
 226 -31 226 -31 131.5 39.5 c 128,-1,2
 37 110 37 110 37 215 c 0,3,4
 37 280 37 280 75.5 321 c 128,-1,5
 114 362 114 362 180 362 c 0,6,7
 304 362 304 362 324 205 c 0,8,9
 331 141 331 141 356 105.5 c 128,-1,10
 381 70 381 70 438 70 c 0,11,12
 561 70 561 70 561 274 c 2,13,-1
 561 1288 l 2,14,15
 561 1319 561 1319 544.5 1339.5 c 128,-1,16
 528 1360 528 1360 508 1369 c 128,-1,17
 488 1378 488 1378 471.5 1394 c 128,-1,18
 455 1410 455 1410 455 1432 c 0,19,20
 455 1445 455 1445 466.5 1454.5 c 128,-1,21
 478 1464 478 1464 496 1464 c 2,22,-1
 868 1464 l 2,23,24
 887 1464 887 1464 898 1454.5 c 128,-1,25
 909 1445 909 1445 909 1432 c 0,26,27
 909 1412 909 1412 892.5 1396.5 c 128,-1,28
 876 1381 876 1381 857 1371.5 c 128,-1,29
 838 1362 838 1362 821.5 1340.5 c 128,-1,30
 805 1319 805 1319 805 1288 c 2,31,-1
 805 375 l 2,32,33
 805 183 805 183 697.5 76 c 128,-1,34
 590 -31 590 -31 391 -31 c 0,0,1
EndSplineSet
Validated: 1048577
Substitution2: "Single Substitution lookup 36 subtable" uni004A0301
Substitution2: "'c2sc' Capitals to Small Capitals in Latin lookup 27 subtable" j.sc
AlternateSubs2: "'aalt' Access All Alternates in Latin lookup 1 subtable" uni004A0301 j.sc
EndChar

StartChar: K
Encoding: 75 75 46
Width: 1409
GlyphClass: 2
Flags: W
AnchorPoint: "Anchor-8" 698 1464 basechar 0
AnchorPoint: "Anchor-6" 698 0 basechar 0
LayerCount: 2
Fore
SplineSet
973 0 m 2,0,1
 949 0 949 0 936.5 10.5 c 128,-1,2
 924 21 924 21 924 37 c 0,3,4
 924 59 924 59 948.5 83.5 c 128,-1,5
 973 108 973 108 973 121 c 0,6,7
 973 137 973 137 954 156 c 2,8,-1
 477 725 l 1,9,-1
 477 176 l 2,10,11
 477 146 477 146 493.5 125.5 c 128,-1,12
 510 105 510 105 529.5 96.5 c 128,-1,13
 549 88 549 88 565.5 72 c 128,-1,14
 582 56 582 56 582 33 c 0,15,16
 582 20 582 20 571 10 c 128,-1,17
 560 0 560 0 541 0 c 2,18,-1
 168 0 l 2,19,20
 150 0 150 0 138.5 10 c 128,-1,21
 127 20 127 20 127 33 c 0,22,23
 127 54 127 54 143.5 69 c 128,-1,24
 160 84 160 84 180 93.5 c 128,-1,25
 200 103 200 103 216.5 124 c 128,-1,26
 233 145 233 145 233 176 c 2,27,-1
 233 1288 l 2,28,29
 233 1318 233 1318 216.5 1338.5 c 128,-1,30
 200 1359 200 1359 180 1367.5 c 128,-1,31
 160 1376 160 1376 143.5 1392.5 c 128,-1,32
 127 1409 127 1409 127 1432 c 0,33,34
 127 1445 127 1445 138.5 1454.5 c 128,-1,35
 150 1464 150 1464 168 1464 c 2,36,-1
 541 1464 l 2,37,38
 560 1464 560 1464 571 1454.5 c 128,-1,39
 582 1445 582 1445 582 1432 c 0,40,41
 582 1412 582 1412 565.5 1396.5 c 128,-1,42
 549 1381 549 1381 529.5 1371.5 c 128,-1,43
 510 1362 510 1362 493.5 1340.5 c 128,-1,44
 477 1319 477 1319 477 1288 c 2,45,-1
 477 786 l 1,46,-1
 954 1237 l 2,47,48
 979 1259 979 1259 979 1290 c 0,49,50
 979 1313 979 1313 965.5 1361 c 128,-1,51
 952 1409 952 1409 952 1423 c 0,52,53
 952 1464 952 1464 1004 1464 c 2,54,-1
 1298 1464 l 2,55,56
 1321 1464 1321 1464 1334.5 1453 c 128,-1,57
 1348 1442 1348 1442 1348 1427 c 0,58,59
 1348 1407 1348 1407 1322.5 1384.5 c 128,-1,60
 1297 1362 1297 1362 1261 1341.5 c 128,-1,61
 1225 1321 1225 1321 1168.5 1282 c 128,-1,62
 1112 1243 1112 1243 1067 1200 c 2,63,-1
 688 842 l 1,64,-1
 1225 205 l 2,65,66
 1261 164 1261 164 1306.5 128.5 c 128,-1,67
 1352 93 1352 93 1373.5 73.5 c 128,-1,68
 1395 54 1395 54 1395 35 c 0,69,70
 1395 21 1395 21 1384 10.5 c 128,-1,71
 1373 0 1373 0 1354 0 c 2,72,-1
 973 0 l 2,0,1
EndSplineSet
Validated: 1048577
Substitution2: "'c2sc' Capitals to Small Capitals in Latin lookup 27 subtable" k.sc
Substitution2: "'aalt' Access All Alternates in Latin lookup 0 subtable" k.sc
EndChar

StartChar: L
Encoding: 76 76 47
Width: 1329
GlyphClass: 2
Flags: W
AnchorPoint: "Anchor-9" 823 743 basechar 0
AnchorPoint: "Anchor-8" 371 1464 basechar 0
AnchorPoint: "Anchor-6" 633 0 basechar 0
LayerCount: 2
Fore
SplineSet
168 0 m 2,0,1
 150 0 150 0 138.5 9.5 c 128,-1,2
 127 19 127 19 127 33 c 0,3,4
 127 53 127 53 143.5 68 c 128,-1,5
 160 83 160 83 180 92.5 c 128,-1,6
 200 102 200 102 216.5 123.5 c 128,-1,7
 233 145 233 145 233 176 c 2,8,-1
 233 1288 l 2,9,10
 233 1317 233 1317 216.5 1337.5 c 128,-1,11
 200 1358 200 1358 180 1367.5 c 128,-1,12
 160 1377 160 1377 143.5 1393.5 c 128,-1,13
 127 1410 127 1410 127 1432 c 0,14,15
 127 1446 127 1446 138.5 1455 c 128,-1,16
 150 1464 150 1464 168 1464 c 2,17,-1
 551 1464 l 2,18,19
 569 1464 569 1464 580.5 1455 c 128,-1,20
 592 1446 592 1446 592 1432 c 0,21,22
 592 1410 592 1410 575.5 1393.5 c 128,-1,23
 559 1377 559 1377 538.5 1367.5 c 128,-1,24
 518 1358 518 1358 501.5 1337.5 c 128,-1,25
 485 1317 485 1317 485 1288 c 2,26,-1
 485 182 l 2,27,28
 485 140 485 140 503.5 122 c 128,-1,29
 522 104 522 104 565 104 c 2,30,-1
 885 104 l 2,31,32
 950 104 950 104 988 124 c 128,-1,33
 1026 144 1026 144 1055 195 c 2,34,-1
 1174 406 l 2,35,36
 1188 429 1188 429 1208.5 435 c 128,-1,37
 1229 441 1229 441 1244.5 427 c 128,-1,38
 1260 413 1260 413 1260 385 c 2,39,-1
 1260 102 l 2,40,41
 1260 0 1260 0 1153 0 c 2,42,-1
 168 0 l 2,0,1
EndSplineSet
Validated: 1048577
Substitution2: "'c2sc' Capitals to Small Capitals in Latin lookup 27 subtable" l.sc
Substitution2: "'aalt' Access All Alternates in Latin lookup 0 subtable" l.sc
EndChar

StartChar: M
Encoding: 77 77 48
Width: 1986
GlyphClass: 2
Flags: W
AnchorPoint: "Anchor-8" 991 1464 basechar 0
AnchorPoint: "Anchor-6" 991 0 basechar 0
LayerCount: 2
Fore
SplineSet
946 -18 m 128,-1,1
 896 -18 896 -18 868 45 c 2,2,-1
 362 1149 l 1,3,-1
 362 195 l 2,4,5
 362 162 362 162 379.5 138.5 c 128,-1,6
 397 115 397 115 417.5 104 c 128,-1,7
 438 93 438 93 455.5 75 c 128,-1,8
 473 57 473 57 473 33 c 0,9,10
 473 20 473 20 461.5 10 c 128,-1,11
 450 0 450 0 432 0 c 2,12,-1
 168 0 l 2,13,14
 149 0 149 0 138 10 c 128,-1,15
 127 20 127 20 127 33 c 0,16,17
 127 49 127 49 138 62.5 c 128,-1,18
 149 76 149 76 164.5 86.5 c 128,-1,19
 180 97 180 97 195.5 110 c 128,-1,20
 211 123 211 123 222 144 c 128,-1,21
 233 165 233 165 233 193 c 2,22,-1
 233 1288 l 2,23,24
 233 1318 233 1318 216.5 1338.5 c 128,-1,25
 200 1359 200 1359 181 1367.5 c 128,-1,26
 162 1376 162 1376 145.5 1392.5 c 128,-1,27
 129 1409 129 1409 129 1432 c 0,28,29
 129 1445 129 1445 140.5 1454.5 c 128,-1,30
 152 1464 152 1464 172 1464 c 2,31,-1
 453 1464 l 2,32,33
 503 1464 503 1464 522 1419 c 2,34,-1
 1010 358 l 1,35,-1
 1475 1419 l 2,36,37
 1494 1464 1494 1464 1544 1464 c 2,38,-1
 1817 1464 l 2,39,40
 1836 1464 1836 1464 1847 1454.5 c 128,-1,41
 1858 1445 1858 1445 1858 1432 c 0,42,43
 1858 1412 1858 1412 1841.5 1396.5 c 128,-1,44
 1825 1381 1825 1381 1805.5 1371.5 c 128,-1,45
 1786 1362 1786 1362 1769.5 1340.5 c 128,-1,46
 1753 1319 1753 1319 1753 1288 c 2,47,-1
 1753 176 l 2,48,49
 1753 146 1753 146 1769.5 125.5 c 128,-1,50
 1786 105 1786 105 1805.5 96.5 c 128,-1,51
 1825 88 1825 88 1841.5 72 c 128,-1,52
 1858 56 1858 56 1858 33 c 0,53,54
 1858 20 1858 20 1847 10 c 128,-1,55
 1836 0 1836 0 1817 0 c 2,56,-1
 1448 0 l 2,57,58
 1428 0 1428 0 1416.5 10 c 128,-1,59
 1405 20 1405 20 1405 33 c 0,60,61
 1405 53 1405 53 1421.5 68.5 c 128,-1,62
 1438 84 1438 84 1458 93.5 c 128,-1,63
 1478 103 1478 103 1494.5 124.5 c 128,-1,64
 1511 146 1511 146 1511 176 c 2,65,-1
 1511 1143 l 1,66,-1
 1024 45 l 2,67,0
 996 -18 996 -18 946 -18 c 128,-1,1
EndSplineSet
Validated: 1048577
Substitution2: "'c2sc' Capitals to Small Capitals in Latin lookup 27 subtable" m.sc
Substitution2: "'aalt' Access All Alternates in Latin lookup 0 subtable" m.sc
EndChar

StartChar: N
Encoding: 78 78 49
Width: 1607
GlyphClass: 2
Flags: W
AnchorPoint: "Anchor-8" 874 1464 basechar 0
AnchorPoint: "Anchor-6" 825 0 basechar 0
LayerCount: 2
Fore
SplineSet
190 0 m 2,0,1
 172 0 172 0 162 9.5 c 128,-1,2
 152 19 152 19 152 33 c 0,3,4
 152 57 152 57 173 79 c 128,-1,5
 194 101 194 101 215 129.5 c 128,-1,6
 236 158 236 158 236 197 c 2,7,-1
 236 1229 l 2,8,9
 236 1253 236 1253 222 1276.5 c 128,-1,10
 208 1300 208 1300 188 1318 c 128,-1,11
 168 1336 168 1336 148 1353.5 c 128,-1,12
 128 1371 128 1371 114 1391 c 128,-1,13
 100 1411 100 1411 100 1430 c 0,14,15
 100 1464 100 1464 150 1464 c 2,16,-1
 381 1464 l 2,17,18
 419 1464 419 1464 443.5 1453.5 c 128,-1,19
 468 1443 468 1443 492 1413 c 2,20,-1
 1274 436 l 1,21,-1
 1274 1268 l 2,22,23
 1274 1295 1274 1295 1263 1315.5 c 128,-1,24
 1252 1336 1252 1336 1236 1348.5 c 128,-1,25
 1220 1361 1220 1361 1204.5 1372.5 c 128,-1,26
 1189 1384 1189 1384 1178 1398.5 c 128,-1,27
 1167 1413 1167 1413 1167 1432 c 0,28,29
 1167 1464 1167 1464 1208 1464 c 2,30,-1
 1448 1464 l 2,31,32
 1485 1464 1485 1464 1485 1436 c 0,33,34
 1485 1413 1485 1413 1464 1388.5 c 128,-1,35
 1443 1364 1443 1364 1422 1334.5 c 128,-1,36
 1401 1305 1401 1305 1401 1268 c 2,37,-1
 1401 43 l 2,38,39
 1401 -12 1401 -12 1355 -22.5 c 128,-1,40
 1309 -33 1309 -33 1274 12 c 2,41,-1
 362 1155 l 1,42,-1
 362 197 l 2,43,44
 362 163 362 163 379 138.5 c 128,-1,45
 396 114 396 114 416.5 102 c 128,-1,46
 437 90 437 90 454 72.5 c 128,-1,47
 471 55 471 55 471 33 c 0,48,49
 471 0 471 0 432 0 c 2,50,-1
 190 0 l 2,0,1
EndSplineSet
Validated: 1048609
Substitution2: "'c2sc' Capitals to Small Capitals in Latin lookup 27 subtable" n.sc
Substitution2: "'aalt' Access All Alternates in Latin lookup 0 subtable" n.sc
EndChar

StartChar: O
Encoding: 79 79 50
Width: 1660
GlyphClass: 2
Flags: W
AnchorPoint: "Anchor-9" 829 731 basechar 0
AnchorPoint: "Anchor-8" 829 1464 basechar 0
AnchorPoint: "Anchor-7" 1399 20 basechar 0
AnchorPoint: "Anchor-6" 829 0 basechar 0
LayerCount: 2
Fore
SplineSet
829 -31 m 0,0,1
 666 -31 666 -31 528.5 31.5 c 128,-1,2
 391 94 391 94 299.5 199 c 128,-1,3
 208 304 208 304 157 442 c 128,-1,4
 106 580 106 580 106 731 c 0,5,6
 106 883 106 883 157 1021.5 c 128,-1,7
 208 1160 208 1160 299.5 1265 c 128,-1,8
 391 1370 391 1370 528.5 1432.5 c 128,-1,9
 666 1495 666 1495 829 1495 c 0,10,11
 961 1495 961 1495 1076.5 1454.5 c 128,-1,12
 1192 1414 1192 1414 1278.5 1342.5 c 128,-1,13
 1365 1271 1365 1271 1427.5 1175.5 c 128,-1,14
 1490 1080 1490 1080 1522 966.5 c 128,-1,15
 1554 853 1554 853 1554 731 c 0,16,17
 1554 580 1554 580 1503 442 c 128,-1,18
 1452 304 1452 304 1360.5 199 c 128,-1,19
 1269 94 1269 94 1131 31.5 c 128,-1,20
 993 -31 993 -31 829 -31 c 0,0,1
406 688 m 2,21,22
 406 397 406 397 516 236.5 c 128,-1,23
 626 76 626 76 829 76 c 0,24,25
 1034 76 1034 76 1145.5 236.5 c 128,-1,26
 1257 397 1257 397 1257 688 c 2,27,-1
 1257 780 l 2,28,29
 1257 1069 1257 1069 1145.5 1229 c 128,-1,30
 1034 1389 1034 1389 829 1389 c 0,31,32
 626 1389 626 1389 516 1229 c 128,-1,33
 406 1069 406 1069 406 780 c 2,34,-1
 406 688 l 2,21,22
EndSplineSet
Validated: 1
Substitution2: "Single Substitution lookup 38 subtable" ordmasculine
Substitution2: "'c2sc' Capitals to Small Capitals in Latin lookup 27 subtable" o.sc
AlternateSubs2: "'aalt' Access All Alternates in Latin lookup 1 subtable" ordmasculine o.sc
EndChar

StartChar: P
Encoding: 80 80 51
Width: 1341
GlyphClass: 2
Flags: W
AnchorPoint: "Anchor-8" 643 1464 basechar 0
AnchorPoint: "Anchor-6" 643 0 basechar 0
LayerCount: 2
Fore
SplineSet
168 0 m 2,0,1
 150 0 150 0 138.5 10 c 128,-1,2
 127 20 127 20 127 33 c 0,3,4
 127 54 127 54 143.5 69 c 128,-1,5
 160 84 160 84 180 93.5 c 128,-1,6
 200 103 200 103 216.5 124 c 128,-1,7
 233 145 233 145 233 176 c 2,8,-1
 233 1288 l 2,9,10
 233 1318 233 1318 216.5 1338.5 c 128,-1,11
 200 1359 200 1359 180 1367.5 c 128,-1,12
 160 1376 160 1376 143.5 1392.5 c 128,-1,13
 127 1409 127 1409 127 1432 c 0,14,15
 127 1445 127 1445 138.5 1454.5 c 128,-1,16
 150 1464 150 1464 168 1464 c 2,17,-1
 596 1464 l 2,18,19
 933 1464 933 1464 1105.5 1343 c 128,-1,20
 1278 1222 1278 1222 1278 1018 c 0,21,22
 1278 880 1278 880 1204 777 c 128,-1,23
 1130 674 1130 674 1005.5 621.5 c 128,-1,24
 881 569 881 569 723 569 c 0,25,26
 612 569 612 569 477 596 c 1,27,-1
 477 176 l 2,28,29
 477 151 477 151 488 133.5 c 128,-1,30
 499 116 499 116 514.5 106.5 c 128,-1,31
 530 97 530 97 546 88 c 128,-1,32
 562 79 562 79 573 65.5 c 128,-1,33
 584 52 584 52 584 33 c 0,34,35
 584 20 584 20 573 10 c 128,-1,36
 562 0 562 0 543 0 c 2,37,-1
 168 0 l 2,0,1
477 1305 m 2,38,-1
 477 696 l 1,39,40
 584 674 584 674 664 674 c 0,41,42
 824 674 824 674 918 751 c 128,-1,43
 1012 828 1012 828 1012 991 c 0,44,45
 1012 1174 1012 1174 891 1269 c 128,-1,46
 770 1364 770 1364 541 1364 c 0,47,48
 477 1364 477 1364 477 1305 c 2,38,-1
EndSplineSet
Validated: 1048577
Substitution2: "'c2sc' Capitals to Small Capitals in Latin lookup 27 subtable" p.sc
Substitution2: "'aalt' Access All Alternates in Latin lookup 0 subtable" p.sc
EndChar

StartChar: Q
Encoding: 81 81 52
Width: 1660
GlyphClass: 2
Flags: W
AnchorPoint: "Anchor-9" 829 731 basechar 0
AnchorPoint: "Anchor-8" 823 1464 basechar 0
AnchorPoint: "Anchor-7" 1399 20 basechar 0
AnchorPoint: "Anchor-6" 823 0 basechar 0
LayerCount: 2
Fore
SplineSet
1327 -401 m 0,0,1
 1211 -401 1211 -401 1089.5 -356 c 128,-1,2
 968 -311 968 -311 857 -222 c 128,-1,3
 746 -133 746 -133 676 -16 c 1,4,5
 503 19 503 19 372 130 c 128,-1,6
 241 241 241 241 173.5 397 c 128,-1,7
 106 553 106 553 106 731 c 0,8,9
 106 883 106 883 157 1021.5 c 128,-1,10
 208 1160 208 1160 299.5 1265 c 128,-1,11
 391 1370 391 1370 528.5 1432.5 c 128,-1,12
 666 1495 666 1495 829 1495 c 0,13,14
 961 1495 961 1495 1076.5 1454.5 c 128,-1,15
 1192 1414 1192 1414 1278.5 1342.5 c 128,-1,16
 1365 1271 1365 1271 1427.5 1175.5 c 128,-1,17
 1490 1080 1490 1080 1522 966.5 c 128,-1,18
 1554 853 1554 853 1554 731 c 0,19,20
 1554 557 1554 557 1490.5 404.5 c 128,-1,21
 1427 252 1427 252 1302.5 141.5 c 128,-1,22
 1178 31 1178 31 1012 -10 c 1,23,24
 1116 -202 1116 -202 1348 -330 c 0,25,26
 1384 -350 1384 -350 1375.5 -375.5 c 128,-1,27
 1367 -401 1367 -401 1327 -401 c 0,0,1
406 688 m 2,28,29
 406 397 406 397 516 236.5 c 128,-1,30
 626 76 626 76 829 76 c 0,31,32
 1034 76 1034 76 1145.5 236.5 c 128,-1,33
 1257 397 1257 397 1257 688 c 2,34,-1
 1257 780 l 2,35,36
 1257 1069 1257 1069 1145.5 1229 c 128,-1,37
 1034 1389 1034 1389 829 1389 c 0,38,39
 626 1389 626 1389 516 1229 c 128,-1,40
 406 1069 406 1069 406 780 c 2,41,-1
 406 688 l 2,28,29
EndSplineSet
Validated: 1
Substitution2: "'c2sc' Capitals to Small Capitals in Latin lookup 27 subtable" q.sc
Substitution2: "'aalt' Access All Alternates in Latin lookup 0 subtable" q.sc
EndChar

StartChar: R
Encoding: 82 82 53
Width: 1406
GlyphClass: 2
Flags: W
AnchorPoint: "Anchor-8" 727 1464 basechar 0
AnchorPoint: "Anchor-6" 723 0 basechar 0
LayerCount: 2
Fore
SplineSet
168 0 m 2,0,1
 149 0 149 0 138 10 c 128,-1,2
 127 20 127 20 127 33 c 0,3,4
 127 53 127 53 143.5 68 c 128,-1,5
 160 83 160 83 180 92.5 c 128,-1,6
 200 102 200 102 216.5 123.5 c 128,-1,7
 233 145 233 145 233 176 c 2,8,-1
 233 1288 l 2,9,10
 233 1318 233 1318 216.5 1338.5 c 128,-1,11
 200 1359 200 1359 180 1367.5 c 128,-1,12
 160 1376 160 1376 143.5 1392.5 c 128,-1,13
 127 1409 127 1409 127 1432 c 0,14,15
 127 1445 127 1445 138.5 1454.5 c 128,-1,16
 150 1464 150 1464 168 1464 c 2,17,-1
 668 1464 l 2,18,19
 967 1464 967 1464 1117.5 1359.5 c 128,-1,20
 1268 1255 1268 1255 1268 1067 c 0,21,22
 1268 990 1268 990 1239 926.5 c 128,-1,23
 1210 863 1210 863 1148.5 811 c 128,-1,24
 1087 759 1087 759 980.5 726.5 c 128,-1,25
 874 694 874 694 729 686 c 1,26,27
 798 664 798 664 848 608 c 2,28,-1
 1198 209 l 2,29,30
 1236 165 1236 165 1281 132.5 c 128,-1,31
 1326 100 1326 100 1346 82 c 128,-1,32
 1366 64 1366 64 1366 37 c 0,33,34
 1366 0 1366 0 1313 0 c 2,35,-1
 1133 0 l 2,36,37
 1086 0 1086 0 1056 18 c 128,-1,38
 1026 36 1026 36 993 78 c 2,39,-1
 477 682 l 1,40,-1
 477 176 l 2,41,42
 477 146 477 146 493.5 125.5 c 128,-1,43
 510 105 510 105 529.5 96.5 c 128,-1,44
 549 88 549 88 565.5 72 c 128,-1,45
 582 56 582 56 582 33 c 0,46,47
 582 20 582 20 571 10 c 128,-1,48
 560 0 560 0 541 0 c 2,49,-1
 168 0 l 2,0,1
477 780 m 1,50,51
 532 772 532 772 604 772 c 0,52,53
 1001 772 1001 772 1001 1057 c 0,54,55
 1001 1207 1001 1207 907.5 1285.5 c 128,-1,56
 814 1364 814 1364 608 1364 c 2,57,-1
 545 1364 l 2,58,59
 477 1364 477 1364 477 1303 c 2,60,-1
 477 780 l 1,50,51
EndSplineSet
Validated: 1048577
Substitution2: "'c2sc' Capitals to Small Capitals in Latin lookup 27 subtable" r.sc
Substitution2: "'aalt' Access All Alternates in Latin lookup 0 subtable" r.sc
EndChar

StartChar: S
Encoding: 83 83 54
Width: 1187
GlyphClass: 2
Flags: W
AnchorPoint: "Anchor-8" 586 1464 basechar 0
AnchorPoint: "Anchor-6" 588 0 basechar 0
LayerCount: 2
Fore
SplineSet
604 -31 m 0,0,1
 479 -31 479 -31 370.5 -0.5 c 128,-1,2
 262 30 262 30 191.5 94 c 128,-1,3
 121 158 121 158 121 242 c 0,4,5
 121 309 121 309 163 348 c 128,-1,6
 205 387 205 387 270 387 c 0,7,8
 394 387 394 387 436 240 c 0,9,10
 486 74 486 74 653 74 c 0,11,12
 759 74 759 74 819 133.5 c 128,-1,13
 879 193 879 193 879 293 c 0,14,15
 879 397 879 397 803 474.5 c 128,-1,16
 727 552 727 552 535 657 c 0,17,18
 382 741 382 741 332 776 c 0,19,20
 180 882 180 882 147 1019 c 0,21,22
 137 1063 137 1063 137 1112 c 0,23,24
 137 1281 137 1281 257 1388 c 128,-1,25
 377 1495 377 1495 600 1495 c 0,26,27
 799 1495 799 1495 931 1413 c 128,-1,28
 1063 1331 1063 1331 1063 1214 c 0,29,30
 1063 1154 1063 1154 1026 1124 c 128,-1,31
 989 1094 989 1094 932 1094 c 0,32,33
 824 1094 824 1094 780 1227 c 0,34,35
 726 1391 726 1391 561 1391 c 0,36,37
 456 1391 456 1391 400 1333 c 128,-1,38
 344 1275 344 1275 344 1182 c 0,39,40
 344 1088 344 1088 415.5 1017.5 c 128,-1,41
 487 947 487 947 680 844 c 0,42,43
 736 814 736 814 766 798 c 128,-1,44
 796 782 796 782 847 750 c 128,-1,45
 898 718 898 718 926 693.5 c 128,-1,46
 954 669 954 669 990.5 630.5 c 128,-1,47
 1027 592 1027 592 1046 554.5 c 128,-1,48
 1065 517 1065 517 1078.5 467 c 128,-1,49
 1092 417 1092 417 1092 362 c 0,50,51
 1092 281 1092 281 1064 212 c 128,-1,52
 1036 143 1036 143 979.5 87.5 c 128,-1,53
 923 32 923 32 827 0.5 c 128,-1,54
 731 -31 731 -31 604 -31 c 0,0,1
EndSplineSet
Validated: 1048577
Substitution2: "'c2sc' Capitals to Small Capitals in Latin lookup 27 subtable" s.sc
Substitution2: "'aalt' Access All Alternates in Latin lookup 0 subtable" s.sc
EndChar

StartChar: T
Encoding: 84 84 55
Width: 1335
GlyphClass: 2
Flags: W
AnchorPoint: "Anchor-9" 664 731 basechar 0
AnchorPoint: "Anchor-8" 664 1464 basechar 0
AnchorPoint: "Anchor-6" 664 0 basechar 0
LayerCount: 2
Fore
SplineSet
481 0 m 2,0,1
 462 0 462 0 451 10 c 128,-1,2
 440 20 440 20 440 33 c 0,3,4
 440 53 440 53 456.5 68 c 128,-1,5
 473 83 473 83 492.5 92.5 c 128,-1,6
 512 102 512 102 528.5 123.5 c 128,-1,7
 545 145 545 145 545 176 c 2,8,-1
 545 1368 l 1,9,10
 454 1368 454 1368 409 1353 c 128,-1,11
 364 1338 364 1338 311 1288 c 2,12,-1
 123 1118 l 2,13,14
 97 1091 97 1091 68.5 1101 c 128,-1,15
 40 1111 40 1111 47 1147 c 2,16,-1
 96 1386 l 2,17,18
 107 1440 107 1440 124.5 1456.5 c 128,-1,19
 142 1473 142 1473 195 1473 c 0,20,21
 271 1473 271 1473 420.5 1468 c 128,-1,22
 570 1463 570 1463 668 1464 c 0,23,24
 760 1464 760 1464 908 1468.5 c 128,-1,25
 1056 1473 1056 1473 1139 1473 c 0,26,27
 1193 1473 1193 1473 1210.5 1456.5 c 128,-1,28
 1228 1440 1228 1440 1239 1386 c 2,29,-1
 1286 1147 l 2,30,31
 1293 1111 1293 1111 1265.5 1101 c 128,-1,32
 1238 1091 1238 1091 1212 1118 c 2,33,-1
 1024 1288 l 2,34,35
 969 1338 969 1338 925 1353 c 128,-1,36
 881 1368 881 1368 791 1368 c 1,37,-1
 791 176 l 2,38,39
 791 146 791 146 807.5 125.5 c 128,-1,40
 824 105 824 105 843 96.5 c 128,-1,41
 862 88 862 88 878.5 72 c 128,-1,42
 895 56 895 56 895 33 c 0,43,44
 895 20 895 20 883.5 10 c 128,-1,45
 872 0 872 0 852 0 c 2,46,-1
 481 0 l 2,0,1
EndSplineSet
Validated: 1048609
Substitution2: "'c2sc' Capitals to Small Capitals in Latin lookup 27 subtable" t.sc
Substitution2: "'aalt' Access All Alternates in Latin lookup 0 subtable" t.sc
EndChar

StartChar: U
Encoding: 85 85 56
Width: 1538
GlyphClass: 2
Flags: W
AnchorPoint: "Anchor-8" 842 1464 basechar 0
AnchorPoint: "Anchor-7" 1053 20 basechar 0
AnchorPoint: "Anchor-6" 776 0 basechar 0
LayerCount: 2
Fore
SplineSet
797 -31 m 0,0,1
 521 -31 521 -31 360 111.5 c 128,-1,2
 199 254 199 254 199 500 c 2,3,-1
 199 1288 l 2,4,5
 199 1318 199 1318 182.5 1338.5 c 128,-1,6
 166 1359 166 1359 146.5 1367.5 c 128,-1,7
 127 1376 127 1376 110.5 1392.5 c 128,-1,8
 94 1409 94 1409 94 1432 c 0,9,10
 94 1445 94 1445 105 1454.5 c 128,-1,11
 116 1464 116 1464 135 1464 c 2,12,-1
 516 1464 l 2,13,14
 535 1464 535 1464 546 1454.5 c 128,-1,15
 557 1445 557 1445 557 1432 c 0,16,17
 557 1412 557 1412 540.5 1396.5 c 128,-1,18
 524 1381 524 1381 505 1371.5 c 128,-1,19
 486 1362 486 1362 469.5 1340.5 c 128,-1,20
 453 1319 453 1319 453 1288 c 2,21,-1
 453 528 l 2,22,23
 453 324 453 324 554.5 220.5 c 128,-1,24
 656 117 656 117 844 117 c 0,25,26
 1030 117 1030 117 1122 218 c 128,-1,27
 1214 319 1214 319 1214 537 c 2,28,-1
 1214 1253 l 2,29,30
 1214 1287 1214 1287 1197 1312.5 c 128,-1,31
 1180 1338 1180 1338 1160 1351 c 128,-1,32
 1140 1364 1140 1364 1123 1385 c 128,-1,33
 1106 1406 1106 1406 1106 1432 c 0,34,35
 1106 1464 1106 1464 1151 1464 c 2,36,-1
 1386 1464 l 2,37,38
 1405 1464 1405 1464 1416 1455.5 c 128,-1,39
 1427 1447 1427 1447 1427 1434 c 0,40,41
 1427 1416 1427 1416 1413.5 1396.5 c 128,-1,42
 1400 1377 1400 1377 1384 1361.5 c 128,-1,43
 1368 1346 1368 1346 1354.5 1317.5 c 128,-1,44
 1341 1289 1341 1289 1341 1255 c 2,45,-1
 1341 528 l 2,46,47
 1341 242 1341 242 1203.5 105.5 c 128,-1,48
 1066 -31 1066 -31 797 -31 c 0,0,1
EndSplineSet
Validated: 1048577
Substitution2: "'c2sc' Capitals to Small Capitals in Latin lookup 27 subtable" u.sc
Substitution2: "'aalt' Access All Alternates in Latin lookup 0 subtable" u.sc
EndChar

StartChar: V
Encoding: 86 86 57
Width: 1386
GlyphClass: 2
Flags: W
AnchorPoint: "Anchor-8" 690 1464 basechar 0
AnchorPoint: "Anchor-6" 690 0 basechar 0
LayerCount: 2
Fore
SplineSet
702 -27 m 128,-1,1
 671 -27 671 -27 642.5 -3 c 128,-1,2
 614 21 614 21 596 66 c 2,3,-1
 125 1260 l 2,4,5
 111 1295 111 1295 88 1324.5 c 128,-1,6
 65 1354 65 1354 47 1369.5 c 128,-1,7
 29 1385 29 1385 15.5 1401.5 c 128,-1,8
 2 1418 2 1418 2 1434 c 0,9,10
 2 1447 2 1447 11 1455.5 c 128,-1,11
 20 1464 20 1464 37 1464 c 2,12,-1
 453 1464 l 2,13,14
 487 1464 487 1464 487 1434 c 0,15,16
 487 1416 487 1416 472 1399.5 c 128,-1,17
 457 1383 457 1383 439 1371.5 c 128,-1,18
 421 1360 421 1360 406 1340.5 c 128,-1,19
 391 1321 391 1321 391 1298 c 0,20,21
 391 1280 391 1280 406 1243 c 2,22,-1
 760 303 l 1,23,-1
 1094 1235 l 2,24,25
 1110 1278 1110 1278 1110 1303 c 0,26,27
 1110 1326 1110 1326 1096 1345.5 c 128,-1,28
 1082 1365 1082 1365 1066 1376.5 c 128,-1,29
 1050 1388 1050 1388 1036 1403.5 c 128,-1,30
 1022 1419 1022 1419 1022 1434 c 0,31,32
 1022 1447 1022 1447 1031 1455.5 c 128,-1,33
 1040 1464 1040 1464 1057 1464 c 2,34,-1
 1339 1464 l 2,35,36
 1376 1464 1376 1464 1376 1434 c 0,37,38
 1376 1418 1376 1418 1361 1401.5 c 128,-1,39
 1346 1385 1346 1385 1326.5 1370.5 c 128,-1,40
 1307 1356 1307 1356 1283.5 1327.5 c 128,-1,41
 1260 1299 1260 1299 1247 1264 c 2,42,-1
 805 66 l 2,43,44
 788 21 788 21 760.5 -3 c 128,-1,0
 733 -27 733 -27 702 -27 c 128,-1,1
EndSplineSet
Validated: 1048577
Substitution2: "'c2sc' Capitals to Small Capitals in Latin lookup 27 subtable" v.sc
Substitution2: "'aalt' Access All Alternates in Latin lookup 0 subtable" v.sc
EndChar

StartChar: W
Encoding: 87 87 58
Width: 1943
GlyphClass: 2
Flags: W
AnchorPoint: "Anchor-8" 1014 1464 basechar 0
AnchorPoint: "Anchor-6" 993 0 basechar 0
LayerCount: 2
Fore
SplineSet
610 -25 m 0,0,1
 547 -25 547 -25 524 47 c 2,2,-1
 127 1260 l 2,3,4
 116 1293 116 1293 94 1322.5 c 128,-1,5
 72 1352 72 1352 52 1369 c 128,-1,6
 32 1386 32 1386 17 1404 c 128,-1,7
 2 1422 2 1422 2 1436 c 0,8,9
 2 1464 2 1464 39 1464 c 2,10,-1
 438 1464 l 2,11,12
 475 1464 475 1464 475 1436 c 0,13,14
 475 1421 475 1421 460 1405 c 128,-1,15
 445 1389 445 1389 427 1375.5 c 128,-1,16
 409 1362 409 1362 394 1341 c 128,-1,17
 379 1320 379 1320 379 1296 c 0,18,19
 379 1283 379 1283 391 1243 c 2,20,-1
 649 367 l 1,21,-1
 907 1380 l 2,22,23
 919 1429 919 1429 952.5 1456 c 128,-1,24
 986 1483 986 1483 1028 1483 c 0,25,26
 1069 1483 1069 1483 1101.5 1456.5 c 128,-1,27
 1134 1430 1134 1430 1147 1380 c 2,28,-1
 1421 358 l 1,29,-1
 1663 1237 l 2,30,31
 1671 1264 1671 1264 1671 1286 c 0,32,33
 1671 1313 1671 1313 1657.5 1334.5 c 128,-1,34
 1644 1356 1644 1356 1627 1368 c 128,-1,35
 1610 1380 1610 1380 1596.5 1397.5 c 128,-1,36
 1583 1415 1583 1415 1583 1434 c 0,37,38
 1583 1447 1583 1447 1592.5 1455.5 c 128,-1,39
 1602 1464 1602 1464 1620 1464 c 2,40,-1
 1884 1464 l 2,41,42
 1925 1464 1925 1464 1925 1434 c 0,43,44
 1925 1419 1925 1419 1909.5 1404.5 c 128,-1,45
 1894 1390 1894 1390 1873.5 1376.5 c 128,-1,46
 1853 1363 1853 1363 1830 1332.5 c 128,-1,47
 1807 1302 1807 1302 1796 1262 c 2,48,-1
 1450 47 l 2,49,50
 1429 -25 1429 -25 1364 -25 c 0,51,52
 1331 -25 1331 -25 1306 -6.5 c 128,-1,53
 1281 12 1281 12 1272 47 c 2,54,-1
 983 1130 l 1,55,-1
 700 47 l 2,56,57
 682 -25 682 -25 610 -25 c 0,0,1
EndSplineSet
Validated: 1048577
Substitution2: "'c2sc' Capitals to Small Capitals in Latin lookup 27 subtable" w.sc
Substitution2: "'aalt' Access All Alternates in Latin lookup 0 subtable" w.sc
EndChar

StartChar: X
Encoding: 88 88 59
Width: 1333
GlyphClass: 2
Flags: W
AnchorPoint: "Anchor-8" 725 1464 basechar 0
AnchorPoint: "Anchor-6" 684 0 basechar 0
LayerCount: 2
Fore
SplineSet
846 0 m 2,0,1
 809 0 809 0 809 29 c 0,2,3
 809 47 809 47 832 67.5 c 128,-1,4
 855 88 855 88 878 112 c 128,-1,5
 901 136 901 136 901 160 c 0,6,7
 901 181 901 181 879 215 c 2,8,-1
 625 604 l 1,9,-1
 367 201 l 2,10,11
 344 163 344 163 344 141 c 0,12,13
 344 123 344 123 358.5 107.5 c 128,-1,14
 373 92 373 92 390 82.5 c 128,-1,15
 407 73 407 73 421.5 58 c 128,-1,16
 436 43 436 43 436 27 c 0,17,18
 436 0 436 0 401 0 c 2,19,-1
 63 0 l 2,20,21
 25 0 25 0 25 29 c 0,22,23
 25 45 25 45 43.5 61 c 128,-1,24
 62 77 62 77 87.5 91 c 128,-1,25
 113 105 113 105 147.5 133.5 c 128,-1,26
 182 162 182 162 207 197 c 2,27,-1
 557 711 l 1,28,-1
 207 1249 l 2,29,30
 174 1300 174 1300 137 1340 c 128,-1,31
 100 1380 100 1380 83 1399 c 128,-1,32
 66 1418 66 1418 66 1434 c 0,33,34
 66 1464 66 1464 102 1464 c 2,35,-1
 520 1464 l 2,36,37
 555 1464 555 1464 555 1436 c 0,38,39
 555 1420 555 1420 540.5 1403.5 c 128,-1,40
 526 1387 526 1387 509 1374.5 c 128,-1,41
 492 1362 492 1362 477.5 1343.5 c 128,-1,42
 463 1325 463 1325 463 1307 c 0,43,44
 463 1286 463 1286 487 1249 c 2,45,-1
 711 901 l 1,46,-1
 948 1278 l 2,47,48
 971 1314 971 1314 971 1331 c 0,49,50
 971 1352 971 1352 937 1385 c 128,-1,51
 903 1418 903 1418 903 1438 c 0,52,53
 903 1464 903 1464 940 1464 c 2,54,-1
 1235 1464 l 2,55,56
 1272 1464 1272 1464 1272 1436 c 0,57,58
 1272 1420 1272 1420 1253.5 1403.5 c 128,-1,59
 1235 1387 1235 1387 1209.5 1373 c 128,-1,60
 1184 1359 1184 1359 1150 1331 c 128,-1,61
 1116 1303 1116 1303 1092 1268 c 2,62,-1
 776 803 l 1,63,-1
 1157 215 l 2,64,65
 1189 165 1189 165 1227.5 126.5 c 128,-1,66
 1266 88 1266 88 1284.5 69.5 c 128,-1,67
 1303 51 1303 51 1303 33 c 0,68,69
 1303 19 1303 19 1292.5 9.5 c 128,-1,70
 1282 0 1282 0 1264 0 c 2,71,-1
 846 0 l 2,0,1
EndSplineSet
Validated: 1048577
Substitution2: "'c2sc' Capitals to Small Capitals in Latin lookup 27 subtable" x.sc
Substitution2: "'aalt' Access All Alternates in Latin lookup 0 subtable" x.sc
EndChar

StartChar: Y
Encoding: 89 89 60
Width: 1323
GlyphClass: 2
Flags: W
AnchorPoint: "Anchor-8" 721 1464 basechar 0
AnchorPoint: "Anchor-6" 659 0 basechar 0
LayerCount: 2
Fore
SplineSet
485 0 m 2,0,1
 466 0 466 0 455 9 c 128,-1,2
 444 18 444 18 444 33 c 0,3,4
 444 49 444 49 455 61.5 c 128,-1,5
 466 74 466 74 482 83 c 128,-1,6
 498 92 498 92 513.5 102.5 c 128,-1,7
 529 113 529 113 540 132 c 128,-1,8
 551 151 551 151 551 176 c 2,9,-1
 551 694 l 1,10,-1
 160 1243 l 2,11,12
 127 1291 127 1291 87.5 1332.5 c 128,-1,13
 48 1374 48 1374 30 1394.5 c 128,-1,14
 12 1415 12 1415 12 1432 c 0,15,16
 12 1446 12 1446 22 1455 c 128,-1,17
 32 1464 32 1464 49 1464 c 2,18,-1
 457 1464 l 2,19,20
 494 1464 494 1464 494 1436 c 0,21,22
 494 1422 494 1422 480 1406 c 128,-1,23
 466 1390 466 1390 448.5 1377 c 128,-1,24
 431 1364 431 1364 417 1345 c 128,-1,25
 403 1326 403 1326 403 1307 c 0,26,27
 403 1285 403 1285 426 1249 c 2,28,-1
 721 836 l 1,29,-1
 1012 1276 l 2,30,31
 1030 1306 1030 1306 1030 1329 c 0,32,33
 1030 1356 1030 1356 997.5 1387 c 128,-1,34
 965 1418 965 1418 965 1436 c 0,35,36
 965 1464 965 1464 1001 1464 c 2,37,-1
 1272 1464 l 2,38,39
 1311 1464 1311 1464 1311 1436 c 0,40,41
 1311 1423 1311 1423 1295.5 1407.5 c 128,-1,42
 1280 1392 1280 1392 1258 1377.5 c 128,-1,43
 1236 1363 1236 1363 1205 1333 c 128,-1,44
 1174 1303 1174 1303 1149 1268 c 2,45,-1
 795 745 l 1,46,-1
 795 176 l 2,47,48
 795 146 795 146 811.5 125.5 c 128,-1,49
 828 105 828 105 847 96 c 128,-1,50
 866 87 866 87 882.5 71 c 128,-1,51
 899 55 899 55 899 33 c 0,52,53
 899 0 899 0 858 0 c 2,54,-1
 485 0 l 2,0,1
EndSplineSet
Validated: 1048577
Substitution2: "'c2sc' Capitals to Small Capitals in Latin lookup 27 subtable" y.sc
Substitution2: "'aalt' Access All Alternates in Latin lookup 0 subtable" y.sc
EndChar

StartChar: Z
Encoding: 90 90 61
Width: 1298
GlyphClass: 2
Flags: W
AnchorPoint: "Anchor-9" 655 731 basechar 0
AnchorPoint: "Anchor-8" 666 1464 basechar 0
AnchorPoint: "Anchor-6" 655 0 basechar 0
LayerCount: 2
Fore
SplineSet
131 0 m 2,0,1
 97 0 97 0 86 20.5 c 128,-1,2
 75 41 75 41 94 72 c 2,3,-1
 913 1372 l 1,4,-1
 524 1372 l 2,5,6
 400 1372 400 1372 332 1270 c 2,7,-1
 201 1079 l 2,8,9
 182 1050 182 1050 152.5 1057 c 128,-1,10
 123 1064 123 1064 123 1098 c 2,11,-1
 123 1380 l 2,12,13
 123 1464 123 1464 211 1464 c 2,14,-1
 1163 1464 l 2,15,16
 1198 1464 1198 1464 1209.5 1444 c 128,-1,17
 1221 1424 1221 1424 1202 1393 c 2,18,-1
 393 92 l 1,19,-1
 791 92 l 2,20,21
 913 92 913 92 985 199 c 2,22,-1
 1106 377 l 2,23,24
 1126 406 1126 406 1154 399 c 128,-1,25
 1182 392 1182 392 1182 358 c 2,26,-1
 1182 84 l 2,27,28
 1182 0 1182 0 1098 0 c 2,29,-1
 131 0 l 2,0,1
EndSplineSet
Validated: 1048577
Substitution2: "'c2sc' Capitals to Small Capitals in Latin lookup 27 subtable" z.sc
Substitution2: "'aalt' Access All Alternates in Latin lookup 0 subtable" z.sc
EndChar

StartChar: bracketleft
Encoding: 91 91 62
Width: 671
GlyphClass: 2
Flags: W
LayerCount: 2
Fore
SplineSet
225 -139 m 2,0,1
 190 -139 190 -139 190 -104 c 2,2,-1
 190 1491 l 2,3,4
 190 1526 190 1526 225 1526 c 2,5,-1
 565 1526 l 2,6,7
 596 1526 596 1526 609 1504 c 128,-1,8
 622 1482 622 1482 609 1461 c 128,-1,9
 596 1440 596 1440 565 1442 c 2,10,-1
 299 1458 l 1,11,12
 442 971 442 971 442 694 c 0,13,14
 442 536 442 536 405 351.5 c 128,-1,15
 368 167 368 167 299 -70 c 1,16,-1
 565 -51 l 2,17,18
 596 -49 596 -49 609 -71 c 128,-1,19
 622 -93 622 -93 609 -116 c 128,-1,20
 596 -139 596 -139 565 -139 c 2,21,-1
 225 -139 l 2,0,1
EndSplineSet
Validated: 1
EndChar

StartChar: backslash
Encoding: 92 92 63
Width: 862
GlyphClass: 2
Flags: W
LayerCount: 2
Fore
SplineSet
719 -313 m 2,0,1
 681 -313 681 -313 670 -279 c 2,2,-1
 68 1423 l 2,3,4
 56 1464 56 1464 96 1464 c 2,5,-1
 150 1464 l 2,6,7
 181 1464 181 1464 190 1434 c 2,8,-1
 795 -270 l 2,9,10
 807 -313 807 -313 766 -313 c 2,11,-1
 719 -313 l 2,0,1
EndSplineSet
Validated: 1
EndChar

StartChar: bracketright
Encoding: 93 93 64
Width: 671
GlyphClass: 2
Flags: W
LayerCount: 2
Fore
SplineSet
106 -139 m 2,0,1
 75 -139 75 -139 62 -116 c 128,-1,2
 49 -93 49 -93 62 -71 c 128,-1,3
 75 -49 75 -49 106 -51 c 2,4,-1
 373 -70 l 1,5,6
 303 169 303 169 266 352.5 c 128,-1,7
 229 536 229 536 229 694 c 0,8,9
 229 968 229 968 373 1458 c 1,10,-1
 106 1442 l 2,11,12
 75 1440 75 1440 62 1461 c 128,-1,13
 49 1482 49 1482 62 1504 c 128,-1,14
 75 1526 75 1526 106 1526 c 2,15,-1
 446 1526 l 2,16,17
 481 1526 481 1526 481 1491 c 2,18,-1
 481 -104 l 2,19,20
 481 -139 481 -139 446 -139 c 2,21,-1
 106 -139 l 2,0,1
EndSplineSet
Validated: 1
EndChar

StartChar: asciicircum
Encoding: 94 94 65
Width: 946
GlyphClass: 2
Flags: W
LayerCount: 2
Fore
SplineSet
412 1442 m 2,0,1
 434 1488 434 1488 475 1488 c 128,-1,2
 516 1488 516 1488 539 1442 c 2,3,-1
 848 766 l 2,4,5
 874 711 874 711 839 684 c 0,6,7
 812 664 812 664 783 680 c 0,8,9
 767 689 767 689 760 707 c 2,10,-1
 475 1399 l 1,11,-1
 190 707 l 2,12,13
 174 672 174 672 136 674 c 0,14,15
 101 676 101 676 91 707 c 0,16,17
 82 732 82 732 98 766 c 2,18,-1
 412 1442 l 2,0,1
EndSplineSet
Validated: 33
Substitution2: "'tnum' Tabular Numbers in Latin lookup 25 subtable" asciicircum.tf
Substitution2: "'aalt' Access All Alternates in Latin lookup 0 subtable" asciicircum.tf
EndChar

StartChar: underscore
Encoding: 95 95 66
Width: 948
GlyphClass: 2
Flags: W
LayerCount: 2
Fore
SplineSet
78 -412 m 2,0,1
 39 -412 39 -412 39 -375 c 2,2,-1
 39 -332 l 2,3,4
 39 -297 39 -297 78 -297 c 2,5,-1
 872 -297 l 2,6,7
 907 -297 907 -297 907 -332 c 2,8,-1
 907 -375 l 2,9,10
 907 -412 907 -412 872 -412 c 2,11,-1
 78 -412 l 2,0,1
EndSplineSet
Validated: 1
EndChar

StartChar: grave
Encoding: 96 96 67
Width: 763
GlyphClass: 2
Flags: W
LayerCount: 2
Fore
SplineSet
268 1241 m 2,0,1
 164 1286 164 1286 164 1364 c 0,2,3
 164 1409 164 1409 193.5 1439.5 c 128,-1,4
 223 1470 223 1470 270 1470 c 0,5,6
 306 1470 306 1470 338 1448 c 128,-1,7
 370 1426 370 1426 414 1376 c 2,8,-1
 549 1225 l 2,9,10
 580 1186 580 1186 555.5 1154.5 c 128,-1,11
 531 1123 531 1123 489 1141 c 2,12,-1
 268 1241 l 2,0,1
EndSplineSet
Validated: 33
Substitution2: "Single Substitution lookup 34 subtable" grave.case
Substitution2: "'case' Case-Sensitive Forms in Latin lookup 29 subtable" grave.case
Substitution2: "'aalt' Access All Alternates in Latin lookup 0 subtable" grave.case
EndChar

StartChar: a
Encoding: 97 97 68
Width: 1085
GlyphClass: 2
Flags: W
AnchorPoint: "Anchor-8" 541 1047 basechar 0
AnchorPoint: "Anchor-7" 981 20 basechar 0
AnchorPoint: "Anchor-6" 541 0 basechar 0
LayerCount: 2
Fore
SplineSet
369 -31 m 0,0,1
 240 -31 240 -31 168 41 c 128,-1,2
 96 113 96 113 96 233 c 0,3,4
 96 561 96 561 680 614 c 1,5,-1
 680 823 l 2,6,7
 680 906 680 906 650 945.5 c 128,-1,8
 620 985 620 985 553 985 c 0,9,10
 497 985 497 985 455.5 958 c 128,-1,11
 414 931 414 931 389 892 c 128,-1,12
 364 853 364 853 341 814 c 128,-1,13
 318 775 318 775 285 748 c 128,-1,14
 252 721 252 721 209 721 c 0,15,16
 162 721 162 721 132 749 c 128,-1,17
 102 777 102 777 102 825 c 0,18,19
 102 924 102 924 225.5 999.5 c 128,-1,20
 349 1075 349 1075 557 1075 c 0,21,22
 736 1075 736 1075 819.5 1005 c 128,-1,23
 903 935 903 935 903 793 c 2,24,-1
 903 145 l 2,25,26
 903 96 903 96 938 96 c 0,27,28
 945 96 945 96 961.5 99 c 128,-1,29
 978 102 978 102 985 102 c 0,30,31
 1008 102 1008 102 1008 74 c 0,32,33
 1008 34 1008 34 960 1.5 c 128,-1,34
 912 -31 912 -31 844 -31 c 0,35,36
 708 -31 708 -31 686 123 c 1,37,38
 630 49 630 49 546.5 9 c 128,-1,39
 463 -31 463 -31 369 -31 c 0,0,1
330 285 m 0,40,41
 330 219 330 219 370.5 174 c 128,-1,42
 411 129 411 129 492 129 c 0,43,44
 583 129 583 129 680 213 c 1,45,-1
 680 526 l 1,46,47
 582 513 582 513 512 488.5 c 128,-1,48
 442 464 442 464 403.5 431 c 128,-1,49
 365 398 365 398 347.5 362 c 128,-1,50
 330 326 330 326 330 285 c 0,40,41
EndSplineSet
Validated: 1048577
Substitution2: "Single Substitution lookup 38 subtable" ordfeminine
Substitution2: "'smcp' Lowercase to Small Capitals in Latin lookup 28 subtable" a.sc
AlternateSubs2: "'aalt' Access All Alternates in Latin lookup 1 subtable" ordfeminine a.sc
EndChar

StartChar: b
Encoding: 98 98 69
Width: 1179
GlyphClass: 2
Flags: W
AnchorPoint: "Anchor-8" 592 1583 basechar 0
AnchorPoint: "Anchor-6" 592 0 basechar 0
LayerCount: 2
Fore
SplineSet
594 -31 m 0,0,1
 521 -31 521 -31 464 -12.5 c 128,-1,2
 407 6 407 6 344 49 c 0,3,4
 307 75 307 75 279 43 c 2,5,-1
 231 -10 l 2,6,7
 208 -36 208 -36 186 -30 c 128,-1,8
 164 -24 164 -24 164 10 c 2,9,-1
 164 1196 l 2,10,11
 164 1224 164 1224 145.5 1241.5 c 128,-1,12
 127 1259 127 1259 105.5 1264.5 c 128,-1,13
 84 1270 84 1270 65.5 1283 c 128,-1,14
 47 1296 47 1296 47 1317 c 0,15,16
 47 1342 47 1342 84 1360 c 2,17,-1
 313 1483 l 2,18,19
 345 1500 345 1500 366 1491 c 128,-1,20
 387 1482 387 1482 387 1452 c 2,21,-1
 387 952 l 1,22,23
 532 1055 532 1055 690 1055 c 0,24,25
 880 1055 880 1055 982.5 929.5 c 128,-1,26
 1085 804 1085 804 1085 555 c 0,27,28
 1085 409 1085 409 1047 295 c 128,-1,29
 1009 181 1009 181 941.5 111 c 128,-1,30
 874 41 874 41 786 5 c 128,-1,31
 698 -31 698 -31 594 -31 c 0,0,1
387 295 m 2,32,33
 387 183 387 183 443 124.5 c 128,-1,34
 499 66 499 66 594 66 c 0,35,36
 844 66 844 66 844 492 c 0,37,38
 844 717 844 717 774.5 812 c 128,-1,39
 705 907 705 907 567 907 c 0,40,41
 474 907 474 907 387 864 c 1,42,-1
 387 295 l 2,32,33
EndSplineSet
Validated: 1048609
Substitution2: "'smcp' Lowercase to Small Capitals in Latin lookup 28 subtable" b.sc
Substitution2: "'aalt' Access All Alternates in Latin lookup 0 subtable" b.sc
EndChar

StartChar: c
Encoding: 99 99 70
Width: 1067
GlyphClass: 2
Flags: W
AnchorPoint: "Anchor-8" 596 1047 basechar 0
AnchorPoint: "Anchor-6" 592 0 basechar 0
LayerCount: 2
Fore
SplineSet
580 -31 m 0,0,1
 370 -31 370 -31 231 118 c 128,-1,2
 92 267 92 267 92 514 c 0,3,4
 92 767 92 767 233.5 921 c 128,-1,5
 375 1075 375 1075 598 1075 c 0,6,7
 758 1075 758 1075 871.5 997.5 c 128,-1,8
 985 920 985 920 985 801 c 0,9,10
 985 736 985 736 950 692.5 c 128,-1,11
 915 649 915 649 850 649 c 0,12,13
 789 649 789 649 752 690 c 128,-1,14
 715 731 715 731 715 797 c 0,15,16
 715 814 715 814 718 844.5 c 128,-1,17
 721 875 721 875 721 885 c 0,18,19
 721 979 721 979 592 979 c 0,20,21
 455 979 455 979 374 884.5 c 128,-1,22
 293 790 293 790 293 604 c 0,23,24
 293 400 293 400 393.5 281 c 128,-1,25
 494 162 494 162 672 162 c 0,26,27
 735 162 735 162 786.5 178 c 128,-1,28
 838 194 838 194 863.5 213 c 128,-1,29
 889 232 889 232 911.5 248 c 128,-1,30
 934 264 934 264 948 264 c 0,31,32
 975 264 975 264 975 227 c 0,33,34
 975 188 975 188 946 143.5 c 128,-1,35
 917 99 917 99 867.5 60 c 128,-1,36
 818 21 818 21 741.5 -5 c 128,-1,37
 665 -31 665 -31 580 -31 c 0,0,1
EndSplineSet
Validated: 1048577
Substitution2: "'smcp' Lowercase to Small Capitals in Latin lookup 28 subtable" c.sc
Substitution2: "'aalt' Access All Alternates in Latin lookup 0 subtable" c.sc
EndChar

StartChar: d
Encoding: 100 100 71
Width: 1208
GlyphClass: 2
Flags: W
AnchorPoint: "Anchor-9" 614 489 basechar 0
AnchorPoint: "Anchor-8" 614 1583 basechar 0
AnchorPoint: "Anchor-6" 614 0 basechar 0
LayerCount: 2
Fore
SplineSet
506 -31 m 0,0,1
 325 -31 325 -31 209.5 106 c 128,-1,2
 94 243 94 243 94 479 c 0,3,4
 94 641 94 641 154.5 771.5 c 128,-1,5
 215 902 215 902 331 978.5 c 128,-1,6
 447 1055 447 1055 600 1055 c 0,7,8
 712 1055 712 1055 799 1012 c 1,9,-1
 799 1204 l 2,10,11
 799 1231 799 1231 781 1247.5 c 128,-1,12
 763 1264 763 1264 741.5 1270.5 c 128,-1,13
 720 1277 720 1277 702 1291 c 128,-1,14
 684 1305 684 1305 684 1327 c 0,15,16
 684 1356 684 1356 719 1372 c 2,17,-1
 948 1485 l 2,18,19
 982 1502 982 1502 1003 1493.5 c 128,-1,20
 1024 1485 1024 1485 1024 1454 c 2,21,-1
 1024 236 l 2,22,23
 1024 210 1024 210 1041.5 193.5 c 128,-1,24
 1059 177 1059 177 1080.5 171 c 128,-1,25
 1102 165 1102 165 1119.5 151.5 c 128,-1,26
 1137 138 1137 138 1137 117 c 0,27,28
 1137 88 1137 88 1104 74 c 2,29,-1
 872 -23 l 2,30,31
 838 -37 838 -37 818.5 -26.5 c 128,-1,32
 799 -16 799 -16 799 16 c 2,33,-1
 799 98 l 1,34,35
 749 33 749 33 671.5 1 c 128,-1,36
 594 -31 594 -31 506 -31 c 0,0,1
328 565 m 0,37,38
 328 345 328 345 407.5 235 c 128,-1,39
 487 125 487 125 616 125 c 0,40,41
 704 125 704 125 799 186 c 1,42,-1
 799 758 l 2,43,44
 799 958 799 958 606 958 c 0,45,46
 473 958 473 958 400.5 858.5 c 128,-1,47
 328 759 328 759 328 565 c 0,37,38
EndSplineSet
Validated: 1048577
Substitution2: "'smcp' Lowercase to Small Capitals in Latin lookup 28 subtable" d.sc
Substitution2: "'aalt' Access All Alternates in Latin lookup 0 subtable" d.sc
EndChar

StartChar: e
Encoding: 101 101 72
Width: 1097
GlyphClass: 2
Flags: W
AnchorPoint: "Anchor-8" 567 1047 basechar 0
AnchorPoint: "Anchor-7" 985 20 basechar 0
AnchorPoint: "Anchor-6" 551 0 basechar 0
LayerCount: 2
Fore
SplineSet
594 -31 m 0,0,1
 487 -31 487 -31 395 8 c 128,-1,2
 303 47 303 47 236 117.5 c 128,-1,3
 169 188 169 188 130.5 294 c 128,-1,4
 92 400 92 400 92 528 c 0,5,6
 92 774 92 774 227.5 924.5 c 128,-1,7
 363 1075 363 1075 580 1075 c 0,8,9
 674 1075 674 1075 754 1044.5 c 128,-1,10
 834 1014 834 1014 885.5 963 c 128,-1,11
 937 912 937 912 966 848 c 128,-1,12
 995 784 995 784 995 715 c 0,13,14
 995 651 995 651 970.5 624.5 c 128,-1,15
 946 598 946 598 897 598 c 2,16,-1
 301 598 l 1,17,18
 305 387 305 387 403 270.5 c 128,-1,19
 501 154 501 154 664 154 c 0,20,21
 733 154 733 154 791.5 175 c 128,-1,22
 850 196 850 196 880.5 220.5 c 128,-1,23
 911 245 911 245 939 266 c 128,-1,24
 967 287 967 287 983 287 c 0,25,26
 1006 287 1006 287 1006 254 c 0,27,28
 1006 232 1006 232 995 205 c 0,29,30
 955 102 955 102 847.5 35.5 c 128,-1,31
 740 -31 740 -31 594 -31 c 0,0,1
303 696 m 1,32,-1
 711 696 l 2,33,34
 772 696 772 696 772 752 c 0,35,36
 772 849 772 849 721 914 c 128,-1,37
 670 979 670 979 563 979 c 0,38,39
 453 979 453 979 382.5 905 c 128,-1,40
 312 831 312 831 303 696 c 1,32,-1
EndSplineSet
Validated: 1048577
Substitution2: "'smcp' Lowercase to Small Capitals in Latin lookup 28 subtable" e.sc
Substitution2: "'aalt' Access All Alternates in Latin lookup 0 subtable" e.sc
EndChar

StartChar: f
Encoding: 102 102 73
Width: 741
GlyphClass: 2
Flags: W
AnchorPoint: "Anchor-8" 371 1673 basechar 0
AnchorPoint: "Anchor-6" 371 0 basechar 0
LayerCount: 2
Fore
SplineSet
166 0 m 2,0,1
 148 0 148 0 136.5 10.5 c 128,-1,2
 125 21 125 21 125 35 c 0,3,4
 125 53 125 53 140 67 c 128,-1,5
 155 81 155 81 173 88 c 128,-1,6
 191 95 191 95 206 109 c 128,-1,7
 221 123 221 123 221 141 c 2,8,-1
 221 946 l 1,9,-1
 86 946 l 2,10,11
 47 946 47 946 47 981 c 2,12,-1
 47 1012 l 2,13,14
 47 1047 47 1047 86 1047 c 2,15,-1
 215 1047 l 1,16,-1
 199 1155 l 2,17,18
 175 1310 175 1310 251.5 1402.5 c 128,-1,19
 328 1495 328 1495 457 1495 c 0,20,21
 563 1495 563 1495 641 1431.5 c 128,-1,22
 719 1368 719 1368 719 1284 c 0,23,24
 719 1233 719 1233 689 1201 c 128,-1,25
 659 1169 659 1169 606 1169 c 0,26,27
 564 1169 564 1169 538.5 1191.5 c 128,-1,28
 513 1214 513 1214 502 1246.5 c 128,-1,29
 491 1279 491 1279 482 1311.5 c 128,-1,30
 473 1344 473 1344 455 1366.5 c 128,-1,31
 437 1389 437 1389 406 1389 c 0,32,33
 357 1389 357 1389 339.5 1341.5 c 128,-1,34
 322 1294 322 1294 354 1212 c 2,35,-1
 426 1047 l 1,36,-1
 682 1047 l 2,37,38
 719 1047 719 1047 719 1012 c 2,39,-1
 719 981 l 2,40,41
 719 946 719 946 682 946 c 2,42,-1
 444 946 l 1,43,-1
 444 141 l 2,44,45
 444 123 444 123 459 109 c 128,-1,46
 474 95 474 95 491.5 88 c 128,-1,47
 509 81 509 81 524 67 c 128,-1,48
 539 53 539 53 539 35 c 0,49,50
 539 21 539 21 526.5 10.5 c 128,-1,51
 514 0 514 0 494 0 c 2,52,-1
 166 0 l 2,0,1
EndSplineSet
Validated: 1048609
Substitution2: "'smcp' Lowercase to Small Capitals in Latin lookup 28 subtable" f.sc
Substitution2: "'aalt' Access All Alternates in Latin lookup 0 subtable" f.sc
EndChar

StartChar: g
Encoding: 103 103 74
Width: 1095
GlyphClass: 2
Flags: W
AnchorPoint: "Anchor-8" 547 1047 basechar 0
AnchorPoint: "Anchor-6" 545 -352 basechar 0
LayerCount: 2
Fore
SplineSet
498 -362 m 0,0,1
 292 -362 292 -362 181 -299 c 128,-1,2
 70 -236 70 -236 70 -139 c 0,3,4
 70 -68 70 -68 134.5 -4 c 128,-1,5
 199 60 199 60 336 100 c 1,6,-1
 309 104 l 2,7,8
 222 117 222 117 176.5 162 c 128,-1,9
 131 207 131 207 131 262 c 0,10,11
 131 316 131 316 175 358.5 c 128,-1,12
 219 401 219 401 295 420 c 1,13,14
 203 465 203 465 150.5 539.5 c 128,-1,15
 98 614 98 614 98 707 c 0,16,17
 98 808 98 808 158.5 886.5 c 128,-1,18
 219 965 219 965 320 1006 c 128,-1,19
 421 1047 421 1047 543 1047 c 2,20,-1
 999 1047 l 2,21,22
 1028 1047 1028 1047 1031.5 1024 c 128,-1,23
 1035 1001 1035 1001 1010 989 c 2,24,-1
 897 936 l 2,25,26
 869 923 869 923 889 893 c 1,27,28
 956 817 956 817 956 707 c 0,29,30
 956 560 956 560 831.5 465.5 c 128,-1,31
 707 371 707 371 532 371 c 0,32,33
 490 371 490 371 420 379 c 0,34,35
 375 386 375 386 351 362 c 128,-1,36
 327 338 327 338 340.5 308.5 c 128,-1,37
 354 279 354 279 399 272 c 2,38,-1
 725 225 l 2,39,40
 884 202 884 202 957 129.5 c 128,-1,41
 1030 57 1030 57 1030 -45 c 0,42,43
 1030 -192 1030 -192 890 -277 c 128,-1,44
 750 -362 750 -362 498 -362 c 0,0,1
293 -106 m 0,45,46
 293 -187 293 -187 356 -234 c 128,-1,47
 419 -281 419 -281 543 -281 c 0,48,49
 670 -281 670 -281 741.5 -227.5 c 128,-1,50
 813 -174 813 -174 813 -90 c 0,51,52
 813 -35 813 -35 773 4 c 128,-1,53
 733 43 733 43 625 59 c 2,54,-1
 438 86 l 1,55,56
 293 25 293 25 293 -106 c 0,45,46
334 696 m 2,57,58
 334 582 334 582 383.5 523.5 c 128,-1,59
 433 465 433 465 528 465 c 0,60,61
 622 465 622 465 671.5 523.5 c 128,-1,62
 721 582 721 582 721 696 c 2,63,-1
 721 727 l 2,64,65
 721 834 721 834 671 894 c 128,-1,66
 621 954 621 954 528 954 c 0,67,68
 434 954 434 954 384 894 c 128,-1,69
 334 834 334 834 334 727 c 2,70,-1
 334 696 l 2,57,58
EndSplineSet
Validated: 1048609
Substitution2: "'smcp' Lowercase to Small Capitals in Latin lookup 28 subtable" g.sc
Substitution2: "'aalt' Access All Alternates in Latin lookup 0 subtable" g.sc
EndChar

StartChar: h
Encoding: 104 104 75
Width: 1249
GlyphClass: 2
Flags: W
AnchorPoint: "Anchor-9" 311 1159 basechar 0
AnchorPoint: "Anchor-8" 319 1464 basechar 0
AnchorPoint: "Anchor-6" 610 0 basechar 0
LayerCount: 2
Fore
SplineSet
131 0 m 2,0,1
 112 0 112 0 101 10.5 c 128,-1,2
 90 21 90 21 90 35 c 0,3,4
 90 53 90 53 104.5 67 c 128,-1,5
 119 81 119 81 137 88 c 128,-1,6
 155 95 155 95 169.5 109 c 128,-1,7
 184 123 184 123 184 141 c 2,8,-1
 184 1212 l 2,9,10
 184 1236 184 1236 166.5 1252 c 128,-1,11
 149 1268 149 1268 128 1275 c 128,-1,12
 107 1282 107 1282 89.5 1295 c 128,-1,13
 72 1308 72 1308 72 1327 c 0,14,15
 72 1352 72 1352 104 1368 c 2,16,-1
 336 1485 l 2,17,18
 362 1499 362 1499 386 1489.5 c 128,-1,19
 410 1480 410 1480 410 1448 c 2,20,-1
 410 940 l 1,21,22
 516 1000 516 1000 628 1037.5 c 128,-1,23
 740 1075 740 1075 834 1075 c 0,24,25
 956 1075 956 1075 1013.5 1005 c 128,-1,26
 1071 935 1071 935 1071 797 c 2,27,-1
 1071 141 l 2,28,29
 1071 123 1071 123 1085.5 109 c 128,-1,30
 1100 95 1100 95 1118 87.5 c 128,-1,31
 1136 80 1136 80 1150.5 66.5 c 128,-1,32
 1165 53 1165 53 1165 35 c 0,33,34
 1165 21 1165 21 1153.5 10.5 c 128,-1,35
 1142 0 1142 0 1124 0 c 2,36,-1
 795 0 l 2,37,38
 777 0 777 0 765.5 10.5 c 128,-1,39
 754 21 754 21 754 35 c 0,40,41
 754 53 754 53 768.5 67 c 128,-1,42
 783 81 783 81 801 88 c 128,-1,43
 819 95 819 95 833.5 109 c 128,-1,44
 848 123 848 123 848 141 c 2,45,-1
 848 692 l 2,46,47
 848 812 848 812 807 863.5 c 128,-1,48
 766 915 766 915 670 915 c 0,49,50
 558 915 558 915 410 850 c 1,51,-1
 410 141 l 2,52,53
 410 123 410 123 424 109 c 128,-1,54
 438 95 438 95 455 88 c 128,-1,55
 472 81 472 81 486 67 c 128,-1,56
 500 53 500 53 500 35 c 0,57,58
 500 21 500 21 489 10.5 c 128,-1,59
 478 0 478 0 459 0 c 2,60,-1
 131 0 l 2,0,1
EndSplineSet
Validated: 1048577
Substitution2: "'smcp' Lowercase to Small Capitals in Latin lookup 28 subtable" h.sc
Substitution2: "'aalt' Access All Alternates in Latin lookup 0 subtable" h.sc
EndChar

StartChar: i
Encoding: 105 105 76
Width: 606
GlyphClass: 2
Flags: W
AnchorPoint: "Anchor-6" 305 0 basechar 0
LayerCount: 2
Fore
SplineSet
145 0 m 2,0,1
 127 0 127 0 115.5 10.5 c 128,-1,2
 104 21 104 21 104 35 c 0,3,4
 104 53 104 53 119 67 c 128,-1,5
 134 81 134 81 152.5 88 c 128,-1,6
 171 95 171 95 186 109 c 128,-1,7
 201 123 201 123 201 141 c 2,8,-1
 201 795 l 2,9,10
 201 820 201 820 183 835.5 c 128,-1,11
 165 851 165 851 143.5 857 c 128,-1,12
 122 863 122 863 104 876 c 128,-1,13
 86 889 86 889 86 909 c 0,14,15
 86 934 86 934 119 950 c 2,16,-1
 348 1065 l 2,17,18
 382 1082 382 1082 403 1071.5 c 128,-1,19
 424 1061 424 1061 424 1028 c 2,20,-1
 424 141 l 2,21,22
 424 123 424 123 438.5 109 c 128,-1,23
 453 95 453 95 471 88 c 128,-1,24
 489 81 489 81 503.5 67 c 128,-1,25
 518 53 518 53 518 35 c 0,26,27
 518 21 518 21 504.5 10.5 c 128,-1,28
 491 0 491 0 473 0 c 2,29,-1
 145 0 l 2,0,1
158 1311 m 128,-1,31
 158 1369 158 1369 200 1409.5 c 128,-1,32
 242 1450 242 1450 301 1450 c 128,-1,33
 360 1450 360 1450 402 1409.5 c 128,-1,34
 444 1369 444 1369 444 1311 c 128,-1,35
 444 1253 444 1253 402 1213.5 c 128,-1,36
 360 1174 360 1174 301 1174 c 128,-1,37
 242 1174 242 1174 200 1213.5 c 128,-1,30
 158 1253 158 1253 158 1311 c 128,-1,31
EndSplineSet
Validated: 1048577
Substitution2: "Single Substitution lookup 34 subtable" dotlessi
Substitution2: "'smcp' Lowercase to Small Capitals in Latin lookup 28 subtable" i.sc
Substitution2: "'locl' Localized Forms in Latin lookup 9 subtable" i.loclTRK
Substitution2: "'locl' Localized Forms in Latin lookup 8 subtable" i.loclTRK
Substitution2: "'locl' Localized Forms in Latin lookup 7 subtable" i.loclTRK
Substitution2: "'locl' Localized Forms in Latin lookup 6 subtable" i.loclTRK
Substitution2: "'locl' Localized Forms in Latin lookup 5 subtable" i.loclTRK
AlternateSubs2: "'aalt' Access All Alternates in Latin lookup 1 subtable" i.loclTRK i.sc
EndChar

StartChar: j
Encoding: 106 106 77
Width: 577
GlyphClass: 2
Flags: W
AnchorPoint: "Anchor-8" 270 1489 basechar 0
AnchorPoint: "Anchor-6" 270 -414 basechar 0
LayerCount: 2
Fore
SplineSet
53 -438 m 0,0,1
 -61 -438 -61 -438 -131 -384.5 c 128,-1,2
 -201 -331 -201 -331 -201 -254 c 0,3,4
 -201 -203 -201 -203 -167 -167 c 128,-1,5
 -133 -131 -133 -131 -76 -131 c 0,6,7
 -34 -131 -34 -131 -4.5 -152.5 c 128,-1,8
 25 -174 25 -174 40 -204 c 128,-1,9
 55 -234 55 -234 67.5 -264.5 c 128,-1,10
 80 -295 80 -295 95.5 -316.5 c 128,-1,11
 111 -338 111 -338 133 -338 c 0,12,13
 190 -338 190 -338 190 -178 c 2,14,-1
 190 795 l 2,15,16
 190 820 190 820 172.5 835.5 c 128,-1,17
 155 851 155 851 134 857 c 128,-1,18
 113 863 113 863 95.5 876 c 128,-1,19
 78 889 78 889 78 909 c 0,20,21
 78 936 78 936 111 950 c 2,22,-1
 338 1065 l 2,23,24
 372 1082 372 1082 393 1070.5 c 128,-1,25
 414 1059 414 1059 414 1028 c 2,26,-1
 414 -2 l 2,27,28
 414 -204 414 -204 315 -321 c 128,-1,29
 216 -438 216 -438 53 -438 c 0,0,1
127 1311 m 128,-1,31
 127 1369 127 1369 169 1409.5 c 128,-1,32
 211 1450 211 1450 270 1450 c 128,-1,33
 329 1450 329 1450 371.5 1409.5 c 128,-1,34
 414 1369 414 1369 414 1311 c 128,-1,35
 414 1253 414 1253 371.5 1213.5 c 128,-1,36
 329 1174 329 1174 270 1174 c 128,-1,37
 211 1174 211 1174 169 1213.5 c 128,-1,30
 127 1253 127 1253 127 1311 c 128,-1,31
EndSplineSet
Validated: 1048577
Substitution2: "Single Substitution lookup 36 subtable" uni006A0301
Substitution2: "Single Substitution lookup 34 subtable" uni0237
Substitution2: "'smcp' Lowercase to Small Capitals in Latin lookup 28 subtable" j.sc
AlternateSubs2: "'aalt' Access All Alternates in Latin lookup 1 subtable" uni006A0301 j.sc
EndChar

StartChar: k
Encoding: 107 107 78
Width: 1128
GlyphClass: 2
Flags: W
AnchorPoint: "Anchor-8" 571 1673 basechar 0
AnchorPoint: "Anchor-6" 571 0 basechar 0
LayerCount: 2
Fore
SplineSet
131 0 m 2,0,1
 112 0 112 0 101 10.5 c 128,-1,2
 90 21 90 21 90 35 c 0,3,4
 90 53 90 53 104.5 66.5 c 128,-1,5
 119 80 119 80 137 87.5 c 128,-1,6
 155 95 155 95 169.5 109 c 128,-1,7
 184 123 184 123 184 141 c 2,8,-1
 184 1214 l 2,9,10
 184 1238 184 1238 166.5 1254 c 128,-1,11
 149 1270 149 1270 128 1277 c 128,-1,12
 107 1284 107 1284 89.5 1297 c 128,-1,13
 72 1310 72 1310 72 1329 c 0,14,15
 72 1354 72 1354 104 1370 c 2,16,-1
 336 1485 l 2,17,18
 364 1500 364 1500 387 1491 c 128,-1,19
 410 1482 410 1482 410 1450 c 2,20,-1
 410 610 l 1,21,-1
 678 831 l 2,22,23
 699 848 699 848 707.5 862 c 128,-1,24
 716 876 716 876 713 899 c 2,25,-1
 702 1006 l 2,26,27
 699 1047 699 1047 735 1047 c 2,28,-1
 1028 1047 l 2,29,30
 1048 1047 1048 1047 1058.5 1037.5 c 128,-1,31
 1069 1028 1069 1028 1069 1012 c 0,32,33
 1069 983 1069 983 1036 965 c 2,34,-1
 831 838 l 1,35,-1
 604 645 l 1,36,-1
 963 184 l 2,37,38
 990 149 990 149 1030 121 c 128,-1,39
 1070 93 1070 93 1093 75.5 c 128,-1,40
 1116 58 1116 58 1116 37 c 0,41,42
 1116 0 1116 0 1073 0 c 2,43,-1
 733 0 l 2,44,45
 712 0 712 0 700 11.5 c 128,-1,46
 688 23 688 23 688 39 c 0,47,48
 688 58 688 58 709.5 80.5 c 128,-1,49
 731 103 731 103 731 119 c 0,50,51
 731 133 731 133 713 158 c 2,52,-1
 410 553 l 1,53,-1
 410 141 l 2,54,55
 410 123 410 123 424 109 c 128,-1,56
 438 95 438 95 455 87.5 c 128,-1,57
 472 80 472 80 486 66.5 c 128,-1,58
 500 53 500 53 500 35 c 0,59,60
 500 21 500 21 489 10.5 c 128,-1,61
 478 0 478 0 459 0 c 2,62,-1
 131 0 l 2,0,1
EndSplineSet
Validated: 1048577
Substitution2: "'smcp' Lowercase to Small Capitals in Latin lookup 28 subtable" k.sc
Substitution2: "'aalt' Access All Alternates in Latin lookup 0 subtable" k.sc
EndChar

StartChar: l
Encoding: 108 108 79
Width: 591
GlyphClass: 2
Flags: W
AnchorPoint: "Anchor-9" 276 836 basechar 0
AnchorPoint: "Anchor-8" 283 1464 basechar 0
AnchorPoint: "Anchor-6" 276 0 basechar 0
LayerCount: 2
Fore
SplineSet
131 0 m 2,0,1
 112 0 112 0 101 10.5 c 128,-1,2
 90 21 90 21 90 35 c 0,3,4
 90 53 90 53 104.5 66 c 128,-1,5
 119 79 119 79 137 86.5 c 128,-1,6
 155 94 155 94 169.5 108 c 128,-1,7
 184 122 184 122 184 141 c 2,8,-1
 184 1208 l 2,9,10
 184 1234 184 1234 166.5 1251.5 c 128,-1,11
 149 1269 149 1269 128 1276.5 c 128,-1,12
 107 1284 107 1284 89.5 1297 c 128,-1,13
 72 1310 72 1310 72 1329 c 0,14,15
 72 1356 72 1356 104 1370 c 2,16,-1
 330 1485 l 2,17,18
 359 1501 359 1501 383.5 1491.5 c 128,-1,19
 408 1482 408 1482 408 1450 c 2,20,-1
 408 141 l 2,21,22
 408 123 408 123 422.5 109 c 128,-1,23
 437 95 437 95 454 88 c 128,-1,24
 471 81 471 81 485.5 67 c 128,-1,25
 500 53 500 53 500 35 c 0,26,27
 500 21 500 21 489 10.5 c 128,-1,28
 478 0 478 0 459 0 c 2,29,-1
 131 0 l 2,0,1
EndSplineSet
Validated: 1048577
Substitution2: "'smcp' Lowercase to Small Capitals in Latin lookup 28 subtable" l.sc
Substitution2: "'aalt' Access All Alternates in Latin lookup 0 subtable" l.sc
EndChar

StartChar: m
Encoding: 109 109 80
Width: 1857
GlyphClass: 2
Flags: W
AnchorPoint: "Anchor-8" 936 1047 basechar 0
AnchorPoint: "Anchor-6" 936 0 basechar 0
LayerCount: 2
Fore
SplineSet
1403 0 m 2,0,1
 1385 0 1385 0 1373.5 10.5 c 128,-1,2
 1362 21 1362 21 1362 35 c 0,3,4
 1362 52 1362 52 1377 65.5 c 128,-1,5
 1392 79 1392 79 1410 86.5 c 128,-1,6
 1428 94 1428 94 1443 106.5 c 128,-1,7
 1458 119 1458 119 1458 135 c 2,8,-1
 1458 707 l 2,9,10
 1458 831 1458 831 1414.5 883.5 c 128,-1,11
 1371 936 1371 936 1268 936 c 0,12,13
 1159 936 1159 936 1042 879 c 1,14,15
 1051 832 1051 832 1051 774 c 2,16,-1
 1051 135 l 2,17,18
 1051 120 1051 120 1065.5 108 c 128,-1,19
 1080 96 1080 96 1098 88.5 c 128,-1,20
 1116 81 1116 81 1130.5 67 c 128,-1,21
 1145 53 1145 53 1145 35 c 0,22,23
 1145 21 1145 21 1133.5 10.5 c 128,-1,24
 1122 0 1122 0 1104 0 c 2,25,-1
 776 0 l 2,26,27
 756 0 756 0 743.5 10.5 c 128,-1,28
 731 21 731 21 731 35 c 0,29,30
 731 52 731 52 746 65.5 c 128,-1,31
 761 79 761 79 779 86.5 c 128,-1,32
 797 94 797 94 812 106.5 c 128,-1,33
 827 119 827 119 827 135 c 2,34,-1
 827 707 l 2,35,36
 827 831 827 831 785 883.5 c 128,-1,37
 743 936 743 936 643 936 c 0,38,39
 544 936 544 936 424 879 c 1,40,-1
 424 135 l 2,41,42
 424 120 424 120 438.5 108 c 128,-1,43
 453 96 453 96 470 88.5 c 128,-1,44
 487 81 487 81 501.5 67 c 128,-1,45
 516 53 516 53 516 35 c 0,46,47
 516 21 516 21 504 10.5 c 128,-1,48
 492 0 492 0 473 0 c 2,49,-1
 145 0 l 2,50,51
 126 0 126 0 115 10.5 c 128,-1,52
 104 21 104 21 104 35 c 0,53,54
 104 52 104 52 119 65.5 c 128,-1,55
 134 79 134 79 151.5 86.5 c 128,-1,56
 169 94 169 94 184 106.5 c 128,-1,57
 199 119 199 119 199 135 c 2,58,-1
 199 793 l 2,59,60
 199 817 199 817 181.5 833 c 128,-1,61
 164 849 164 849 142.5 855.5 c 128,-1,62
 121 862 121 862 103.5 875 c 128,-1,63
 86 888 86 888 86 907 c 0,64,65
 86 934 86 934 123 952 c 2,66,-1
 348 1065 l 2,67,68
 380 1082 380 1082 402 1071 c 128,-1,69
 424 1060 424 1060 424 1028 c 2,70,-1
 424 963 l 1,71,72
 618 1075 618 1075 791 1075 c 0,73,74
 963 1075 963 1075 1020 952 c 1,75,76
 1214 1075 1214 1075 1415 1075 c 0,77,78
 1547 1075 1547 1075 1614 1004.5 c 128,-1,79
 1681 934 1681 934 1681 774 c 2,80,-1
 1681 135 l 2,81,82
 1681 120 1681 120 1696 108 c 128,-1,83
 1711 96 1711 96 1728.5 88.5 c 128,-1,84
 1746 81 1746 81 1761 67 c 128,-1,85
 1776 53 1776 53 1776 35 c 0,86,87
 1776 21 1776 21 1763.5 10.5 c 128,-1,88
 1751 0 1751 0 1733 0 c 2,89,-1
 1403 0 l 2,0,1
EndSplineSet
Validated: 1048577
Substitution2: "'smcp' Lowercase to Small Capitals in Latin lookup 28 subtable" m.sc
Substitution2: "'aalt' Access All Alternates in Latin lookup 0 subtable" m.sc
EndChar

StartChar: n
Encoding: 110 110 81
Width: 1263
GlyphClass: 2
Flags: W
AnchorPoint: "Anchor-8" 676 1047 basechar 0
AnchorPoint: "Anchor-6" 639 0 basechar 0
LayerCount: 2
Fore
SplineSet
811 0 m 2,0,1
 792 0 792 0 781 10.5 c 128,-1,2
 770 21 770 21 770 35 c 0,3,4
 770 53 770 53 784.5 66 c 128,-1,5
 799 79 799 79 817 86.5 c 128,-1,6
 835 94 835 94 849.5 106.5 c 128,-1,7
 864 119 864 119 864 135 c 2,8,-1
 864 698 l 2,9,10
 864 817 864 817 822.5 866 c 128,-1,11
 781 915 781 915 684 915 c 0,12,13
 561 915 561 915 424 852 c 1,14,-1
 424 135 l 2,15,16
 424 120 424 120 438.5 108 c 128,-1,17
 453 96 453 96 471 88.5 c 128,-1,18
 489 81 489 81 503.5 67 c 128,-1,19
 518 53 518 53 518 35 c 0,20,21
 518 21 518 21 506 10.5 c 128,-1,22
 494 0 494 0 475 0 c 2,23,-1
 145 0 l 2,24,25
 126 0 126 0 115 10.5 c 128,-1,26
 104 21 104 21 104 35 c 0,27,28
 104 52 104 52 119 65.5 c 128,-1,29
 134 79 134 79 151.5 86.5 c 128,-1,30
 169 94 169 94 184 106.5 c 128,-1,31
 199 119 199 119 199 135 c 2,32,-1
 199 793 l 2,33,34
 199 819 199 819 181.5 835.5 c 128,-1,35
 164 852 164 852 142.5 858 c 128,-1,36
 121 864 121 864 103.5 876.5 c 128,-1,37
 86 889 86 889 86 907 c 0,38,39
 86 932 86 932 119 948 c 2,40,-1
 348 1065 l 2,41,42
 376 1080 376 1080 400 1070.5 c 128,-1,43
 424 1061 424 1061 424 1028 c 2,44,-1
 424 938 l 1,45,46
 524 1001 524 1001 635.5 1038 c 128,-1,47
 747 1075 747 1075 840 1075 c 0,48,49
 1087 1075 1087 1075 1087 807 c 2,50,-1
 1087 135 l 2,51,52
 1087 120 1087 120 1101.5 107.5 c 128,-1,53
 1116 95 1116 95 1133.5 87.5 c 128,-1,54
 1151 80 1151 80 1165.5 66 c 128,-1,55
 1180 52 1180 52 1180 35 c 0,56,57
 1180 21 1180 21 1169 10.5 c 128,-1,58
 1158 0 1158 0 1139 0 c 2,59,-1
 811 0 l 2,0,1
EndSplineSet
Validated: 1048577
Substitution2: "'smcp' Lowercase to Small Capitals in Latin lookup 28 subtable" n.sc
Substitution2: "'aalt' Access All Alternates in Latin lookup 0 subtable" n.sc
EndChar

StartChar: o
Encoding: 111 111 82
Width: 1222
GlyphClass: 2
Flags: W
AnchorPoint: "Anchor-9" 610 520 basechar 0
AnchorPoint: "Anchor-8" 610 1047 basechar 0
AnchorPoint: "Anchor-7" 1098 20 basechar 0
AnchorPoint: "Anchor-6" 610 0 basechar 0
LayerCount: 2
Fore
SplineSet
610 -31 m 128,-1,1
 385 -31 385 -31 237.5 122.5 c 128,-1,2
 90 276 90 276 90 522 c 0,3,4
 90 770 90 770 237 922.5 c 128,-1,5
 384 1075 384 1075 610 1075 c 128,-1,6
 836 1075 836 1075 983 922.5 c 128,-1,7
 1130 770 1130 770 1130 522 c 0,8,9
 1130 276 1130 276 982.5 122.5 c 128,-1,0
 835 -31 835 -31 610 -31 c 128,-1,1
348 459 m 2,10,11
 348 272 348 272 417 171 c 128,-1,12
 486 70 486 70 610 70 c 0,13,14
 735 70 735 70 803.5 171 c 128,-1,15
 872 272 872 272 872 461 c 2,16,-1
 872 586 l 2,17,18
 872 783 872 783 804.5 880 c 128,-1,19
 737 977 737 977 610 977 c 0,20,21
 484 977 484 977 416 880 c 128,-1,22
 348 783 348 783 348 586 c 2,23,-1
 348 459 l 2,10,11
EndSplineSet
Validated: 1
Substitution2: "Single Substitution lookup 38 subtable" ordmasculine
Substitution2: "'smcp' Lowercase to Small Capitals in Latin lookup 28 subtable" o.sc
AlternateSubs2: "'aalt' Access All Alternates in Latin lookup 1 subtable" ordmasculine o.sc
EndChar

StartChar: p
Encoding: 112 112 83
Width: 1191
GlyphClass: 2
Flags: W
AnchorPoint: "Anchor-8" 594 1047 basechar 0
AnchorPoint: "Anchor-6" 594 0 basechar 0
LayerCount: 2
Fore
SplineSet
135 -356 m 2,0,1
 92 -356 92 -356 92 -319 c 0,2,3
 92 -303 92 -303 107 -290 c 128,-1,4
 122 -277 122 -277 140 -269 c 128,-1,5
 158 -261 158 -261 173 -246.5 c 128,-1,6
 188 -232 188 -232 188 -213 c 2,7,-1
 188 791 l 2,8,9
 188 819 188 819 170.5 836 c 128,-1,10
 153 853 153 853 132 859 c 128,-1,11
 111 865 111 865 93.5 877 c 128,-1,12
 76 889 76 889 76 907 c 0,13,14
 76 931 76 931 109 948 c 2,15,-1
 338 1065 l 2,16,17
 370 1082 370 1082 391 1070.5 c 128,-1,18
 412 1059 412 1059 412 1028 c 2,19,-1
 412 965 l 1,20,21
 564 1075 564 1075 725 1075 c 0,22,23
 899 1075 899 1075 998.5 947.5 c 128,-1,24
 1098 820 1098 820 1098 590 c 0,25,26
 1098 318 1098 318 965.5 156 c 128,-1,27
 833 -6 833 -6 618 -6 c 0,28,29
 509 -6 509 -6 412 47 c 1,30,-1
 412 -213 l 2,31,32
 412 -231 412 -231 426.5 -245 c 128,-1,33
 441 -259 441 -259 458 -266.5 c 128,-1,34
 475 -274 475 -274 489.5 -287.5 c 128,-1,35
 504 -301 504 -301 504 -319 c 0,36,37
 504 -336 504 -336 493 -346 c 128,-1,38
 482 -356 482 -356 463 -356 c 2,39,-1
 135 -356 l 2,0,1
412 324 m 2,40,41
 412 214 412 214 461.5 153 c 128,-1,42
 511 92 511 92 600 92 c 0,43,44
 722 92 722 92 793 202 c 128,-1,45
 864 312 864 312 864 516 c 0,46,47
 864 924 864 924 590 924 c 0,48,49
 503 924 503 924 412 872 c 1,50,-1
 412 324 l 2,40,41
EndSplineSet
Validated: 1048577
Substitution2: "'smcp' Lowercase to Small Capitals in Latin lookup 28 subtable" p.sc
Substitution2: "'aalt' Access All Alternates in Latin lookup 0 subtable" p.sc
EndChar

StartChar: q
Encoding: 113 113 84
Width: 1163
GlyphClass: 2
Flags: W
AnchorPoint: "Anchor-8" 590 1047 basechar 0
AnchorPoint: "Anchor-6" 590 0 basechar 0
LayerCount: 2
Fore
SplineSet
727 -356 m 2,0,1
 708 -356 708 -356 696 -344.5 c 128,-1,2
 684 -333 684 -333 684 -319 c 0,3,4
 684 -302 684 -302 699 -289 c 128,-1,5
 714 -276 714 -276 732 -269 c 128,-1,6
 750 -262 750 -262 765 -247.5 c 128,-1,7
 780 -233 780 -233 780 -213 c 2,8,-1
 780 106 l 1,9,10
 726 50 726 50 651 18 c 128,-1,11
 576 -14 576 -14 492 -14 c 0,12,13
 313 -14 313 -14 203.5 121.5 c 128,-1,14
 94 257 94 257 94 489 c 0,15,16
 94 624 94 624 133.5 736 c 128,-1,17
 173 848 173 848 241.5 921.5 c 128,-1,18
 310 995 310 995 399.5 1035 c 128,-1,19
 489 1075 489 1075 590 1075 c 0,20,21
 721 1075 721 1075 829 1001 c 0,22,23
 864 977 864 977 893 1006 c 2,24,-1
 944 1059 l 2,25,26
 966 1081 966 1081 985 1074.5 c 128,-1,27
 1004 1068 1004 1068 1004 1040 c 2,28,-1
 1004 -213 l 2,29,30
 1004 -232 1004 -232 1018.5 -246 c 128,-1,31
 1033 -260 1033 -260 1051 -267.5 c 128,-1,32
 1069 -275 1069 -275 1083.5 -288 c 128,-1,33
 1098 -301 1098 -301 1098 -319 c 0,34,35
 1098 -334 1098 -334 1086.5 -345 c 128,-1,36
 1075 -356 1075 -356 1055 -356 c 2,37,-1
 727 -356 l 2,0,1
328 553 m 0,38,39
 328 145 328 145 614 145 c 0,40,41
 696 145 696 145 780 197 c 1,42,-1
 780 758 l 2,43,44
 780 872 780 872 729.5 925.5 c 128,-1,45
 679 979 679 979 590 979 c 0,46,47
 467 979 467 979 397.5 875 c 128,-1,48
 328 771 328 771 328 553 c 0,38,39
EndSplineSet
Validated: 1048609
Substitution2: "'smcp' Lowercase to Small Capitals in Latin lookup 28 subtable" q.sc
Substitution2: "'aalt' Access All Alternates in Latin lookup 0 subtable" q.sc
EndChar

StartChar: r
Encoding: 114 114 85
Width: 892
GlyphClass: 2
Flags: W
AnchorPoint: "Anchor-8" 440 1047 basechar 0
AnchorPoint: "Anchor-6" 311 0 basechar 0
LayerCount: 2
Fore
SplineSet
145 0 m 2,0,1
 126 0 126 0 115 10.5 c 128,-1,2
 104 21 104 21 104 35 c 0,3,4
 104 52 104 52 119 65.5 c 128,-1,5
 134 79 134 79 151.5 86.5 c 128,-1,6
 169 94 169 94 184 106.5 c 128,-1,7
 199 119 199 119 199 135 c 2,8,-1
 199 793 l 2,9,10
 199 821 199 821 181.5 838 c 128,-1,11
 164 855 164 855 143.5 861 c 128,-1,12
 123 867 123 867 105.5 879 c 128,-1,13
 88 891 88 891 88 909 c 0,14,15
 88 936 88 936 119 952 c 2,16,-1
 344 1065 l 2,17,18
 373 1082 373 1082 398.5 1073 c 128,-1,19
 424 1064 424 1064 424 1030 c 2,20,-1
 424 899 l 1,21,22
 470 981 470 981 544.5 1028 c 128,-1,23
 619 1075 619 1075 702 1075 c 0,24,25
 777 1075 777 1075 821.5 1037.5 c 128,-1,26
 866 1000 866 1000 866 938 c 0,27,28
 866 882 866 882 831.5 850.5 c 128,-1,29
 797 819 797 819 743 819 c 0,30,31
 698 819 698 819 642.5 853 c 128,-1,32
 587 887 587 887 547 887 c 0,33,34
 491 887 491 887 457.5 847 c 128,-1,35
 424 807 424 807 424 735 c 2,36,-1
 424 135 l 2,37,38
 424 120 424 120 438.5 108 c 128,-1,39
 453 96 453 96 470 88.5 c 128,-1,40
 487 81 487 81 501.5 67 c 128,-1,41
 516 53 516 53 516 35 c 0,42,43
 516 21 516 21 504 10.5 c 128,-1,44
 492 0 492 0 473 0 c 2,45,-1
 145 0 l 2,0,1
EndSplineSet
Validated: 1048577
Substitution2: "'smcp' Lowercase to Small Capitals in Latin lookup 28 subtable" r.sc
Substitution2: "'aalt' Access All Alternates in Latin lookup 0 subtable" r.sc
EndChar

StartChar: s
Encoding: 115 115 86
Width: 937
GlyphClass: 2
Flags: W
AnchorPoint: "Anchor-8" 451 1047 basechar 0
AnchorPoint: "Anchor-6" 453 0 basechar 0
LayerCount: 2
Fore
SplineSet
477 -31 m 0,0,1
 381 -31 381 -31 296 -4 c 128,-1,2
 211 23 211 23 155.5 76 c 128,-1,3
 100 129 100 129 100 197 c 0,4,5
 100 243 100 243 127.5 272 c 128,-1,6
 155 301 155 301 199 301 c 0,7,8
 237 301 237 301 262.5 277 c 128,-1,9
 288 253 288 253 305 218.5 c 128,-1,10
 322 184 322 184 342 149 c 128,-1,11
 362 114 362 114 401 90 c 128,-1,12
 440 66 440 66 498 66 c 0,13,14
 572 66 572 66 614.5 105 c 128,-1,15
 657 144 657 144 657 211 c 128,-1,16
 657 278 657 278 603 332 c 128,-1,17
 549 386 549 386 410 442 c 0,18,19
 250 505 250 505 183.5 587 c 128,-1,20
 117 669 117 669 117 780 c 0,21,22
 117 921 117 921 212.5 998 c 128,-1,23
 308 1075 308 1075 465 1075 c 0,24,25
 554 1075 554 1075 633 1051 c 128,-1,26
 712 1027 712 1027 764.5 978 c 128,-1,27
 817 929 817 929 817 864 c 0,28,29
 817 821 817 821 794 795.5 c 128,-1,30
 771 770 771 770 731 770 c 0,31,32
 697 770 697 770 669.5 791.5 c 128,-1,33
 642 813 642 813 621.5 843.5 c 128,-1,34
 601 874 601 874 578.5 905 c 128,-1,35
 556 936 556 936 520 957.5 c 128,-1,36
 484 979 484 979 436 979 c 0,37,38
 368 979 368 979 329.5 943 c 128,-1,39
 291 907 291 907 291 846 c 0,40,41
 291 786 291 786 339.5 739 c 128,-1,42
 388 692 388 692 520 639 c 0,43,44
 596 609 596 609 653.5 574.5 c 128,-1,45
 711 540 711 540 745.5 506 c 128,-1,46
 780 472 780 472 801.5 433 c 128,-1,47
 823 394 823 394 830.5 359.5 c 128,-1,48
 838 325 838 325 838 285 c 0,49,50
 838 134 838 134 739 51.5 c 128,-1,51
 640 -31 640 -31 477 -31 c 0,0,1
EndSplineSet
Validated: 1048577
Substitution2: "'smcp' Lowercase to Small Capitals in Latin lookup 28 subtable" s.sc
Substitution2: "'aalt' Access All Alternates in Latin lookup 0 subtable" s.sc
EndChar

StartChar: t
Encoding: 116 116 87
Width: 804
GlyphClass: 2
Flags: W
AnchorPoint: "Anchor-9" 393 530 basechar 0
AnchorPoint: "Anchor-8" 393 1047 basechar 0
AnchorPoint: "Anchor-6" 457 0 basechar 0
LayerCount: 2
Fore
SplineSet
459 -31 m 0,0,1
 211 -31 211 -31 211 227 c 2,2,-1
 211 901 l 2,3,4
 211 958 211 958 152 958 c 2,5,-1
 82 958 l 2,6,7
 41 958 41 958 31 986 c 128,-1,8
 21 1014 21 1014 53 1040 c 2,9,-1
 362 1292 l 2,10,11
 390 1315 390 1315 412 1306 c 128,-1,12
 434 1297 434 1297 434 1262 c 2,13,-1
 434 1047 l 1,14,-1
 748 1047 l 2,15,16
 784 1047 784 1047 784 1012 c 2,17,-1
 784 981 l 2,18,19
 784 946 784 946 748 946 c 2,20,-1
 434 946 l 1,21,-1
 434 229 l 2,22,23
 434 160 434 160 465 131 c 128,-1,24
 496 102 496 102 567 102 c 0,25,26
 617 102 617 102 668 113.5 c 128,-1,27
 719 125 719 125 725 125 c 0,28,29
 754 125 754 125 754 100 c 0,30,31
 754 71 754 71 712 40.5 c 128,-1,32
 670 10 670 10 600.5 -10.5 c 128,-1,33
 531 -31 531 -31 459 -31 c 0,0,1
EndSplineSet
Validated: 1048577
Substitution2: "'smcp' Lowercase to Small Capitals in Latin lookup 28 subtable" t.sc
Substitution2: "'aalt' Access All Alternates in Latin lookup 0 subtable" t.sc
EndChar

StartChar: u
Encoding: 117 117 88
Width: 1245
GlyphClass: 2
Flags: W
AnchorPoint: "Anchor-8" 621 1047 basechar 0
AnchorPoint: "Anchor-7" 1137 20 basechar 0
AnchorPoint: "Anchor-6" 633 0 basechar 0
LayerCount: 2
Fore
SplineSet
479 -31 m 0,0,1
 342 -31 342 -31 265 47 c 128,-1,2
 188 125 188 125 188 283 c 2,3,-1
 188 780 l 2,4,5
 188 808 188 808 170 825 c 128,-1,6
 152 842 152 842 130 848 c 128,-1,7
 108 854 108 854 90 867 c 128,-1,8
 72 880 72 880 72 899 c 0,9,10
 72 926 72 926 104 942 c 2,11,-1
 338 1065 l 2,12,13
 369 1082 369 1082 390.5 1071.5 c 128,-1,14
 412 1061 412 1061 412 1030 c 2,15,-1
 412 334 l 2,16,17
 412 216 412 216 454.5 164.5 c 128,-1,18
 497 113 497 113 600 113 c 0,19,20
 722 113 722 113 831 186 c 1,21,-1
 831 782 l 2,22,23
 831 810 831 810 813 827 c 128,-1,24
 795 844 795 844 774 850.5 c 128,-1,25
 753 857 753 857 735 870.5 c 128,-1,26
 717 884 717 884 717 905 c 0,27,28
 717 930 717 930 752 948 c 2,29,-1
 983 1067 l 2,30,31
 1017 1084 1017 1084 1036 1073.5 c 128,-1,32
 1055 1063 1055 1063 1055 1032 c 2,33,-1
 1055 238 l 2,34,35
 1055 212 1055 212 1073 195 c 128,-1,36
 1091 178 1091 178 1112 171.5 c 128,-1,37
 1133 165 1133 165 1151 151.5 c 128,-1,38
 1169 138 1169 138 1169 119 c 0,39,40
 1169 92 1169 92 1137 78 c 2,41,-1
 905 -25 l 2,42,43
 873 -39 873 -39 852 -28.5 c 128,-1,44
 831 -18 831 -18 831 14 c 2,45,-1
 831 90 l 1,46,47
 678 -31 678 -31 479 -31 c 0,0,1
EndSplineSet
Validated: 1048577
Substitution2: "'smcp' Lowercase to Small Capitals in Latin lookup 28 subtable" u.sc
Substitution2: "'aalt' Access All Alternates in Latin lookup 0 subtable" u.sc
EndChar

StartChar: v
Encoding: 118 118 89
Width: 1077
GlyphClass: 2
Flags: W
AnchorPoint: "Anchor-8" 541 1047 basechar 0
AnchorPoint: "Anchor-6" 541 0 basechar 0
LayerCount: 2
Fore
SplineSet
539 -31 m 0,0,1
 479 -31 479 -31 453 33 c 2,2,-1
 133 850 l 2,3,4
 116 893 116 893 85 928 c 128,-1,5
 54 963 54 963 33 983.5 c 128,-1,6
 12 1004 12 1004 12 1020 c 0,7,8
 12 1047 12 1047 47 1047 c 2,9,-1
 426 1047 l 2,10,11
 457 1047 457 1047 457 1022 c 0,12,13
 457 1009 457 1009 443 994 c 128,-1,14
 429 979 429 979 412 966.5 c 128,-1,15
 395 954 395 954 381 932.5 c 128,-1,16
 367 911 367 911 367 887 c 0,17,18
 367 864 367 864 379 834 c 2,19,-1
 592 231 l 1,20,-1
 815 831 l 2,21,22
 827 865 827 865 827 889 c 0,23,24
 827 912 827 912 814.5 933.5 c 128,-1,25
 802 955 802 955 787.5 968.5 c 128,-1,26
 773 982 773 982 760.5 997 c 128,-1,27
 748 1012 748 1012 748 1024 c 0,28,29
 748 1047 748 1047 778 1047 c 2,30,-1
 1036 1047 l 2,31,32
 1049 1047 1049 1047 1057 1040 c 128,-1,33
 1065 1033 1065 1033 1065 1022 c 0,34,35
 1065 1005 1065 1005 1044 984 c 128,-1,36
 1023 963 1023 963 993 928.5 c 128,-1,37
 963 894 963 894 946 852 c 2,38,-1
 627 33 l 2,39,40
 601 -31 601 -31 539 -31 c 0,0,1
EndSplineSet
Validated: 1048577
Substitution2: "'smcp' Lowercase to Small Capitals in Latin lookup 28 subtable" v.sc
Substitution2: "'aalt' Access All Alternates in Latin lookup 0 subtable" v.sc
EndChar

StartChar: w
Encoding: 119 119 90
Width: 1589
GlyphClass: 2
Flags: W
AnchorPoint: "Anchor-8" 821 1047 basechar 0
AnchorPoint: "Anchor-6" 778 0 basechar 0
LayerCount: 2
Fore
SplineSet
487 -31 m 128,-1,1
 460 -31 460 -31 439 -14 c 128,-1,2
 418 3 418 3 408 35 c 2,3,-1
 133 850 l 2,4,5
 118 894 118 894 96.5 925.5 c 128,-1,6
 75 957 75 957 57.5 970 c 128,-1,7
 40 983 40 983 27 995.5 c 128,-1,8
 14 1008 14 1008 14 1020 c 128,-1,9
 14 1032 14 1032 23 1039.5 c 128,-1,10
 32 1047 32 1047 47 1047 c 2,11,-1
 414 1047 l 2,12,13
 444 1047 444 1047 444 1022 c 0,14,15
 444 1009 444 1009 430 994 c 128,-1,16
 416 979 416 979 400 966 c 128,-1,17
 384 953 384 953 370 932 c 128,-1,18
 356 911 356 911 356 887 c 0,19,20
 356 867 356 867 367 834 c 2,21,-1
 543 272 l 1,22,-1
 750 983 l 2,23,24
 766 1038 766 1038 808 1059.5 c 128,-1,25
 850 1081 850 1081 893 1059.5 c 128,-1,26
 936 1038 936 1038 954 983 c 2,27,-1
 1176 279 l 1,28,-1
 1341 834 l 2,29,30
 1352 871 1352 871 1352 889 c 0,31,32
 1352 914 1352 914 1332 941 c 128,-1,33
 1312 968 1312 968 1292 989 c 128,-1,34
 1272 1010 1272 1010 1272 1022 c 0,35,36
 1272 1047 1272 1047 1303 1047 c 2,37,-1
 1540 1047 l 2,38,39
 1571 1047 1571 1047 1571 1022 c 0,40,41
 1571 1011 1571 1011 1562.5 1001.5 c 128,-1,42
 1554 992 1554 992 1540 981 c 128,-1,43
 1526 970 1526 970 1511 955 c 128,-1,44
 1496 940 1496 940 1479.5 913.5 c 128,-1,45
 1463 887 1463 887 1452 852 c 2,46,-1
 1202 35 l 2,47,48
 1193 4 1193 4 1170 -13.5 c 128,-1,49
 1147 -31 1147 -31 1120 -31 c 128,-1,50
 1093 -31 1093 -31 1069.5 -13.5 c 128,-1,51
 1046 4 1046 4 1036 35 c 2,52,-1
 795 813 l 1,53,-1
 567 35 l 2,54,55
 558 4 558 4 536 -13.5 c 128,-1,0
 514 -31 514 -31 487 -31 c 128,-1,1
EndSplineSet
Validated: 1048609
Substitution2: "'smcp' Lowercase to Small Capitals in Latin lookup 28 subtable" w.sc
Substitution2: "'aalt' Access All Alternates in Latin lookup 0 subtable" w.sc
EndChar

StartChar: x
Encoding: 120 120 91
Width: 1075
GlyphClass: 2
Flags: W
AnchorPoint: "Anchor-8" 606 1047 basechar 0
AnchorPoint: "Anchor-6" 559 0 basechar 0
LayerCount: 2
Fore
SplineSet
596 0 m 2,0,1
 583 0 583 0 574 7 c 128,-1,2
 565 14 565 14 565 25 c 0,3,4
 565 39 565 39 579.5 53.5 c 128,-1,5
 594 68 594 68 611 78.5 c 128,-1,6
 628 89 628 89 642.5 107.5 c 128,-1,7
 657 126 657 126 657 147 c 0,8,9
 657 173 657 173 635 207 c 2,10,-1
 496 406 l 1,11,-1
 352 207 l 2,12,13
 309 146 309 146 309 121 c 0,14,15
 309 98 309 98 341 71.5 c 128,-1,16
 373 45 373 45 373 25 c 0,17,18
 373 14 373 14 364 7 c 128,-1,19
 355 0 355 0 340 0 c 2,20,-1
 68 0 l 2,21,22
 53 0 53 0 44 8 c 128,-1,23
 35 16 35 16 35 27 c 0,24,25
 35 44 35 44 59 61.5 c 128,-1,26
 83 79 83 79 127.5 112 c 128,-1,27
 172 145 172 145 205 188 c 2,28,-1
 436 492 l 1,29,-1
 190 838 l 2,30,31
 155 887 155 887 114.5 927 c 128,-1,32
 74 967 74 967 54.5 986 c 128,-1,33
 35 1005 35 1005 35 1020 c 0,34,35
 35 1031 35 1031 45 1039 c 128,-1,36
 55 1047 55 1047 72 1047 c 2,37,-1
 477 1047 l 2,38,39
 510 1047 510 1047 510 1020 c 0,40,41
 510 1007 510 1007 495.5 993 c 128,-1,42
 481 979 481 979 464 968 c 128,-1,43
 447 957 447 957 432.5 938 c 128,-1,44
 418 919 418 919 418 897 c 0,45,46
 418 876 418 876 440 840 c 2,47,-1
 565 651 l 1,48,-1
 721 850 l 2,49,50
 762 902 762 902 762 924 c 0,51,52
 762 944 762 944 728 976 c 128,-1,53
 694 1008 694 1008 694 1022 c 0,54,55
 694 1047 694 1047 725 1047 c 2,56,-1
 989 1047 l 2,57,58
 1003 1047 1003 1047 1011.5 1039 c 128,-1,59
 1020 1031 1020 1031 1020 1020 c 0,60,61
 1020 1006 1020 1006 997 988.5 c 128,-1,62
 974 971 974 971 930.5 936.5 c 128,-1,63
 887 902 887 902 852 858 c 2,64,-1
 621 567 l 1,65,-1
 885 209 l 2,66,67
 921 159 921 159 961.5 119.5 c 128,-1,68
 1002 80 1002 80 1020 62 c 128,-1,69
 1038 44 1038 44 1038 27 c 0,70,71
 1038 0 1038 0 1004 0 c 2,72,-1
 596 0 l 2,0,1
EndSplineSet
Validated: 1048577
Substitution2: "'smcp' Lowercase to Small Capitals in Latin lookup 28 subtable" x.sc
Substitution2: "'aalt' Access All Alternates in Latin lookup 0 subtable" x.sc
EndChar

StartChar: y
Encoding: 121 121 92
Width: 1075
GlyphClass: 2
Flags: W
AnchorPoint: "Anchor-8" 588 1047 basechar 0
AnchorPoint: "Anchor-6" 528 0 basechar 0
LayerCount: 2
Fore
SplineSet
211 -362 m 0,0,1
 131 -362 131 -362 77 -322 c 128,-1,2
 23 -282 23 -282 23 -215 c 0,3,4
 23 -161 23 -161 58.5 -124.5 c 128,-1,5
 94 -88 94 -88 154 -88 c 0,6,7
 197 -88 197 -88 247.5 -116.5 c 128,-1,8
 298 -145 298 -145 330 -145 c 0,9,10
 370 -145 370 -145 397.5 -104 c 128,-1,11
 425 -63 425 -63 485 84 c 1,12,-1
 137 852 l 2,13,14
 115 901 115 901 82.5 935 c 128,-1,15
 50 969 50 969 31 986.5 c 128,-1,16
 12 1004 12 1004 12 1020 c 0,17,18
 12 1032 12 1032 21 1039.5 c 128,-1,19
 30 1047 30 1047 45 1047 c 2,20,-1
 440 1047 l 2,21,22
 471 1047 471 1047 471 1022 c 0,23,24
 471 1005 471 1005 447 984.5 c 128,-1,25
 423 964 423 964 399 940.5 c 128,-1,26
 375 917 375 917 375 891 c 0,27,28
 375 874 375 874 391 834 c 2,29,-1
 602 324 l 1,30,-1
 811 834 l 2,31,32
 823 864 823 864 823 887 c 0,33,34
 823 914 823 914 803 940.5 c 128,-1,35
 783 967 783 967 763 988 c 128,-1,36
 743 1009 743 1009 743 1024 c 0,37,38
 743 1047 743 1047 774 1047 c 2,39,-1
 1034 1047 l 2,40,41
 1047 1047 1047 1047 1056 1040 c 128,-1,42
 1065 1033 1065 1033 1065 1022 c 0,43,44
 1065 1007 1065 1007 1046 989 c 128,-1,45
 1027 971 1027 971 997.5 939.5 c 128,-1,46
 968 908 968 908 950 866 c 2,47,-1
 551 -47 l 2,48,49
 479 -213 479 -213 396.5 -287.5 c 128,-1,50
 314 -362 314 -362 211 -362 c 0,0,1
EndSplineSet
Validated: 1048577
Substitution2: "'smcp' Lowercase to Small Capitals in Latin lookup 28 subtable" y.sc
Substitution2: "'aalt' Access All Alternates in Latin lookup 0 subtable" y.sc
EndChar

StartChar: z
Encoding: 122 122 93
Width: 995
GlyphClass: 2
Flags: W
AnchorPoint: "Anchor-9" 498 489 basechar 0
AnchorPoint: "Anchor-8" 508 1047 basechar 0
AnchorPoint: "Anchor-6" 498 0 basechar 0
LayerCount: 2
Fore
SplineSet
133 0 m 2,0,1
 99 0 99 0 88 20.5 c 128,-1,2
 77 41 77 41 96 72 c 2,3,-1
 633 963 l 1,4,-1
 459 963 l 2,5,6
 411 963 411 963 370.5 945 c 128,-1,7
 330 927 330 927 304.5 900.5 c 128,-1,8
 279 874 279 874 255.5 843 c 128,-1,9
 232 812 232 812 216.5 785.5 c 128,-1,10
 201 759 201 759 182 741 c 128,-1,11
 163 723 163 723 145 723 c 0,12,13
 106 723 106 723 106 768 c 2,14,-1
 106 985 l 2,15,16
 106 1047 106 1047 168 1047 c 2,17,-1
 840 1047 l 2,18,19
 876 1047 876 1047 886.5 1025.5 c 128,-1,20
 897 1004 897 1004 879 975 c 2,21,-1
 346 82 l 1,22,-1
 559 82 l 2,23,24
 614 82 614 82 658.5 107.5 c 128,-1,25
 703 133 703 133 730.5 169.5 c 128,-1,26
 758 206 758 206 780 242.5 c 128,-1,27
 802 279 802 279 823.5 304.5 c 128,-1,28
 845 330 845 330 866 330 c 0,29,30
 882 330 882 330 892.5 318.5 c 128,-1,31
 903 307 903 307 903 287 c 2,32,-1
 903 53 l 2,33,34
 903 0 903 0 846 0 c 2,35,-1
 133 0 l 2,0,1
EndSplineSet
Validated: 1048577
Substitution2: "'smcp' Lowercase to Small Capitals in Latin lookup 28 subtable" z.sc
Substitution2: "'aalt' Access All Alternates in Latin lookup 0 subtable" z.sc
EndChar

StartChar: braceleft
Encoding: 123 123 94
Width: 655
GlyphClass: 2
Flags: W
LayerCount: 2
Fore
SplineSet
549 -147 m 0,0,1
 462 -147 462 -147 380.5 -87.5 c 128,-1,2
 299 -28 299 -28 249 69.5 c 128,-1,3
 199 167 199 167 199 270 c 2,4,-1
 199 514 l 2,5,6
 199 559 199 559 164 584 c 1,7,-1
 76 664 l 2,8,9
 45 691 45 691 76 713 c 2,10,-1
 162 780 l 2,11,12
 199 805 199 805 199 848 c 2,13,-1
 199 1118 l 2,14,15
 199 1223 199 1223 249 1321.5 c 128,-1,16
 299 1420 299 1420 380.5 1480 c 128,-1,17
 462 1540 462 1540 549 1540 c 0,18,19
 586 1540 586 1540 586 1518 c 0,20,21
 586 1508 586 1508 569 1496 c 128,-1,22
 552 1484 552 1484 527.5 1465.5 c 128,-1,23
 503 1447 503 1447 478.5 1417 c 128,-1,24
 454 1387 454 1387 437 1328 c 128,-1,25
 420 1269 420 1269 420 1190 c 2,26,-1
 420 924 l 2,27,28
 420 881 420 881 385 856 c 2,29,-1
 252 745 l 1,30,-1
 387 621 l 2,31,32
 420 595 420 595 420 551 c 2,33,-1
 420 201 l 2,34,35
 420 122 420 122 437 63 c 128,-1,36
 454 4 454 4 478.5 -26 c 128,-1,37
 503 -56 503 -56 527.5 -75 c 128,-1,38
 552 -94 552 -94 569 -106 c 128,-1,39
 586 -118 586 -118 586 -129 c 0,40,41
 586 -147 586 -147 549 -147 c 0,0,1
EndSplineSet
Validated: 1
EndChar

StartChar: bar
Encoding: 124 124 95
Width: 473
GlyphClass: 2
Flags: W
LayerCount: 2
Fore
SplineSet
225 -414 m 2,0,1
 190 -414 190 -414 190 -377 c 2,2,-1
 190 1632 l 2,3,4
 190 1669 190 1669 225 1669 c 2,5,-1
 248 1669 l 2,6,7
 283 1669 283 1669 283 1632 c 2,8,-1
 283 -377 l 2,9,10
 283 -414 283 -414 248 -414 c 2,11,-1
 225 -414 l 2,0,1
EndSplineSet
Validated: 1
EndChar

StartChar: braceright
Encoding: 125 125 96
Width: 655
GlyphClass: 2
Flags: W
LayerCount: 2
Fore
SplineSet
106 -147 m 0,0,1
 70 -147 70 -147 70 -129 c 0,2,3
 70 -118 70 -118 87 -106 c 128,-1,4
 104 -94 104 -94 128.5 -75 c 128,-1,5
 153 -56 153 -56 177.5 -26 c 128,-1,6
 202 4 202 4 219 63 c 128,-1,7
 236 122 236 122 236 201 c 2,8,-1
 236 551 l 2,9,10
 236 596 236 596 268 621 c 2,11,-1
 403 745 l 1,12,-1
 270 856 l 2,13,14
 236 880 236 880 236 924 c 2,15,-1
 236 1190 l 2,16,17
 236 1269 236 1269 219 1328 c 128,-1,18
 202 1387 202 1387 177.5 1417 c 128,-1,19
 153 1447 153 1447 128.5 1465.5 c 128,-1,20
 104 1484 104 1484 87 1496 c 128,-1,21
 70 1508 70 1508 70 1518 c 0,22,23
 70 1540 70 1540 106 1540 c 0,24,25
 193 1540 193 1540 275 1480 c 128,-1,26
 357 1420 357 1420 407 1321.5 c 128,-1,27
 457 1223 457 1223 457 1118 c 2,28,-1
 457 848 l 2,29,30
 457 805 457 805 494 780 c 2,31,-1
 580 713 l 2,32,33
 611 691 611 691 580 664 c 2,34,-1
 492 584 l 1,35,36
 457 559 457 559 457 514 c 2,37,-1
 457 270 l 2,38,39
 457 193 457 193 427 116.5 c 128,-1,40
 397 40 397 40 348.5 -17.5 c 128,-1,41
 300 -75 300 -75 235.5 -111 c 128,-1,42
 171 -147 171 -147 106 -147 c 0,0,1
EndSplineSet
Validated: 1
EndChar

StartChar: asciitilde
Encoding: 126 126 97
Width: 1114
GlyphClass: 2
Flags: W
LayerCount: 2
Fore
SplineSet
733 428 m 0,0,1
 626 428 626 428 330 543 c 1,2,-1
 182 459 l 2,3,4
 160 445 160 445 146 458.5 c 128,-1,5
 132 472 132 472 145 496 c 0,6,7
 189 583 189 583 251.5 630.5 c 128,-1,8
 314 678 314 678 385 678 c 0,9,10
 483 678 483 678 786 563 c 1,11,-1
 936 647 l 2,12,13
 958 658 958 658 971.5 646 c 128,-1,14
 985 634 985 634 975 610 c 0,15,16
 885 428 885 428 733 428 c 0,0,1
EndSplineSet
Validated: 1
Substitution2: "'tnum' Tabular Numbers in Latin lookup 25 subtable" asciitilde.tf
Substitution2: "'aalt' Access All Alternates in Latin lookup 0 subtable" asciitilde.tf
EndChar

StartChar: exclamdown
Encoding: 161 161 99
Width: 587
GlyphClass: 2
Flags: W
LayerCount: 2
Fore
SplineSet
324 1022 m 0,0,1
 362 812 362 812 402 513 c 128,-1,2
 442 214 442 214 442 139 c 0,3,4
 442 63 442 63 403.5 15 c 128,-1,5
 365 -33 365 -33 293 -33 c 128,-1,6
 221 -33 221 -33 183 15 c 128,-1,7
 145 63 145 63 145 139 c 0,8,9
 145 214 145 214 185.5 512 c 128,-1,10
 226 810 226 810 264 1022 c 0,11,12
 267 1043 267 1043 280 1051 c 128,-1,13
 293 1059 293 1059 306.5 1051 c 128,-1,14
 320 1043 320 1043 324 1022 c 0,0,1
137 1337 m 128,-1,16
 137 1403 137 1403 183 1448 c 128,-1,17
 229 1493 229 1493 295 1493 c 0,18,19
 360 1493 360 1493 405.5 1448 c 128,-1,20
 451 1403 451 1403 451 1337 c 128,-1,21
 451 1271 451 1271 405.5 1225.5 c 128,-1,22
 360 1180 360 1180 295 1180 c 0,23,24
 229 1180 229 1180 183 1225.5 c 128,-1,15
 137 1271 137 1271 137 1337 c 128,-1,16
EndSplineSet
Validated: 1
EndChar

StartChar: cent
Encoding: 162 162 100
Width: 997
GlyphClass: 2
Flags: W
AnchorPoint: "Anchor-1" 549 930 basechar 0
AnchorPoint: "Anchor-0" 545 0 basechar 0
LayerCount: 2
Fore
SplineSet
754 -168 m 0,0,1
 697 -187 697 -187 676 -119 c 2,2,-1
 641 -14 l 1,3,4
 587 -27 587 -27 535 -27 c 0,5,6
 354 -27 354 -27 235.5 105 c 128,-1,7
 117 237 117 237 117 457 c 0,8,9
 117 604 117 604 171 716 c 128,-1,10
 225 828 225 828 322 889 c 1,11,-1
 293 963 l 2,12,13
 281 989 281 989 288.5 1012 c 128,-1,14
 296 1035 296 1035 322 1042 c 0,15,16
 375 1061 375 1061 399 993 c 2,17,-1
 418 936 l 1,18,19
 480 954 480 954 549 954 c 0,20,21
 686 954 686 954 783.5 885 c 128,-1,22
 881 816 881 816 881 711 c 0,23,24
 881 654 881 654 850.5 614.5 c 128,-1,25
 820 575 820 575 764 575 c 0,26,27
 712 575 712 575 680.5 611.5 c 128,-1,28
 649 648 649 648 649 707 c 0,29,30
 649 723 649 723 652 750 c 128,-1,31
 655 777 655 777 655 786 c 0,32,33
 655 868 655 868 545 868 c 0,34,35
 489 868 489 868 446 850 c 1,36,-1
 563 453 l 1,37,-1
 692 152 l 1,38,39
 732 163 732 163 765 184 c 128,-1,40
 798 205 798 205 817 220.5 c 128,-1,41
 836 236 836 236 848 236 c 0,42,43
 872 236 872 236 872 203 c 0,44,45
 872 160 872 160 835.5 110.5 c 128,-1,46
 799 61 799 61 737 27 c 1,47,-1
 782 -90 l 2,48,49
 794 -114 794 -114 786.5 -137.5 c 128,-1,50
 779 -161 779 -161 754 -168 c 0,0,1
289 537 m 0,51,52
 289 361 289 361 369.5 255 c 128,-1,53
 450 149 450 149 594 143 c 1,54,-1
 514 428 l 1,55,-1
 360 788 l 1,56,57
 289 701 289 701 289 537 c 0,51,52
EndSplineSet
Validated: 1048609
Substitution2: "'tnum' Tabular Numbers in Latin lookup 25 subtable" cent.tf
Substitution2: "'aalt' Access All Alternates in Latin lookup 0 subtable" cent.tf
EndChar

StartChar: sterling
Encoding: 163 163 101
Width: 1222
GlyphClass: 2
Flags: W
LayerCount: 2
Fore
SplineSet
756 -25 m 0,0,1
 595 -25 595 -25 426 113 c 0,2,3
 391 140 391 140 356.5 131.5 c 128,-1,4
 322 123 322 123 305 82 c 0,5,6
 265 0 265 0 197 0 c 0,7,8
 149 0 149 0 117.5 31.5 c 128,-1,9
 86 63 86 63 86 115 c 0,10,11
 86 180 86 180 133 215 c 128,-1,12
 180 250 180 250 266 250 c 0,13,14
 428 250 428 250 428 545 c 0,15,16
 428 600 428 600 410 674 c 1,17,-1
 158 664 l 2,18,19
 119 661 119 661 103.5 688 c 128,-1,20
 88 715 88 715 104.5 742.5 c 128,-1,21
 121 770 121 770 160 768 c 2,22,-1
 385 756 l 1,23,24
 381 766 381 766 367 804.5 c 128,-1,25
 353 843 353 843 348 858.5 c 128,-1,26
 343 874 343 874 334 903.5 c 128,-1,27
 325 933 325 933 322 957 c 128,-1,28
 319 981 319 981 319 1006 c 0,29,30
 319 1151 319 1151 435 1248.5 c 128,-1,31
 551 1346 551 1346 725 1346 c 0,32,33
 884 1346 884 1346 983.5 1279 c 128,-1,34
 1083 1212 1083 1212 1083 1090 c 0,35,36
 1083 1027 1083 1027 1054 991.5 c 128,-1,37
 1025 956 1025 956 975 956 c 0,38,39
 921 956 921 956 892.5 989.5 c 128,-1,40
 864 1023 864 1023 864 1083 c 0,41,42
 864 1180 864 1180 834.5 1225 c 128,-1,43
 805 1270 805 1270 731 1270 c 0,44,45
 539 1270 539 1270 539 1100 c 0,46,47
 539 1050 539 1050 553 994 c 128,-1,48
 567 938 567 938 591 866.5 c 128,-1,49
 615 795 615 795 625 754 c 1,50,-1
 874 760 l 2,51,52
 913 761 913 761 928.5 733.5 c 128,-1,53
 944 706 944 706 927.5 678.5 c 128,-1,54
 911 651 911 651 872 653 c 2,55,-1
 641 668 l 1,56,57
 645 628 645 628 645 602 c 0,58,59
 645 469 645 469 597 391.5 c 128,-1,60
 549 314 549 314 438 246 c 1,61,62
 475 262 475 262 528 250.5 c 128,-1,63
 581 239 581 239 622.5 219 c 128,-1,64
 664 199 664 199 725 179.5 c 128,-1,65
 786 160 786 160 838 160 c 0,66,67
 902 160 902 160 940.5 181 c 128,-1,68
 979 202 979 202 979 246 c 0,69,70
 979 267 979 267 949.5 315.5 c 128,-1,71
 920 364 920 364 920 401 c 0,72,73
 920 443 920 443 945.5 469.5 c 128,-1,74
 971 496 971 496 1012 496 c 0,75,76
 1056 496 1056 496 1085 460 c 128,-1,77
 1114 424 1114 424 1114 360 c 0,78,79
 1114 265 1114 265 1069 177 c 128,-1,80
 1024 89 1024 89 940.5 32 c 128,-1,81
 857 -25 857 -25 756 -25 c 0,0,1
EndSplineSet
Validated: 33
Substitution2: "'tnum' Tabular Numbers in Latin lookup 25 subtable" sterling.tf
Substitution2: "'aalt' Access All Alternates in Latin lookup 0 subtable" sterling.tf
EndChar

StartChar: currency
Encoding: 164 164 102
Width: 1175
GlyphClass: 2
Flags: W
LayerCount: 2
Fore
SplineSet
590 246 m 128,-1,1
 460 246 460 246 352 326 c 1,2,-1
 240 197 l 2,3,4
 212 164 212 164 176 169.5 c 128,-1,5
 140 175 140 175 132 205 c 128,-1,6
 124 235 124 235 154 270 c 1,7,-1
 285 393 l 1,8,9
 199 503 199 503 199 639 c 128,-1,10
 199 775 199 775 285 885 c 1,11,-1
 154 1006 l 2,12,13
 114 1044 114 1044 136 1081 c 0,14,15
 154 1110 154 1110 191 1107 c 0,16,17
 219 1104 219 1104 240 1079 c 2,18,-1
 352 950 l 1,19,20
 460 1030 460 1030 590 1030 c 0,21,22
 719 1030 719 1030 827 952 c 1,23,-1
 938 1079 l 2,24,25
 970 1117 970 1117 1012 1104 c 0,26,27
 1045 1094 1045 1094 1049 1063 c 0,28,29
 1053 1034 1053 1034 1022 1006 c 2,30,-1
 895 887 l 1,31,32
 983 778 983 778 983 639 c 128,-1,33
 983 500 983 500 895 391 c 1,34,-1
 1022 270 l 2,35,36
 1063 232 1063 232 1042 196 c 0,37,38
 1025 167 1025 167 989 169 c 0,39,40
 960 171 960 171 938 197 c 2,41,-1
 827 326 l 1,42,0
 720 246 720 246 590 246 c 128,-1,1
289 639 m 0,43,44
 289 512 289 512 376.5 424 c 128,-1,45
 464 336 464 336 590 336 c 128,-1,46
 716 336 716 336 803.5 424 c 128,-1,47
 891 512 891 512 891 639 c 0,48,49
 891 765 891 765 803.5 851.5 c 128,-1,50
 716 938 716 938 590 938 c 128,-1,51
 464 938 464 938 376.5 851.5 c 128,-1,52
 289 765 289 765 289 639 c 0,43,44
EndSplineSet
Validated: 33
Substitution2: "'tnum' Tabular Numbers in Latin lookup 25 subtable" currency.tf
Substitution2: "'aalt' Access All Alternates in Latin lookup 0 subtable" currency.tf
EndChar

StartChar: yen
Encoding: 165 165 103
Width: 1243
GlyphClass: 2
Flags: W
AnchorPoint: "Anchor-1" 657 1292 basechar 0
AnchorPoint: "Anchor-0" 623 0 basechar 0
LayerCount: 2
Fore
SplineSet
446 0 m 2,0,1
 427 0 427 0 416.5 9.5 c 128,-1,2
 406 19 406 19 406 33 c 0,3,4
 406 53 406 53 422 68 c 128,-1,5
 438 83 438 83 457 92 c 128,-1,6
 476 101 476 101 492 122 c 128,-1,7
 508 143 508 143 508 174 c 2,8,-1
 508 354 l 1,9,-1
 256 346 l 2,10,11
 218 344 218 344 202.5 372 c 128,-1,12
 187 400 187 400 202.5 427.5 c 128,-1,13
 218 455 218 455 256 453 c 2,14,-1
 508 444 l 1,15,-1
 508 530 l 1,16,-1
 256 522 l 2,17,18
 233 521 233 521 217.5 532.5 c 128,-1,19
 202 544 202 544 198.5 560 c 128,-1,20
 195 576 195 576 198.5 592.5 c 128,-1,21
 202 609 202 609 217.5 620.5 c 128,-1,22
 233 632 233 632 256 631 c 2,23,-1
 508 621 l 1,24,-1
 213 1098 l 2,25,26
 177 1154 177 1154 139.5 1193 c 128,-1,27
 102 1232 102 1232 86 1248.5 c 128,-1,28
 70 1265 70 1265 70 1284 c 0,29,30
 70 1299 70 1299 79 1309 c 128,-1,31
 88 1319 88 1319 106 1319 c 2,32,-1
 496 1319 l 2,33,34
 535 1319 535 1319 535 1288 c 0,35,36
 535 1273 535 1273 521 1258.5 c 128,-1,37
 507 1244 507 1244 490.5 1233.5 c 128,-1,38
 474 1223 474 1223 460 1204.5 c 128,-1,39
 446 1186 446 1186 446 1165 c 128,-1,40
 446 1144 446 1144 467 1106 c 2,41,-1
 676 768 l 1,42,-1
 866 1118 l 2,43,44
 883 1153 883 1153 883 1178 c 0,45,46
 883 1208 883 1208 855 1241.5 c 128,-1,47
 827 1275 827 1275 827 1290 c 0,48,49
 827 1319 827 1319 866 1319 c 2,50,-1
 1130 1319 l 2,51,52
 1167 1319 1167 1319 1167 1288 c 0,53,54
 1167 1273 1167 1273 1151.5 1259.5 c 128,-1,55
 1136 1246 1136 1246 1114 1233.5 c 128,-1,56
 1092 1221 1092 1221 1062 1192 c 128,-1,57
 1032 1163 1032 1163 1010 1124 c 2,58,-1
 752 680 l 1,59,-1
 752 621 l 1,60,-1
 1004 631 l 2,61,62
 1027 632 1027 632 1043 620.5 c 128,-1,63
 1059 609 1059 609 1063 592.5 c 128,-1,64
 1067 576 1067 576 1063 560 c 128,-1,65
 1059 544 1059 544 1043 532.5 c 128,-1,66
 1027 521 1027 521 1004 522 c 2,67,-1
 752 530 l 1,68,-1
 752 444 l 1,69,-1
 1004 453 l 2,70,71
 1043 455 1043 455 1059 427.5 c 128,-1,72
 1075 400 1075 400 1059 372 c 128,-1,73
 1043 344 1043 344 1004 346 c 2,74,-1
 752 354 l 1,75,-1
 752 174 l 2,76,77
 752 143 752 143 767.5 122 c 128,-1,78
 783 101 783 101 802 92 c 128,-1,79
 821 83 821 83 836.5 68 c 128,-1,80
 852 53 852 53 852 33 c 0,81,82
 852 19 852 19 841.5 9.5 c 128,-1,83
 831 0 831 0 813 0 c 2,84,-1
 446 0 l 2,0,1
EndSplineSet
Validated: 1048577
Substitution2: "'tnum' Tabular Numbers in Latin lookup 25 subtable" yen.tf
Substitution2: "'aalt' Access All Alternates in Latin lookup 0 subtable" yen.tf
EndChar

StartChar: brokenbar
Encoding: 166 166 104
Width: 473
GlyphClass: 2
Flags: W
LayerCount: 2
Fore
SplineSet
223 -412 m 2,0,1
 188 -412 188 -412 188 -375 c 2,2,-1
 188 455 l 2,3,4
 188 489 188 489 223 489 c 2,5,-1
 252 489 l 2,6,7
 289 489 289 489 289 455 c 2,8,-1
 289 -375 l 2,9,10
 289 -412 289 -412 252 -412 c 2,11,-1
 223 -412 l 2,0,1
188 801 m 2,12,-1
 188 1632 l 2,13,14
 188 1669 188 1669 223 1669 c 2,15,-1
 252 1669 l 2,16,17
 289 1669 289 1669 289 1632 c 2,18,-1
 289 801 l 2,19,20
 289 766 289 766 252 766 c 2,21,-1
 223 766 l 2,22,23
 188 766 188 766 188 801 c 2,12,-1
EndSplineSet
Validated: 1
EndChar

StartChar: section
Encoding: 167 167 105
Width: 1136
GlyphClass: 2
Flags: W
LayerCount: 2
Fore
SplineSet
573 -438 m 0,0,1
 499 -438 499 -438 430 -421 c 128,-1,2
 361 -404 361 -404 302.5 -371.5 c 128,-1,3
 244 -339 244 -339 209 -284 c 128,-1,4
 174 -229 174 -229 174 -160 c 0,5,6
 174 -99 174 -99 203.5 -64 c 128,-1,7
 233 -29 233 -29 289 -29 c 0,8,9
 351 -29 351 -29 380.5 -69 c 128,-1,10
 410 -109 410 -109 410 -174 c 0,11,12
 410 -258 410 -258 445 -304 c 128,-1,13
 480 -350 480 -350 575 -350 c 0,14,15
 668 -350 668 -350 719 -307 c 128,-1,16
 770 -264 770 -264 770 -188 c 0,17,18
 770 -105 770 -105 704.5 -47.5 c 128,-1,19
 639 10 639 10 473 100 c 0,20,21
 410 134 410 134 365.5 162 c 128,-1,22
 321 190 321 190 266 232.5 c 128,-1,23
 211 275 211 275 177 316 c 128,-1,24
 143 357 143 357 119.5 411.5 c 128,-1,25
 96 466 96 466 96 524 c 0,26,27
 96 740 96 740 365 852 c 1,28,29
 184 983 184 983 184 1169 c 0,30,31
 184 1322 184 1322 290.5 1407.5 c 128,-1,32
 397 1493 397 1493 563 1493 c 0,33,34
 637 1493 637 1493 706 1476 c 128,-1,35
 775 1459 775 1459 833.5 1426.5 c 128,-1,36
 892 1394 892 1394 927.5 1339.5 c 128,-1,37
 963 1285 963 1285 963 1217 c 0,38,39
 963 1156 963 1156 933.5 1121.5 c 128,-1,40
 904 1087 904 1087 848 1087 c 0,41,42
 787 1087 787 1087 758 1126.5 c 128,-1,43
 729 1166 729 1166 729 1229 c 0,44,45
 729 1314 729 1314 692 1359.5 c 128,-1,46
 655 1405 655 1405 551 1405 c 0,47,48
 467 1405 467 1405 417 1363.5 c 128,-1,49
 367 1322 367 1322 367 1253 c 0,50,51
 367 1207 367 1207 388.5 1166.5 c 128,-1,52
 410 1126 410 1126 457 1087.5 c 128,-1,53
 504 1049 504 1049 546.5 1022.5 c 128,-1,54
 589 996 589 996 662 956 c 0,55,56
 723 923 723 923 769.5 894.5 c 128,-1,57
 816 866 816 866 870 824 c 128,-1,58
 924 782 924 782 958.5 740.5 c 128,-1,59
 993 699 993 699 1016.5 644.5 c 128,-1,60
 1040 590 1040 590 1040 532 c 0,61,62
 1040 317 1040 317 774 203 c 1,63,64
 952 74 952 74 952 -113 c 0,65,66
 952 -268 952 -268 846 -353 c 128,-1,67
 740 -438 740 -438 573 -438 c 0,0,1
299 612 m 0,68,69
 299 462 299 462 578 317 c 0,70,71
 649 283 649 283 702 250 c 1,72,73
 840 340 840 340 840 451 c 0,74,75
 839 494 839 494 815.5 536 c 128,-1,76
 792 578 792 578 749.5 614.5 c 128,-1,77
 707 651 707 651 662.5 680.5 c 128,-1,78
 618 710 618 710 559 741 c 0,79,80
 485 777 485 777 436 807 c 1,81,82
 299 725 299 725 299 612 c 0,68,69
EndSplineSet
Validated: 1
Substitution2: "'tnum' Tabular Numbers in Latin lookup 25 subtable" section.tf
Substitution2: "'aalt' Access All Alternates in Latin lookup 0 subtable" section.tf
EndChar

StartChar: dieresis
Encoding: 168 168 106
Width: 1001
GlyphClass: 2
Flags: W
LayerCount: 2
Fore
SplineSet
289 1200 m 0,0,1
 227 1200 227 1200 184 1242.5 c 128,-1,2
 141 1285 141 1285 141 1346 c 0,3,4
 141 1406 141 1406 184 1447.5 c 128,-1,5
 227 1489 227 1489 289 1489 c 0,6,7
 349 1489 349 1489 391.5 1447.5 c 128,-1,8
 434 1406 434 1406 434 1346 c 0,9,10
 434 1285 434 1285 391.5 1242.5 c 128,-1,11
 349 1200 349 1200 289 1200 c 0,0,1
565 1346 m 0,12,13
 565 1406 565 1406 608 1447.5 c 128,-1,14
 651 1489 651 1489 711 1489 c 128,-1,15
 771 1489 771 1489 813.5 1447.5 c 128,-1,16
 856 1406 856 1406 856 1346 c 0,17,18
 856 1285 856 1285 813.5 1242.5 c 128,-1,19
 771 1200 771 1200 711 1200 c 128,-1,20
 651 1200 651 1200 608 1242.5 c 128,-1,21
 565 1285 565 1285 565 1346 c 0,12,13
EndSplineSet
Validated: 1
Substitution2: "Single Substitution lookup 34 subtable" dieresis.case
Substitution2: "'case' Case-Sensitive Forms in Latin lookup 29 subtable" dieresis.case
Substitution2: "'aalt' Access All Alternates in Latin lookup 0 subtable" dieresis.case
EndChar

StartChar: copyright
Encoding: 169 169 107
Width: 1597
GlyphClass: 2
Flags: W
LayerCount: 2
Fore
SplineSet
799 27 m 128,-1,1
 659 27 659 27 533.5 80 c 128,-1,2
 408 133 408 133 318.5 222.5 c 128,-1,3
 229 312 229 312 177 435 c 128,-1,4
 125 558 125 558 125 694 c 0,5,6
 125 829 125 829 177 952 c 128,-1,7
 229 1075 229 1075 318.5 1165 c 128,-1,8
 408 1255 408 1255 533.5 1308.5 c 128,-1,9
 659 1362 659 1362 799 1362 c 128,-1,10
 939 1362 939 1362 1064.5 1308.5 c 128,-1,11
 1190 1255 1190 1255 1279.5 1165 c 128,-1,12
 1369 1075 1369 1075 1421 952 c 128,-1,13
 1473 829 1473 829 1473 694 c 0,14,15
 1473 558 1473 558 1421 435 c 128,-1,16
 1369 312 1369 312 1279.5 222.5 c 128,-1,17
 1190 133 1190 133 1064.5 80 c 128,-1,0
 939 27 939 27 799 27 c 128,-1,1
197 694 m 128,-1,19
 197 530 197 530 277 391 c 128,-1,20
 357 252 357 252 496 171 c 128,-1,21
 635 90 635 90 799 90 c 128,-1,22
 963 90 963 90 1102 171 c 128,-1,23
 1241 252 1241 252 1321 391 c 128,-1,24
 1401 530 1401 530 1401 694 c 128,-1,25
 1401 858 1401 858 1321 997 c 128,-1,26
 1241 1136 1241 1136 1102 1217 c 128,-1,27
 963 1298 963 1298 799 1298 c 128,-1,28
 635 1298 635 1298 496 1217 c 128,-1,29
 357 1136 357 1136 277 997 c 128,-1,18
 197 858 197 858 197 694 c 128,-1,19
391 680 m 0,30,31
 391 814 391 814 450.5 919 c 128,-1,32
 510 1024 510 1024 610 1079.5 c 128,-1,33
 710 1135 710 1135 831 1135 c 0,34,35
 965 1135 965 1135 1055 1072 c 128,-1,36
 1145 1009 1145 1009 1145 918 c 0,37,38
 1145 866 1145 866 1115 830.5 c 128,-1,39
 1085 795 1085 795 1032 795 c 0,40,41
 978 795 978 795 944.5 830.5 c 128,-1,42
 911 866 911 866 911 926 c 0,43,44
 911 985 911 985 940 1030 c 1,45,46
 883 1055 883 1055 817 1055 c 0,47,48
 704 1055 704 1055 637.5 981 c 128,-1,49
 571 907 571 907 571 764 c 0,50,51
 571 605 571 605 655 512.5 c 128,-1,52
 739 420 739 420 891 420 c 0,53,54
 959 420 959 420 1008.5 433 c 128,-1,55
 1058 446 1058 446 1084 458.5 c 128,-1,56
 1110 471 1110 471 1120 471 c 0,57,58
 1141 471 1141 471 1141 451 c 0,59,60
 1141 385 1141 385 1049.5 319.5 c 128,-1,61
 958 254 958 254 813 254 c 0,62,63
 634 254 634 254 512.5 368.5 c 128,-1,64
 391 483 391 483 391 680 c 0,30,31
EndSplineSet
Validated: 1
EndChar

StartChar: ordfeminine
Encoding: 170 170 108
Width: 1021
GlyphClass: 2
Flags: W
LayerCount: 2
Fore
SplineSet
352 700 m 0,0,1
 269 700 269 700 216.5 747 c 128,-1,2
 164 794 164 794 164 866 c 0,3,4
 164 1104 164 1104 600 1176 c 1,5,-1
 600 1311 l 2,6,7
 600 1362 600 1362 578 1385.5 c 128,-1,8
 556 1409 556 1409 510 1409 c 0,9,10
 466 1409 466 1409 436 1388 c 128,-1,11
 406 1367 406 1367 389.5 1336.5 c 128,-1,12
 373 1306 373 1306 357.5 1276 c 128,-1,13
 342 1246 342 1246 315.5 1225 c 128,-1,14
 289 1204 289 1204 250 1204 c 0,15,16
 210 1204 210 1204 187 1226 c 128,-1,17
 164 1248 164 1248 164 1286 c 0,18,19
 164 1367 164 1367 268 1428 c 128,-1,20
 372 1489 372 1489 530 1489 c 0,21,22
 678 1489 678 1489 742.5 1426.5 c 128,-1,23
 807 1364 807 1364 807 1223 c 2,24,-1
 807 907 l 2,25,26
 807 855 807 855 814 834 c 128,-1,27
 821 813 821 813 840 813 c 0,28,29
 846 813 846 813 855.5 815 c 128,-1,30
 865 817 865 817 870 817 c 0,31,32
 885 817 885 817 885 797 c 0,33,34
 885 756 885 756 849 728 c 128,-1,35
 813 700 813 700 754 700 c 0,36,37
 630 700 630 700 606 815 c 1,38,39
 561 766 561 766 493 733 c 128,-1,40
 425 700 425 700 352 700 c 0,0,1
139 528 m 0,41,42
 139 506 139 506 153.5 491.5 c 128,-1,43
 168 477 168 477 190 477 c 2,44,-1
 856 477 l 2,45,46
 876 477 876 477 889.5 491.5 c 128,-1,47
 903 506 903 506 903 528 c 0,48,49
 903 548 903 548 889.5 561.5 c 128,-1,50
 876 575 876 575 856 575 c 2,51,-1
 190 575 l 2,52,53
 168 575 168 575 153.5 561.5 c 128,-1,54
 139 548 139 548 139 528 c 0,41,42
371 942 m 0,55,56
 371 898 371 898 404.5 871 c 128,-1,57
 438 844 438 844 492 844 c 0,58,59
 558 844 558 844 600 883 c 1,60,-1
 600 1106 l 1,61,62
 481 1085 481 1085 426 1042 c 128,-1,63
 371 999 371 999 371 942 c 0,55,56
EndSplineSet
Validated: 9
EndChar

StartChar: guillemotleft
Encoding: 171 171 109
Width: 1191
GlyphClass: 2
Flags: W
LayerCount: 2
Fore
SplineSet
139 494 m 2,0,1
 72 558 72 558 139 618 c 2,2,-1
 555 989 l 2,3,4
 569 1001 569 1001 581 993.5 c 128,-1,5
 593 986 593 986 584 969 c 2,6,-1
 410 641 l 2,7,8
 387 595 387 595 387 557 c 128,-1,9
 387 519 387 519 410 473 c 2,10,-1
 584 145 l 2,11,12
 593 128 593 128 581 120.5 c 128,-1,13
 569 113 569 113 555 125 c 2,14,-1
 139 494 l 2,0,1
631 494 m 2,15,16
 564 558 564 558 631 618 c 2,17,-1
 1047 989 l 2,18,19
 1061 1001 1061 1001 1072.5 993.5 c 128,-1,20
 1084 986 1084 986 1075 969 c 2,21,-1
 901 641 l 2,22,23
 878 595 878 595 878 557 c 128,-1,24
 878 519 878 519 901 473 c 2,25,-1
 1075 145 l 2,26,27
 1084 128 1084 128 1072.5 120.5 c 128,-1,28
 1061 113 1061 113 1047 125 c 2,29,-1
 631 494 l 2,15,16
EndSplineSet
Validated: 33
EndChar

StartChar: logicalnot
Encoding: 172 172 110
Width: 1038
GlyphClass: 2
Flags: W
LayerCount: 2
Fore
SplineSet
788 672 m 2,0,1
 788 700 788 700 760 700 c 2,2,-1
 178 700 l 2,3,4
 147 700 147 700 134 723 c 128,-1,5
 121 746 121 746 134 768.5 c 128,-1,6
 147 791 147 791 178 791 c 2,7,-1
 819 791 l 2,8,9
 848 791 848 791 864.5 774.5 c 128,-1,10
 881 758 881 758 881 729 c 2,11,-1
 881 330 l 2,12,13
 881 299 881 299 857.5 286 c 128,-1,14
 834 273 834 273 811 286 c 128,-1,15
 788 299 788 299 788 330 c 2,16,-1
 788 672 l 2,0,1
EndSplineSet
Validated: 1
Substitution2: "'tnum' Tabular Numbers in Latin lookup 25 subtable" logicalnot.tf
Substitution2: "'aalt' Access All Alternates in Latin lookup 0 subtable" logicalnot.tf
EndChar

StartChar: uni00AD
Encoding: 173 173 111
Width: 770
GlyphClass: 2
Flags: W
LayerCount: 2
Fore
SplineSet
156 541 m 2,0,1
 121 541 121 541 121 575 c 2,2,-1
 121 621 l 2,3,4
 121 657 121 657 156 657 c 2,5,-1
 612 657 l 2,6,7
 649 657 649 657 649 621 c 2,8,-1
 649 575 l 2,9,10
 649 541 649 541 612 541 c 2,11,-1
 156 541 l 2,0,1
EndSplineSet
Validated: 1
EndChar

StartChar: registered
Encoding: 174 174 112
Width: 989
GlyphClass: 2
Flags: W
LayerCount: 2
Fore
SplineSet
494 764 m 0,0,1
 337 764 337 764 231 864.5 c 128,-1,2
 125 965 125 965 125 1126 c 128,-1,3
 125 1287 125 1287 231 1388 c 128,-1,4
 337 1489 337 1489 494 1489 c 0,5,6
 652 1489 652 1489 758 1388 c 128,-1,7
 864 1287 864 1287 864 1126 c 128,-1,8
 864 965 864 965 758 864.5 c 128,-1,9
 652 764 652 764 494 764 c 0,0,1
184 1126 m 128,-1,11
 184 987 184 987 272.5 900 c 128,-1,12
 361 813 361 813 494 813 c 0,13,14
 629 813 629 813 717 898 c 128,-1,15
 805 983 805 983 805 1126 c 0,16,17
 805 1265 805 1265 716.5 1352.5 c 128,-1,18
 628 1440 628 1440 494 1440 c 0,19,20
 361 1440 361 1440 272.5 1352.5 c 128,-1,10
 184 1265 184 1265 184 1126 c 128,-1,11
313 940 m 0,21,22
 313 946 313 946 329.5 956.5 c 128,-1,23
 346 967 346 967 346 983 c 2,24,-1
 346 1272 l 2,25,26
 346 1288 346 1288 329.5 1297.5 c 128,-1,27
 313 1307 313 1307 313 1315 c 0,28,29
 313 1325 313 1325 328 1325 c 2,30,-1
 500 1325 l 2,31,32
 588 1325 588 1325 634 1298 c 128,-1,33
 680 1271 680 1271 680 1221 c 0,34,35
 680 1177 680 1177 644.5 1149 c 128,-1,36
 609 1121 609 1121 532 1120 c 1,37,-1
 655 983 l 2,38,39
 664 972 664 972 676 962.5 c 128,-1,40
 688 953 688 953 694 948 c 128,-1,41
 700 943 700 943 700 938 c 0,42,43
 700 928 700 928 686 928 c 2,44,-1
 612 928 l 2,45,46
 583 928 583 928 561 956 c 2,47,-1
 440 1108 l 1,48,-1
 440 983 l 2,49,50
 440 968 440 968 457.5 957.5 c 128,-1,51
 475 947 475 947 475 940 c 0,52,53
 475 928 475 928 459 928 c 2,54,-1
 328 928 l 2,55,56
 313 928 313 928 313 940 c 0,21,22
440 1143 m 1,57,-1
 461 1143 l 2,58,59
 525 1143 525 1143 551.5 1158.5 c 128,-1,60
 578 1174 578 1174 578 1210 c 0,61,62
 578 1249 578 1249 554 1268.5 c 128,-1,63
 530 1288 530 1288 489 1288 c 0,64,65
 458 1288 458 1288 449 1282.5 c 128,-1,66
 440 1277 440 1277 440 1260 c 2,67,-1
 440 1143 l 1,57,-1
EndSplineSet
Validated: 1
EndChar

StartChar: macron
Encoding: 175 175 113
Width: 815
GlyphClass: 2
Flags: W
LayerCount: 2
Fore
SplineSet
121 1235 m 2,0,1
 91 1235 91 1235 73.5 1253.5 c 128,-1,2
 56 1272 56 1272 56 1294.5 c 128,-1,3
 56 1317 56 1317 73.5 1335.5 c 128,-1,4
 91 1354 91 1354 121 1354 c 2,5,-1
 694 1354 l 2,6,7
 723 1354 723 1354 739.5 1335.5 c 128,-1,8
 756 1317 756 1317 756 1294.5 c 128,-1,9
 756 1272 756 1272 739.5 1253.5 c 128,-1,10
 723 1235 723 1235 694 1235 c 2,11,-1
 121 1235 l 2,0,1
EndSplineSet
Validated: 1
Substitution2: "Single Substitution lookup 34 subtable" macron.case
Substitution2: "'case' Case-Sensitive Forms in Latin lookup 29 subtable" macron.case
Substitution2: "'aalt' Access All Alternates in Latin lookup 0 subtable" macron.case
EndChar

StartChar: degree
Encoding: 176 176 114
Width: 641
GlyphClass: 2
Flags: W
LayerCount: 2
Fore
SplineSet
322 1214 m 128,-1,1
 227 1214 227 1214 156.5 1281 c 128,-1,2
 86 1348 86 1348 86 1444 c 0,3,4
 86 1539 86 1539 156.5 1606 c 128,-1,5
 227 1673 227 1673 322 1673 c 128,-1,6
 417 1673 417 1673 487 1606.5 c 128,-1,7
 557 1540 557 1540 557 1444 c 128,-1,8
 557 1348 557 1348 487 1281 c 128,-1,0
 417 1214 417 1214 322 1214 c 128,-1,1
172 1444 m 0,9,10
 172 1380 172 1380 216 1334 c 128,-1,11
 260 1288 260 1288 322 1288 c 128,-1,12
 384 1288 384 1288 427.5 1334 c 128,-1,13
 471 1380 471 1380 471 1444 c 0,14,15
 471 1507 471 1507 427 1552 c 128,-1,16
 383 1597 383 1597 322 1597 c 0,17,18
 260 1597 260 1597 216 1552 c 128,-1,19
 172 1507 172 1507 172 1444 c 0,9,10
EndSplineSet
Validated: 1
EndChar

StartChar: plusminus
Encoding: 177 177 115
Width: 1048
GlyphClass: 2
Flags: W
LayerCount: 2
Fore
SplineSet
467 266 m 2,0,-1
 489 596 l 1,1,-1
 170 571 l 2,2,3
 131 569 131 569 115 599 c 128,-1,4
 99 629 99 629 115 659 c 128,-1,5
 131 689 131 689 170 686 c 2,6,-1
 489 664 l 1,7,-1
 467 991 l 2,8,9
 465 1029 465 1029 494.5 1044.5 c 128,-1,10
 524 1060 524 1060 553.5 1044.5 c 128,-1,11
 583 1029 583 1029 580 991 c 2,12,-1
 559 664 l 1,13,-1
 881 686 l 2,14,15
 919 689 919 689 934.5 659 c 128,-1,16
 950 629 950 629 934.5 599 c 128,-1,17
 919 569 919 569 881 571 c 2,18,-1
 559 596 l 1,19,-1
 580 266 l 2,20,21
 583 227 583 227 553.5 211 c 128,-1,22
 524 195 524 195 494.5 211 c 128,-1,23
 465 227 465 227 467 266 c 2,0,-1
166 0 m 2,24,25
 135 0 135 0 122 23.5 c 128,-1,26
 109 47 109 47 122 70.5 c 128,-1,27
 135 94 135 94 166 94 c 2,28,-1
 883 94 l 2,29,30
 914 94 914 94 927 70.5 c 128,-1,31
 940 47 940 47 927 23.5 c 128,-1,32
 914 0 914 0 883 0 c 2,33,-1
 166 0 l 2,24,25
EndSplineSet
Validated: 1
Substitution2: "'tnum' Tabular Numbers in Latin lookup 25 subtable" plusminus.tf
Substitution2: "'aalt' Access All Alternates in Latin lookup 0 subtable" plusminus.tf
EndChar

StartChar: uni00B2
Encoding: 178 178 116
Width: 778
GlyphClass: 2
Flags: W
LayerCount: 2
Fore
SplineSet
115 819 m 2,0,1
 88 819 88 819 82 841 c 128,-1,2
 76 863 76 863 100 883 c 0,3,4
 296 1045 296 1045 380.5 1166 c 128,-1,5
 465 1287 465 1287 465 1427 c 0,6,7
 465 1579 465 1579 365 1579 c 0,8,9
 324 1579 324 1579 300 1557 c 128,-1,10
 276 1535 276 1535 276 1495 c 0,11,12
 276 1470 276 1470 292.5 1437.5 c 128,-1,13
 309 1405 309 1405 309 1384 c 0,14,15
 309 1347 309 1347 281.5 1320.5 c 128,-1,16
 254 1294 254 1294 207 1294 c 0,17,18
 153 1294 153 1294 122.5 1327.5 c 128,-1,19
 92 1361 92 1361 92 1415 c 0,20,21
 92 1512 92 1512 174 1579.5 c 128,-1,22
 256 1647 256 1647 383 1647 c 0,23,24
 517 1647 517 1647 594.5 1580 c 128,-1,25
 672 1513 672 1513 672 1407 c 0,26,27
 672 1305 672 1305 583 1197 c 128,-1,28
 494 1089 494 1089 283 940 c 1,29,-1
 492 940 l 2,30,31
 547 940 547 940 567 979 c 2,32,-1
 618 1069 l 2,33,34
 632 1090 632 1090 649 1086 c 128,-1,35
 666 1082 666 1082 666 1061 c 2,36,-1
 666 848 l 2,37,38
 666 819 666 819 631 819 c 2,39,-1
 115 819 l 2,0,1
EndSplineSet
Validated: 1
EndChar

StartChar: uni00B3
Encoding: 179 179 117
Width: 765
GlyphClass: 2
Flags: W
LayerCount: 2
Fore
SplineSet
313 1264 m 0,0,1
 400 1288 400 1288 432.5 1327 c 128,-1,2
 465 1366 465 1366 465 1440 c 128,-1,3
 465 1514 465 1514 435.5 1549.5 c 128,-1,4
 406 1585 406 1585 356 1585 c 0,5,6
 315 1585 315 1585 289.5 1565 c 128,-1,7
 264 1545 264 1545 264 1520 c 0,8,9
 264 1506 264 1506 285.5 1476 c 128,-1,10
 307 1446 307 1446 307 1417 c 0,11,12
 307 1381 307 1381 280 1357 c 128,-1,13
 253 1333 253 1333 211 1333 c 0,14,15
 158 1333 158 1333 129 1364.5 c 128,-1,16
 100 1396 100 1396 100 1450 c 0,17,18
 100 1541 100 1541 179 1594 c 128,-1,19
 258 1647 258 1647 377 1647 c 0,20,21
 495 1647 495 1647 572 1594 c 128,-1,22
 649 1541 649 1541 649 1446 c 0,23,24
 649 1377 649 1377 603.5 1329 c 128,-1,25
 558 1281 558 1281 479 1262 c 1,26,27
 569 1243 569 1243 622.5 1188.5 c 128,-1,28
 676 1134 676 1134 676 1053 c 0,29,30
 676 941 676 941 587.5 871 c 128,-1,31
 499 801 499 801 352 801 c 0,32,33
 225 801 225 801 158.5 850.5 c 128,-1,34
 92 900 92 900 92 971 c 0,35,36
 92 1019 92 1019 119.5 1045 c 128,-1,37
 147 1071 147 1071 193 1071 c 0,38,39
 283 1071 283 1071 283 973 c 0,40,41
 283 922 283 922 300 896 c 128,-1,42
 317 870 317 870 367 870 c 0,43,44
 425 870 425 870 454 915 c 128,-1,45
 483 960 483 960 483 1034 c 0,46,47
 483 1109 483 1109 446.5 1153 c 128,-1,48
 410 1197 410 1197 319 1210 c 0,49,50
 289 1213 289 1213 287.5 1235.5 c 128,-1,51
 286 1258 286 1258 313 1264 c 0,0,1
EndSplineSet
Validated: 1
EndChar

StartChar: acute
Encoding: 180 180 118
Width: 763
GlyphClass: 2
Flags: W
LayerCount: 2
Fore
SplineSet
289 1141 m 2,0,1
 247 1123 247 1123 222.5 1154.5 c 128,-1,2
 198 1186 198 1186 229 1225 c 2,3,-1
 365 1376 l 2,4,5
 409 1427 409 1427 440.5 1448.5 c 128,-1,6
 472 1470 472 1470 508 1470 c 0,7,8
 555 1470 555 1470 584.5 1439.5 c 128,-1,9
 614 1409 614 1409 614 1364 c 0,10,11
 614 1286 614 1286 510 1241 c 2,12,-1
 289 1141 l 2,0,1
EndSplineSet
Validated: 33
Substitution2: "Single Substitution lookup 34 subtable" acute.case
Substitution2: "'case' Case-Sensitive Forms in Latin lookup 29 subtable" acute.case
Substitution2: "'aalt' Access All Alternates in Latin lookup 0 subtable" acute.case
EndChar

StartChar: uni00B5
Encoding: 181 181 119
Width: 1298
GlyphClass: 2
Flags: W
AnchorPoint: "Anchor-2" 1174 20 basechar 0
AnchorPoint: "Anchor-1" 657 1047 basechar 0
AnchorPoint: "Anchor-0" 670 0 basechar 0
LayerCount: 2
Fore
SplineSet
264 -375 m 0,0,1
 207 -375 207 -375 174 -336.5 c 128,-1,2
 141 -298 141 -298 141 -240 c 0,3,4
 141 -210 141 -210 154 -163.5 c 128,-1,5
 167 -117 167 -117 183 -68.5 c 128,-1,6
 199 -20 199 -20 212 81.5 c 128,-1,7
 225 183 225 183 225 311 c 2,8,-1
 225 780 l 2,9,10
 225 808 225 808 207 825 c 128,-1,11
 189 842 189 842 167 848 c 128,-1,12
 145 854 145 854 127 867 c 128,-1,13
 109 880 109 880 109 899 c 0,14,15
 109 926 109 926 141 942 c 2,16,-1
 375 1065 l 2,17,18
 406 1082 406 1082 427.5 1071.5 c 128,-1,19
 449 1061 449 1061 449 1030 c 2,20,-1
 449 334 l 2,21,22
 449 216 449 216 491.5 164.5 c 128,-1,23
 534 113 534 113 637 113 c 0,24,25
 759 113 759 113 868 186 c 1,26,-1
 868 782 l 2,27,28
 868 810 868 810 850 827 c 128,-1,29
 832 844 832 844 811 850.5 c 128,-1,30
 790 857 790 857 772 870.5 c 128,-1,31
 754 884 754 884 754 905 c 0,32,33
 754 930 754 930 788 948 c 2,34,-1
 1020 1067 l 2,35,36
 1054 1084 1054 1084 1073 1073.5 c 128,-1,37
 1092 1063 1092 1063 1092 1032 c 2,38,-1
 1092 238 l 2,39,40
 1092 212 1092 212 1110 195 c 128,-1,41
 1128 178 1128 178 1149 171.5 c 128,-1,42
 1170 165 1170 165 1188 151.5 c 128,-1,43
 1206 138 1206 138 1206 119 c 0,44,45
 1206 92 1206 92 1174 78 c 2,46,-1
 942 -25 l 2,47,48
 910 -39 910 -39 889 -28.5 c 128,-1,49
 868 -18 868 -18 868 14 c 2,50,-1
 868 90 l 1,51,52
 715 -31 715 -31 516 -31 c 0,53,54
 394 -31 394 -31 322 29 c 1,55,56
 334 -41 334 -41 359.5 -123 c 128,-1,57
 385 -205 385 -205 385 -240 c 0,58,59
 385 -299 385 -299 353.5 -337 c 128,-1,60
 322 -375 322 -375 264 -375 c 0,0,1
EndSplineSet
Validated: 1
EndChar

StartChar: paragraph
Encoding: 182 182 120
Width: 1245
GlyphClass: 2
Flags: W
LayerCount: 2
Fore
SplineSet
543 -414 m 2,0,1
 527 -414 527 -414 516.5 -404 c 128,-1,2
 506 -394 506 -394 506 -377 c 2,3,-1
 506 659 l 1,4,5
 402 659 402 659 316 693 c 128,-1,6
 230 727 230 727 175.5 783.5 c 128,-1,7
 121 840 121 840 91 911.5 c 128,-1,8
 61 983 61 983 61 1061 c 128,-1,9
 61 1139 61 1139 91 1210.5 c 128,-1,10
 121 1282 121 1282 175.5 1339 c 128,-1,11
 230 1396 230 1396 316 1430 c 128,-1,12
 402 1464 402 1464 506 1464 c 2,13,-1
 1094 1464 l 2,14,15
 1126 1464 1126 1464 1133.5 1441 c 128,-1,16
 1141 1418 1141 1418 1116 1395 c 2,17,-1
 1044 1337 l 2,18,19
 1008 1306 1008 1306 1008 1253 c 2,20,-1
 1008 -377 l 2,21,22
 1008 -414 1008 -414 973 -414 c 2,23,-1
 891 -414 l 2,24,25
 876 -414 876 -414 866 -404 c 128,-1,26
 856 -394 856 -394 856 -377 c 2,27,-1
 856 1315 l 1,28,-1
 659 1315 l 1,29,-1
 659 -377 l 2,30,31
 659 -414 659 -414 623 -414 c 2,32,-1
 543 -414 l 2,0,1
EndSplineSet
Validated: 1
EndChar

StartChar: periodcentered
Encoding: 183 183 121
Width: 575
GlyphClass: 2
Flags: W
LayerCount: 2
Fore
SplineSet
287 444 m 0,0,1
 222 444 222 444 176.5 489 c 128,-1,2
 131 534 131 534 131 600 c 128,-1,3
 131 666 131 666 176.5 712 c 128,-1,4
 222 758 222 758 287 758 c 0,5,6
 353 758 353 758 398.5 712 c 128,-1,7
 444 666 444 666 444 600 c 128,-1,8
 444 534 444 534 398.5 489 c 128,-1,9
 353 444 353 444 287 444 c 0,0,1
EndSplineSet
Validated: 1
EndChar

StartChar: cedilla
Encoding: 184 184 122
Width: 608
GlyphClass: 2
Flags: W
LayerCount: 2
Fore
SplineSet
276 14 m 1,0,-1
 365 14 l 1,1,-1
 272 -102 l 1,2,3
 395 -102 395 -102 462.5 -144.5 c 128,-1,4
 530 -187 530 -187 530 -256 c 0,5,6
 530 -333 530 -333 450 -385.5 c 128,-1,7
 370 -438 370 -438 233 -438 c 0,8,9
 138 -438 138 -438 85.5 -407 c 128,-1,10
 33 -376 33 -376 33 -328 c 0,11,12
 33 -292 33 -292 57 -268 c 128,-1,13
 81 -244 81 -244 119 -244 c 0,14,15
 150 -244 150 -244 211.5 -272.5 c 128,-1,16
 273 -301 273 -301 317 -301 c 0,17,18
 355 -301 355 -301 379 -284.5 c 128,-1,19
 403 -268 403 -268 403 -236 c 0,20,21
 403 -186 403 -186 336 -186 c 0,22,23
 320 -186 320 -186 284.5 -190.5 c 128,-1,24
 249 -195 249 -195 233 -195 c 0,25,26
 197 -195 197 -195 179.5 -179.5 c 128,-1,27
 162 -164 162 -164 162 -141 c 0,28,29
 162 -116 162 -116 201 -68 c 2,30,-1
 276 14 l 1,0,-1
EndSplineSet
Validated: 1
EndChar

StartChar: uni00B9
Encoding: 185 185 123
Width: 557
GlyphClass: 2
Flags: W
LayerCount: 2
Fore
SplineSet
141 817 m 2,0,1
 106 817 106 817 106 842 c 0,2,3
 106 856 106 856 120 868.5 c 128,-1,4
 134 881 134 881 151.5 890 c 128,-1,5
 169 899 169 899 183 916.5 c 128,-1,6
 197 934 197 934 197 956 c 2,7,-1
 197 1442 l 1,8,-1
 94 1468 l 2,9,10
 66 1475 66 1475 67.5 1494 c 128,-1,11
 69 1513 69 1513 92 1524 c 2,12,-1
 332 1634 l 2,13,14
 354 1643 354 1643 368.5 1636.5 c 128,-1,15
 383 1630 383 1630 383 1612 c 2,16,-1
 383 956 l 2,17,18
 383 934 383 934 397 917 c 128,-1,19
 411 900 411 900 428 891.5 c 128,-1,20
 445 883 445 883 459 870 c 128,-1,21
 473 857 473 857 473 842 c 0,22,23
 473 817 473 817 438 817 c 2,24,-1
 141 817 l 2,0,1
EndSplineSet
Validated: 1
EndChar

StartChar: ordmasculine
Encoding: 186 186 124
Width: 1069
GlyphClass: 2
Flags: W
LayerCount: 2
Fore
SplineSet
537 713 m 128,-1,1
 370 713 370 713 256.5 824 c 128,-1,2
 143 935 143 935 143 1104 c 0,3,4
 143 1272 143 1272 256 1380.5 c 128,-1,5
 369 1489 369 1489 537 1489 c 0,6,7
 704 1489 704 1489 815 1381 c 128,-1,8
 926 1273 926 1273 926 1104 c 128,-1,9
 926 935 926 935 815 824 c 128,-1,0
 704 713 704 713 537 713 c 128,-1,1
154 528 m 0,10,11
 154 506 154 506 168.5 491.5 c 128,-1,12
 183 477 183 477 203 477 c 2,13,-1
 868 477 l 2,14,15
 890 477 890 477 904 491.5 c 128,-1,16
 918 506 918 506 918 528 c 0,17,18
 918 548 918 548 904 561.5 c 128,-1,19
 890 575 890 575 868 575 c 2,20,-1
 203 575 l 2,21,22
 183 575 183 575 168.5 561.5 c 128,-1,23
 154 548 154 548 154 528 c 0,10,11
352 1065 m 2,24,25
 352 933 352 933 401.5 865 c 128,-1,26
 451 797 451 797 537 797 c 0,27,28
 621 797 621 797 669 865 c 128,-1,29
 717 933 717 933 717 1065 c 2,30,-1
 717 1139 l 2,31,32
 717 1273 717 1273 669.5 1340 c 128,-1,33
 622 1407 622 1407 537 1407 c 0,34,35
 451 1407 451 1407 401.5 1340 c 128,-1,36
 352 1273 352 1273 352 1139 c 2,37,-1
 352 1065 l 2,24,25
EndSplineSet
Validated: 9
EndChar

StartChar: guillemotright
Encoding: 187 187 125
Width: 1191
GlyphClass: 2
Flags: W
LayerCount: 2
Fore
SplineSet
637 125 m 2,0,1
 623 113 623 113 611 120.5 c 128,-1,2
 599 128 599 128 608 145 c 2,3,-1
 782 473 l 2,4,5
 805 519 805 519 805 557 c 128,-1,6
 805 595 805 595 782 641 c 2,7,-1
 608 969 l 2,8,9
 599 986 599 986 611 993.5 c 128,-1,10
 623 1001 623 1001 637 989 c 2,11,-1
 1053 618 l 2,12,13
 1120 558 1120 558 1053 494 c 2,14,-1
 637 125 l 2,0,1
117 145 m 2,15,-1
 291 473 l 2,16,17
 314 519 314 519 314 557 c 128,-1,18
 314 595 314 595 291 641 c 2,19,-1
 117 969 l 2,20,21
 108 986 108 986 119.5 993.5 c 128,-1,22
 131 1001 131 1001 145 989 c 2,23,-1
 561 618 l 2,24,25
 628 558 628 558 561 494 c 2,26,-1
 145 125 l 2,27,28
 131 113 131 113 119.5 120.5 c 128,-1,29
 108 128 108 128 117 145 c 2,15,-1
EndSplineSet
Validated: 33
EndChar

StartChar: onequarter
Encoding: 188 188 126
Width: 1437
GlyphClass: 2
Flags: W
LayerCount: 2
Fore
SplineSet
160 518 m 2,0,1
 125 518 125 518 125 543 c 0,2,3
 125 557 125 557 139 569.5 c 128,-1,4
 153 582 153 582 170 591 c 128,-1,5
 187 600 187 600 201 617.5 c 128,-1,6
 215 635 215 635 215 657 c 2,7,-1
 215 1143 l 1,8,-1
 113 1169 l 2,9,10
 85 1176 85 1176 86.5 1195 c 128,-1,11
 88 1214 88 1214 111 1225 c 2,12,-1
 350 1335 l 2,13,14
 372 1344 372 1344 386.5 1337.5 c 128,-1,15
 401 1331 401 1331 401 1313 c 2,16,-1
 401 657 l 2,17,18
 401 635 401 635 415 618 c 128,-1,19
 429 601 429 601 446.5 592.5 c 128,-1,20
 464 584 464 584 478 571 c 128,-1,21
 492 558 492 558 492 543 c 0,22,23
 492 518 492 518 457 518 c 2,24,-1
 160 518 l 2,0,1
260 82 m 1,25,-1
 707 696 l 1,26,-1
 1083 1317 l 2,27,28
 1105 1353 1105 1353 1142 1353.5 c 128,-1,29
 1179 1354 1179 1354 1191.5 1326 c 128,-1,30
 1204 1298 1204 1298 1180 1257 c 1,31,-1
 733 639 l 1,32,-1
 356 23 l 2,33,34
 334 -13 334 -13 297.5 -13.5 c 128,-1,35
 261 -14 261 -14 249 14 c 128,-1,36
 237 42 237 42 260 82 c 1,25,-1
682 250 m 2,37,-1
 682 307 l 2,38,39
 682 328 682 328 696 348 c 2,40,-1
 1073 788 l 1,41,42
 1085 809 1085 809 1110 809 c 2,43,-1
 1196 809 l 2,44,45
 1229 809 1229 809 1229 772 c 2,46,-1
 1229 330 l 1,47,-1
 1341 330 l 2,48,49
 1367 330 1367 330 1360 303 c 2,50,-1
 1341 238 l 2,51,52
 1339 217 1339 217 1315 217 c 2,53,-1
 1229 217 l 1,54,-1
 1229 137 l 2,55,56
 1229 115 1229 115 1243 98 c 128,-1,57
 1257 81 1257 81 1274 73 c 128,-1,58
 1291 65 1291 65 1305 52.5 c 128,-1,59
 1319 40 1319 40 1319 25 c 0,60,61
 1319 15 1319 15 1309.5 7.5 c 128,-1,62
 1300 0 1300 0 1286 0 c 2,63,-1
 1008 0 l 2,64,65
 992 0 992 0 983.5 7.5 c 128,-1,66
 975 15 975 15 975 25 c 0,67,68
 975 38 975 38 988.5 50.5 c 128,-1,69
 1002 63 1002 63 1019 71.5 c 128,-1,70
 1036 80 1036 80 1049.5 97.5 c 128,-1,71
 1063 115 1063 115 1063 137 c 2,72,-1
 1063 217 l 1,73,-1
 713 217 l 2,74,75
 699 217 699 217 690.5 226 c 128,-1,76
 682 235 682 235 682 250 c 2,37,-1
786 330 m 1,77,-1
 1061 330 l 1,78,-1
 1061 651 l 1,79,-1
 786 330 l 1,77,-1
EndSplineSet
Validated: 33
EndChar

StartChar: onehalf
Encoding: 189 189 127
Width: 1525
GlyphClass: 2
Flags: W
LayerCount: 2
Fore
SplineSet
158 518 m 2,0,1
 123 518 123 518 123 543 c 0,2,3
 123 557 123 557 137 569.5 c 128,-1,4
 151 582 151 582 168 591 c 128,-1,5
 185 600 185 600 199 617.5 c 128,-1,6
 213 635 213 635 213 657 c 2,7,-1
 213 1143 l 1,8,-1
 111 1169 l 2,9,10
 83 1176 83 1176 84.5 1195 c 128,-1,11
 86 1214 86 1214 109 1225 c 2,12,-1
 348 1335 l 2,13,14
 370 1344 370 1344 384.5 1337.5 c 128,-1,15
 399 1331 399 1331 399 1313 c 2,16,-1
 399 657 l 2,17,18
 399 635 399 635 413 618 c 128,-1,19
 427 601 427 601 444 592.5 c 128,-1,20
 461 584 461 584 475 571 c 128,-1,21
 489 558 489 558 489 543 c 0,22,23
 489 518 489 518 455 518 c 2,24,-1
 158 518 l 2,0,1
258 82 m 1,25,-1
 705 696 l 1,26,-1
 1081 1317 l 2,27,28
 1103 1353 1103 1353 1140 1353.5 c 128,-1,29
 1177 1354 1177 1354 1189.5 1326 c 128,-1,30
 1202 1298 1202 1298 1178 1257 c 1,31,-1
 731 639 l 1,32,-1
 354 23 l 2,33,34
 332 -13 332 -13 295.5 -13.5 c 128,-1,35
 259 -14 259 -14 247 14 c 128,-1,36
 235 42 235 42 258 82 c 1,25,-1
844 594 m 0,37,38
 844 691 844 691 926 758 c 128,-1,39
 1008 825 1008 825 1135 825 c 0,40,41
 1269 825 1269 825 1346 758.5 c 128,-1,42
 1423 692 1423 692 1423 586 c 0,43,44
 1423 484 1423 484 1334 376 c 128,-1,45
 1245 268 1245 268 1034 119 c 1,46,-1
 1243 119 l 2,47,48
 1299 119 1299 119 1319 158 c 2,49,-1
 1370 248 l 2,50,51
 1384 269 1384 269 1400.5 265 c 128,-1,52
 1417 261 1417 261 1417 240 c 2,53,-1
 1417 27 l 2,54,55
 1417 -2 1417 -2 1382 -2 c 2,56,-1
 866 -2 l 2,57,58
 839 -2 839 -2 833.5 19.5 c 128,-1,59
 828 41 828 41 852 61 c 0,60,61
 1048 223 1048 223 1132.5 344.5 c 128,-1,62
 1217 466 1217 466 1217 606 c 0,63,64
 1217 758 1217 758 1116 758 c 0,65,66
 1075 758 1075 758 1051.5 736 c 128,-1,67
 1028 714 1028 714 1028 674 c 0,68,69
 1028 649 1028 649 1044.5 616.5 c 128,-1,70
 1061 584 1061 584 1061 563 c 0,71,72
 1061 526 1061 526 1033 499.5 c 128,-1,73
 1005 473 1005 473 958 473 c 0,74,75
 904 473 904 473 874 506.5 c 128,-1,76
 844 540 844 540 844 594 c 0,37,38
EndSplineSet
Validated: 33
EndChar

StartChar: threequarters
Encoding: 190 190 128
Width: 1556
GlyphClass: 2
Flags: W
LayerCount: 2
Fore
SplineSet
315 963 m 0,0,1
 402 987 402 987 434.5 1026 c 128,-1,2
 467 1065 467 1065 467 1139 c 128,-1,3
 467 1213 467 1213 437.5 1248.5 c 128,-1,4
 408 1284 408 1284 358 1284 c 0,5,6
 317 1284 317 1284 291.5 1264 c 128,-1,7
 266 1244 266 1244 266 1219 c 0,8,9
 266 1205 266 1205 287.5 1175 c 128,-1,10
 309 1145 309 1145 309 1116 c 0,11,12
 309 1080 309 1080 282 1056 c 128,-1,13
 255 1032 255 1032 213 1032 c 0,14,15
 160 1032 160 1032 131 1063.5 c 128,-1,16
 102 1095 102 1095 102 1149 c 0,17,18
 102 1240 102 1240 181 1293 c 128,-1,19
 260 1346 260 1346 379 1346 c 0,20,21
 497 1346 497 1346 574 1293 c 128,-1,22
 651 1240 651 1240 651 1145 c 0,23,24
 651 1076 651 1076 605.5 1028 c 128,-1,25
 560 980 560 980 481 961 c 1,26,27
 571 942 571 942 624.5 887.5 c 128,-1,28
 678 833 678 833 678 752 c 0,29,30
 678 640 678 640 589.5 570 c 128,-1,31
 501 500 501 500 354 500 c 0,32,33
 227 500 227 500 160.5 549.5 c 128,-1,34
 94 599 94 599 94 670 c 0,35,36
 94 718 94 718 121.5 744 c 128,-1,37
 149 770 149 770 195 770 c 0,38,39
 285 770 285 770 285 672 c 0,40,41
 285 621 285 621 302 595 c 128,-1,42
 319 569 319 569 369 569 c 0,43,44
 427 569 427 569 456 614 c 128,-1,45
 485 659 485 659 485 733 c 0,46,47
 485 809 485 809 448.5 852.5 c 128,-1,48
 412 896 412 896 322 909 c 0,49,50
 292 912 292 912 290 934.5 c 128,-1,51
 288 957 288 957 315 963 c 0,0,1
379 82 m 1,52,-1
 825 696 l 1,53,-1
 1202 1317 l 2,54,55
 1224 1353 1224 1353 1260.5 1353.5 c 128,-1,56
 1297 1354 1297 1354 1309.5 1326 c 128,-1,57
 1322 1298 1322 1298 1298 1257 c 1,58,-1
 852 639 l 1,59,-1
 475 23 l 2,60,61
 453 -13 453 -13 416.5 -13.5 c 128,-1,62
 380 -14 380 -14 368 14 c 128,-1,63
 356 42 356 42 379 82 c 1,52,-1
801 250 m 2,64,-1
 801 307 l 2,65,66
 801 328 801 328 815 348 c 2,67,-1
 1192 788 l 1,68,69
 1204 809 1204 809 1229 809 c 2,70,-1
 1315 809 l 2,71,72
 1348 809 1348 809 1348 772 c 2,73,-1
 1348 330 l 1,74,-1
 1460 330 l 2,75,76
 1486 330 1486 330 1479 303 c 2,77,-1
 1460 238 l 2,78,79
 1458 217 1458 217 1434 217 c 2,80,-1
 1348 217 l 1,81,-1
 1348 137 l 2,82,83
 1348 115 1348 115 1362 98 c 128,-1,84
 1376 81 1376 81 1393 73 c 128,-1,85
 1410 65 1410 65 1424 52.5 c 128,-1,86
 1438 40 1438 40 1438 25 c 0,87,88
 1438 15 1438 15 1428.5 7.5 c 128,-1,89
 1419 0 1419 0 1405 0 c 2,90,-1
 1126 0 l 2,91,92
 1094 0 1094 0 1094 25 c 0,93,94
 1094 38 1094 38 1108 50.5 c 128,-1,95
 1122 63 1122 63 1138 71.5 c 128,-1,96
 1154 80 1154 80 1168 97.5 c 128,-1,97
 1182 115 1182 115 1182 137 c 2,98,-1
 1182 217 l 1,99,-1
 831 217 l 2,100,101
 817 217 817 217 809 226 c 128,-1,102
 801 235 801 235 801 250 c 2,64,-1
905 330 m 1,103,-1
 1180 330 l 1,104,-1
 1180 651 l 1,105,-1
 905 330 l 1,103,-1
EndSplineSet
Validated: 33
EndChar

StartChar: questiondown
Encoding: 191 191 129
Width: 995
GlyphClass: 2
Flags: W
LayerCount: 2
Fore
SplineSet
512 1057 m 0,0,1
 668 1057 668 1057 758 984 c 128,-1,2
 848 911 848 911 848 786 c 0,3,4
 848 717 848 717 818 659.5 c 128,-1,5
 788 602 788 602 740 563 c 128,-1,6
 692 524 692 524 634 489.5 c 128,-1,7
 576 455 576 455 518.5 424 c 128,-1,8
 461 393 461 393 413 361 c 128,-1,9
 365 329 365 329 335 284.5 c 128,-1,10
 305 240 305 240 305 188 c 0,11,12
 305 126 305 126 340.5 87.5 c 128,-1,13
 376 49 376 49 453 49 c 0,14,15
 504 49 504 49 539.5 66.5 c 128,-1,16
 575 84 575 84 594 112.5 c 128,-1,17
 613 141 613 141 626 175 c 128,-1,18
 639 209 639 209 650.5 243 c 128,-1,19
 662 277 662 277 676.5 305.5 c 128,-1,20
 691 334 691 334 718.5 351.5 c 128,-1,21
 746 369 746 369 786 369 c 0,22,23
 838 369 838 369 867.5 341.5 c 128,-1,24
 897 314 897 314 897 264 c 0,25,26
 897 154 897 154 770.5 63.5 c 128,-1,27
 644 -27 644 -27 455 -27 c 0,28,29
 293 -27 293 -27 196.5 48 c 128,-1,30
 100 123 100 123 100 240 c 0,31,32
 100 311 100 311 130 369.5 c 128,-1,33
 160 428 160 428 208 466.5 c 128,-1,34
 256 505 256 505 313.5 538.5 c 128,-1,35
 371 572 371 572 429 602 c 128,-1,36
 487 632 487 632 535 664 c 128,-1,37
 583 696 583 696 613 740 c 128,-1,38
 643 784 643 784 643 838 c 0,39,40
 643 904 643 904 605.5 941.5 c 128,-1,41
 568 979 568 979 504 979 c 0,42,43
 450 979 450 979 418 949.5 c 128,-1,44
 386 920 386 920 373.5 878 c 128,-1,45
 361 836 361 836 349.5 793.5 c 128,-1,46
 338 751 338 751 312 721.5 c 128,-1,47
 286 692 286 692 240 692 c 0,48,49
 195 692 195 692 170 719.5 c 128,-1,50
 145 747 145 747 145 793 c 0,51,52
 145 898 145 898 247.5 977.5 c 128,-1,53
 350 1057 350 1057 512 1057 c 0,0,1
362 1339 m 0,54,55
 362 1403 362 1403 407.5 1448 c 128,-1,56
 453 1493 453 1493 518 1493 c 0,57,58
 582 1493 582 1493 627 1448.5 c 128,-1,59
 672 1404 672 1404 672 1339 c 0,60,61
 672 1273 672 1273 627.5 1227.5 c 128,-1,62
 583 1182 583 1182 518 1182 c 128,-1,63
 453 1182 453 1182 407.5 1227.5 c 128,-1,64
 362 1273 362 1273 362 1339 c 0,54,55
EndSplineSet
Validated: 1
EndChar

StartChar: Agrave
Encoding: 192 192 130
Width: 1415
GlyphClass: 2
Flags: W
AnchorPoint: "Anchor-8" 606 1825 basechar 0
AnchorPoint: "Anchor-7" 1358 0 basechar 0
AnchorPoint: "Anchor-6" 705 0 basechar 0
LayerCount: 2
Fore
SplineSet
43 0 m 2,0,1
 24 0 24 0 15 8.5 c 128,-1,2
 6 17 6 17 6 29 c 0,3,4
 6 50 6 50 28.5 68.5 c 128,-1,5
 51 87 51 87 83.5 117 c 128,-1,6
 116 147 116 147 133 190 c 2,7,-1
 555 1249 l 1,8,9
 571 1302 571 1302 567.5 1327.5 c 128,-1,10
 564 1353 564 1353 551.5 1384.5 c 128,-1,11
 539 1416 539 1416 539 1430 c 0,12,13
 539 1464 539 1464 578 1464 c 2,14,-1
 731 1464 l 2,15,16
 763 1464 763 1464 779.5 1454.5 c 128,-1,17
 796 1445 796 1445 805 1423 c 2,18,-1
 1286 197 l 2,19,20
 1300 162 1300 162 1322 134 c 128,-1,21
 1344 106 1344 106 1361.5 92.5 c 128,-1,22
 1379 79 1379 79 1392 63 c 128,-1,23
 1405 47 1405 47 1405 31 c 0,24,25
 1405 0 1405 0 1370 0 c 2,26,-1
 961 0 l 2,27,28
 924 0 924 0 924 29 c 0,29,30
 924 46 924 46 939.5 63 c 128,-1,31
 955 80 955 80 973 92 c 128,-1,32
 991 104 991 104 1006.5 124 c 128,-1,33
 1022 144 1022 144 1022 166 c 0,34,35
 1022 183 1022 183 1008 223 c 2,36,-1
 938 403 l 1,37,-1
 352 403 l 1,38,-1
 283 221 l 2,39,40
 268 184 268 184 268 154 c 0,41,42
 268 130 268 130 282.5 112 c 128,-1,43
 297 94 297 94 315 84.5 c 128,-1,44
 333 75 333 75 347.5 60.5 c 128,-1,45
 362 46 362 46 362 29 c 0,46,47
 362 17 362 17 352.5 8.5 c 128,-1,48
 343 0 343 0 326 0 c 2,49,-1
 43 0 l 2,0,1
393 506 m 1,50,-1
 899 506 l 1,51,-1
 647 1165 l 1,52,-1
 393 506 l 1,50,-1
393 1692 m 0,53,54
 393 1729 393 1729 420.5 1752.5 c 128,-1,55
 448 1776 448 1776 492 1776 c 0,56,57
 539 1776 539 1776 590 1747 c 2,58,-1
 838 1620 l 2,59,60
 869 1603 869 1603 875 1580.5 c 128,-1,61
 881 1558 881 1558 862 1543.5 c 128,-1,62
 843 1529 843 1529 811 1534 c 2,63,-1
 522 1581 l 2,64,65
 458 1590 458 1590 425.5 1620.5 c 128,-1,66
 393 1651 393 1651 393 1692 c 0,53,54
EndSplineSet
Validated: 1048609
Substitution2: "'c2sc' Capitals to Small Capitals in Latin lookup 27 subtable" agrave.sc
Substitution2: "'aalt' Access All Alternates in Latin lookup 0 subtable" agrave.sc
EndChar

